<svg xmlns="http://www.w3.org/2000/svg" viewBox="0 0 339.2 123.69"><defs><style>.cls-1{fill:#bc7a22;}.cls-2{fill:#8e571c;}.cls-3{fill:#aa6b21;}.cls-4{fill:#603813;}</style></defs><title>Asset 8</title><g id="Layer_2" data-name="Layer 2"><g id="objects"><path class="cls-1" d="M170.1,2.77c75.93,0,117.62,9.39,140.19,18.69,11.29,4.64,17.81,9.25,21.47,12.65a25.39,25.39,0,0,1,3.62,4c.32.47.53.83.66,1.06v0a9.27,9.27,0,0,1-.42,1.55c-.7,1.94-2.45,5.27-6.93,9.23-6.71,5.93-19.63,13.24-44.29,19.06S223.4,79.2,169.86,79.2C86.79,79.21,45,68.26,24.06,57.49,13.62,52.11,8.41,46.79,5.79,42.92a18.25,18.25,0,0,1-2.3-4.6,11.27,11.27,0,0,1-.3-1.21h0a22.79,22.79,0,0,1,5.23-5.46c6.1-4.91,18.69-12.14,43.68-18.12S114.47,2.77,170.1,2.77Z"/><path class="cls-2" d="M78.43,83.31C81,92.52,91,106.76,91.29,107.2a346.4,346.4,0,0,1-53-15.38C8.16,80.18,7.3,53,7.3,53,21.85,76.42,78.43,83.31,78.43,83.31Z"/><path class="cls-3" d="M91.29,107.2C91,106.76,81,92.52,78.43,83.31c0,0-56.58-6.89-71.13-30.29,0,0,.85,27.16,31,38.8A346.4,346.4,0,0,0,91.29,107.2ZM330.48,52a31.88,31.88,0,0,0,5.82-6.6c0,16-2.75,26.25-6.76,33s-9.27,10.23-14.77,12.68c-50.06,22.15-99.57,29.78-143.59,29.78a391.16,391.16,0,0,1-107.37-15.1A282.94,282.94,0,0,1,30,93.88c-4.24-1.85-7.73-3.56-10.4-5a31.2,31.2,0,0,1-5.37-3.5,26.94,26.94,0,0,1-5.9-8.23,56.85,56.85,0,0,1-4.55-16,105.92,105.92,0,0,1-1-15.19c0-.84,0-1.64,0-2.37.17.27.35.55.54.83,2.18,3.24,5.9,7.21,12.16,11.34,9.41,6.19,24.55,12.73,49,17.73s58.35,8.46,105.2,8.46c71.57,0,112.7-7.68,136.48-16.53C318.12,61,325.68,56.24,330.48,52Z"/><path class="cls-4" d="M.24,36.86s0-.45,0-.17C-.2,38,.1,41.79.1,45.93a98.48,98.48,0,0,0,2,21.3,51.74,51.74,0,0,0,3.67,11,29.39,29.39,0,0,0,6.49,9.07,33,33,0,0,0,5.92,3.91,173.6,173.6,0,0,0,21.53,9.54c28.19,10.61,75.35,22.89,131.44,22.89,44.37,0,94.33-7.7,144.81-30a33.2,33.2,0,0,0,16.09-13.83c4.34-7.38,7.12-18.13,7.13-34.47a43.25,43.25,0,0,0-.41-6.62l-.11-.26c-.08-.18-1.15-2.72-5.11-6.37-5.94-5.49-18.32-13.51-43.44-20.16S227.09,0,170,0C93.86,0,51.62,8.86,28.3,17.81c-11.67,4.47-18.6,9-22.65,12.43s-5.2,5.83-5.28,6l-.14.29v.14m2.39.5.73.8,0-.54c0-.14.23-.37.23-.64v-.06h0c0-.9,1.94-2.74,4.93-5.15,6.1-4.91,18.63-12.13,43.6-18.11S114.43,2.77,170,2.77c75.88,0,117.53,9.39,140.09,18.68,11.28,4.64,17.79,9.25,21.45,12.64a25.23,25.23,0,0,1,3.61,4c.32.47.53.83.66,1.06v0l.08.15c-.07.32-.22.78-.44,1.4-.7,1.94-2.47,5.27-7,9.22-6.71,5.92-19.63,13.23-44.27,19s-61,10.13-114.49,10.13c-83,0-124.83-10.94-145.71-21.7C13.62,52.08,8.41,46.76,5.79,42.89a18.24,18.24,0,0,1-2.3-4.6,4.61,4.61,0,0,0-.39-.85c0-.09,0-.18,0-.25M329.54,78.46c-4,6.79-9.27,10.23-14.77,12.67-50.06,22.15-99.57,29.79-143.59,29.79a391.16,391.16,0,0,1-107.37-15.1A282.94,282.94,0,0,1,30,93.88c-4.24-1.85-7.73-3.56-10.4-5a31.2,31.2,0,0,1-5.37-3.5,26.94,26.94,0,0,1-5.9-8.23,56.85,56.85,0,0,1-4.55-16,105.93,105.93,0,0,1-1-15.19c0-.78,0-1.51,0-2.2.16.21.33.43.48.66,2.18,3.24,5.93,7.21,12.19,11.34C24.88,61.92,40,68.47,64.54,73.46s58.36,8.46,105.21,8.46c71.57,0,112.71-7.68,136.48-16.53C318.12,61,325.74,56.24,330.54,52a27.35,27.35,0,0,0,5.75-6.35C336.25,61.53,333.52,71.71,329.54,78.46Z"/><polyline class="cls-4" points="91.97 106.5 91.96 106.49 90.62 107.91 90.63 107.92"/><path class="cls-4" d="M7.3,53l-1,0a42.06,42.06,0,0,0,4.3,15.43c4.06,8.42,12,18.34,27.36,24.25a347,347,0,0,0,53.13,15.43l2.33.42-1.36-1.94c-.15-.21-2.71-3.86-5.54-8.6S80.6,87.48,79.37,83l-.18-.63-.65-.08-.63-.08A212.91,212.91,0,0,1,45.6,75.1,115.68,115.68,0,0,1,23.67,66C17,62.28,11.4,57.78,8.13,52.5L6.21,49.42,6.33,53l1,0-.83.52c3.78,6.07,10.18,11,17.62,15,11.16,6,24.69,9.91,35.45,12.36s18.75,3.43,18.77,3.43l.12-1-.94.26C78.83,88.36,82,94.24,84.87,99s5.46,8.48,5.62,8.72l.8-.56.17-1A345.33,345.33,0,0,1,38.68,90.91c-14.85-5.73-22.4-15.21-26.3-23.28A44.12,44.12,0,0,1,8.86,57.25c-.27-1.33-.42-2.41-.5-3.15,0-.37-.06-.65-.08-.84s0-.16,0-.21V53l-1,0-.83.52Z"/></g></g></svg>