<svg xmlns="http://www.w3.org/2000/svg" viewBox="0 0 348.84 155.62"><defs><style>.cls-1{fill:#bc7a22;}.cls-2{fill:#603813;}.cls-3{fill:#9b621e;}</style></defs><title>Asset 1</title><g id="Layer_2" data-name="Layer 2"><g id="objects"><path class="cls-1" d="M172.54,0S43.75,5.64,6.14,82.73s166.4,70.51,166.4,70.51,183,6.31,173.92-55.47C338.63,44.19,272.2,3.45,172.54,0Z"/><path class="cls-2" d="M172.55,1.2c-.1,0-3.27.15-9.13.74s-14.67,1.64-25.63,3.74c-2.75.5-5.62,1.11-8.64,1.74s-6.15,1.4-9.4,2.25c-6.51,1.67-13.51,3.62-20.86,6.11s-15.07,5.4-23,9a199.25,199.25,0,0,0-24,12.94A142.92,142.92,0,0,0,28.76,55.86a106.65,106.65,0,0,0-19,24.86L7.76,84.28l-.1.17-.11.24-.21.47-.43.95L6.06,88c-.43,1.25-1,2.46-1.33,3.75a35.63,35.63,0,0,0-1,3.91,29.9,29.9,0,0,0-.59,8A26,26,0,0,0,5,111.56a34.09,34.09,0,0,0,10.12,13.18,70,70,0,0,0,14.84,9.19c10.72,5.07,22.43,8.52,34.42,11.15,6,1.33,12.09,2.43,18.23,3.36s12.34,1.75,18.59,2.37c12.49,1.26,25.12,2,37.82,2.44q9.52.26,19.08.22,4.78,0,9.55-.12l4.77-.14,4.84.06c12.74.07,25.49-.28,38.16-1s25.27-1.65,37.7-3.15a335.12,335.12,0,0,0,36.6-6.24c5.95-1.4,11.8-3,17.47-5a107.65,107.65,0,0,0,16.33-7,53.36,53.36,0,0,0,13.73-10.1,26.37,26.37,0,0,0,7.26-14.19,29.2,29.2,0,0,0-.09-7.88l-.76-4.19c-.28-1.37-.66-2.64-1-4a79.17,79.17,0,0,0-5.84-15.09,94.38,94.38,0,0,0-8.58-13.3c-1.66-2-3.26-4.05-5-5.91s-3.55-3.7-5.35-5.49a123.19,123.19,0,0,0-11.49-9.61c-1-.72-2-1.47-3-2.17l-3-2c-2-1.4-4-2.59-6-3.86C278,23.41,261.56,17.17,246.73,12.74a277.66,277.66,0,0,0-39.27-8.48c-11-1.63-19.81-2.16-25.77-2.61Zm0-.2s3.19,0,9.17.3c6,.42,14.75.87,25.84,2.28,2.77.35,5.69.77,8.75,1.19s6.25,1,9.57,1.56,6.77,1.23,10.32,2.07c1.78.41,3.6.77,5.43,1.23L247.21,11a243.81,243.81,0,0,1,23.7,7.59,175.32,175.32,0,0,1,25,11.76,134.84,134.84,0,0,1,24.45,17.73,109.56,109.56,0,0,1,10.9,11.74,98.36,98.36,0,0,1,9.07,13.87,83.24,83.24,0,0,1,6.27,15.91c.35,1.41.76,2.86,1,4.27l.76,4.19a33.11,33.11,0,0,1,.1,9.24,30.56,30.56,0,0,1-8.35,16.42,45.27,45.27,0,0,1-7,6,67.36,67.36,0,0,1-7.85,4.79,111.53,111.53,0,0,1-17,7.09c-5.84,2-11.82,3.55-17.87,4.92a327,327,0,0,1-37.05,6,585.74,585.74,0,0,1-76.28,2.83l-4.74-.15-4.8.05q-4.8,0-9.59-.05-9.58-.13-19.12-.56c-12.72-.5-25.38-1.36-37.89-2.7-6.25-.69-12.48-1.43-18.65-2.35s-12.29-2-18.34-3.22c-12.07-2.53-24-5.66-35-10.61a72,72,0,0,1-15.54-9.17,36.76,36.76,0,0,1-11.2-14,29,29,0,0,1-2.2-8.74A32.32,32.32,0,0,1,.57,95a38.75,38.75,0,0,1,1-4.26C2,89.39,2.55,88,3,86.64l.84-1.91.42-1,.21-.47.1-.24c.09-.18.09-.18.15-.29l2-3.71A105.57,105.57,0,0,1,26.34,53.38,135.82,135.82,0,0,1,50.28,35,184.72,184.72,0,0,1,74.95,22.53c8.1-3.37,16-6.08,23.43-8.37A325.2,325.2,0,0,1,137.67,5c11-1.88,19.75-2.81,25.71-3.39l9.17-.6Z"/><path class="cls-3" d="M31.47,99s-4.39,45.13,170.47,45.13c0,0-157.94-22.78-144.78-85C57.17,59.06,32.1,80.16,31.47,99Z"/><path class="cls-2" d="M202.94,146h0c-51.08,0-91.85-4-121.18-11.65-21.21-5.51-36.08-12.92-44.19-21.85-6.51-7.17-6.06-12.75-6-13,.63-19,25-39.71,26-40.58l2.17-1.84-.59,2.77c-2,9.45,0,18.56,6,27.09,28.3,40.53,136.91,56.78,138,56.94ZM56.73,62.25c-6,5.51-22.78,22.34-23.28,37.34,0,.1-.35,5.12,5.68,11.67C49.89,123,83.9,142.3,191,143.64c-11-2-28.31-5.66-46.82-11.1-41.44-12.18-68.58-27.14-80.69-44.47C57.79,79.93,55.53,71.26,56.73,62.25Z"/><path class="cls-2" d="M285.63,56.85c-2.21-1.06-6-2.49-7.43-.33v.21c1.73,2,4.84,2.21,7,3.7.82.57,3,2,4,.71C290.26,59.57,287.48,56.44,285.63,56.85Z"/><path class="cls-2" d="M262.72,72l-.06-.16c-.1-.39-.87-.61-1.16-.73-1.21-.47-2.16-1.4-3.37-1.91-2-.84-3.62,1.4-1.69,2.67,1.05.7,2.3.93,3.41,1.53a17.49,17.49,0,0,1,2.79,1.36,1.64,1.64,0,0,0,1.08.4c.72,0,.95-.87.91-1.42A2,2,0,0,0,262.72,72Z"/><path class="cls-2" d="M262.93,45.9a1.64,1.64,0,0,0,1.44-1,2.07,2.07,0,0,0,.06-1.17,8.28,8.28,0,0,0-.35-.87l0-.07a1.13,1.13,0,0,0-.16-.32,1.09,1.09,0,0,1,0-.39.3.3,0,0,0-.55-.19c-1.75-1.14-5.6-.33-4.62,1.83A4.33,4.33,0,0,0,262.93,45.9Z"/><path class="cls-2" d="M242.74,48.63c-.15-.64-1.11-.89-1.66-1.07a2.43,2.43,0,0,0-2.43,1.18,3.05,3.05,0,0,0,0,3,3.12,3.12,0,0,0,2.22,1.52c1.42.46,4.29,1.5,5.43,0C247.85,51.15,244.21,49.11,242.74,48.63Z"/><path class="cls-2" d="M212.44,28.7c-.32-.57-1.32-.55-1.9-.55a2.42,2.42,0,0,0-2,1.82A3.05,3.05,0,0,0,212,33.62c1.5,0,4.53.24,5.21-1.55C218.06,29.69,214,28.76,212.44,28.7Z"/><path class="cls-2" d="M216.26,50.23l-.06-.13c-1.86-.73-3.53-2.48-5.63-2.51A1.44,1.44,0,0,0,209,48.67c-.3.93.33,1.42.92,2a34.22,34.22,0,0,0,3.2,2.88c.61.49,1.49,1.3,2.32,1.31.62,0,1-2.43,1.1-2.88.08-.25.42-.9.24-1.17A3.47,3.47,0,0,0,216.26,50.23Z"/><path class="cls-2" d="M196.7,67.73l-.09-.14c-.21-.35-1-.34-1.32-.37-1.3-.12-2.46-.74-3.77-.89-2.12-.24-3.07,2.37-.87,3,1.2.37,2.47.24,3.7.5a18.3,18.3,0,0,1,3.06.53,1.69,1.69,0,0,0,1.16.08c.7-.19.66-1.11.47-1.63A2,2,0,0,0,196.7,67.73Z"/><path class="cls-2" d="M190.62,41.18a2,2,0,0,0-.28-1.15,8,8,0,0,0-.57-.74l0-.08a1.62,1.62,0,0,0-.25-.26.87.87,0,0,1-.13-.36.3.3,0,0,0-.59,0c-2-.6-5.46,1.26-3.92,3.06a4.36,4.36,0,0,0,4.64.94A1.64,1.64,0,0,0,190.62,41.18Z"/><path class="cls-2" d="M170.93,50.9c-.33-.57-1.32-.55-1.9-.55a2.42,2.42,0,0,0-2,1.82A3,3,0,0,0,167.9,55a3.07,3.07,0,0,0,2.55.83c1.5,0,4.54.23,5.21-1.55C176.56,51.89,172.49,51,170.93,50.9Z"/><path class="cls-2" d="M154.94,33c-2.44.08-6.47.55-6.74,3.12l.09.19c2.44.93,5.32-.27,7.88.08,1,.13,3.6.36,3.84-1.18C160.31,33.25,156.4,31.74,154.94,33Z"/><path class="cls-2" d="M149.94,84a3.3,3.3,0,0,0-.69-.43l-.09-.11c-2-.18-4.08-1.39-6.11-.83a1.46,1.46,0,0,0-1.19,1.49c0,1,.71,1.27,1.47,1.68a33.54,33.54,0,0,0,3.88,1.86,4.5,4.5,0,0,0,2.58.6c.59-.18.24-2.61.24-3.07C150,85,150.19,84.25,149.94,84Z"/><path class="cls-2" d="M146.51,64.61c.6-.17.24-2.6.24-3.07,0-.25.16-1-.08-1.18a3.74,3.74,0,0,0-.69-.43l-.09-.1c-2-.19-4.08-1.39-6.11-.83a1.44,1.44,0,0,0-1.19,1.48c0,1,.71,1.27,1.46,1.69A35,35,0,0,0,143.92,64,4.53,4.53,0,0,0,146.51,64.61Z"/><path class="cls-2" d="M124,40.07c-.95-.26-3.37-.84-4,.37-.07.13.07.24.2.22l.43-.11v0c-1.63.4-2.5,1.67-2.59,3.67a.23.23,0,0,0,.24.25,21.73,21.73,0,0,0,5.52-.39c.71-.16,3-.58,2.86-1.73C126.54,41.07,125.09,40.38,124,40.07Z"/><path class="cls-2" d="M106.35,68.4a.32.32,0,0,0-.28.34,1.93,1.93,0,0,0,.14.66.2.2,0,0,0,.25.1,4.88,4.88,0,0,0-1.12.93,6.33,6.33,0,0,0-1.72,3.87.27.27,0,0,0,.21.3c2.58.55,4.38-1.22,5.61-3.28.47-.78.77-1.73,0-2.42S107.26,68.4,106.35,68.4Zm.2,1a2.08,2.08,0,0,0,.11-.4h.86c-.06.23-.2.17-.62.29a2.11,2.11,0,0,0-.42.17Z"/><path class="cls-2" d="M105.47,53.32c.76-1.61-1.47-2.48-3.22-2.92h0a3.92,3.92,0,0,0-1.33-.2l-.16,0c-.16,0-.23-.15-.24,0a8.82,8.82,0,0,0-5.66,2.34c-1.65,1.77.06,3,2,2.92,1.68-.1,3.26-1,5-1.1C103,54.22,104.79,54.74,105.47,53.32Z"/><path class="cls-2" d="M76.36,70.68l0,0c.09-.09-.06-.25-.16-.17l-.27.18a2.57,2.57,0,0,1-1.34-.32c-.31-.24-.71.23-.39.47a2.7,2.7,0,0,0,.67.36,11.31,11.31,0,0,0-3.11,1.09c-.31.29-.63.57-.95.85-.79.66-.6.15-.94.39A2.83,2.83,0,0,0,69,74.79c-.86,3,2.91,2.48,4.54,1.52a10.1,10.1,0,0,0,1.93-1.4c.46-.43,1.34-.39,1.95-.53.79-.18,2-.65,2.25-1.51C80.41,70.59,78.15,70.73,76.36,70.68Z"/></g></g></svg>