<svg xmlns="http://www.w3.org/2000/svg" viewBox="0 0 372.98 120.73"><defs><style>.cls-1{fill:#f7931e;}.cls-2{fill:#ba631c;}</style></defs><title>Asset 6</title><g id="Layer_2" data-name="Layer 2"><g id="objects"><path class="cls-1" d="M208.44,2.85C238,11.57,268.2,18.27,297.6,27.62c6.77,2.16,13.61,4.23,20.5,6.05h0a1,1,0,0,1,.44.1c.33,0,.67.12,1,.2a1,1,0,0,1,.28.15c5.53,1.42,11.12,2.67,16.76,3.63,6.33,1.06,13,2,19,4.16a28.43,28.43,0,0,0,5.31,2.38,28.87,28.87,0,0,1,6.1,4.49.76.76,0,0,0,1.25-.26,19.62,19.62,0,0,1,2.87,3c3,3.82,2,8.51-.07,12.46-1.62,3.11-2.78,5.57-6,6.37a.9.9,0,0,0-.17-.75C361.12,65,357,59.1,352,55.75c-5.59-3.77-13.36-.7-19,1.18-22,7.4-44,14.12-66.32,20.28-11,3-22,6.33-32.75,10.3-7.16,2.63-15.32,5.2-21.44,9.94-4.8,3.71-9.09,8.11-13.47,12.3-1.35,1.29-10.93,11.56-13,9.75a.43.43,0,0,0-.66.2A.65.65,0,0,0,185,119c-6-2.93-8.76-9-13.26-13.55a60.82,60.82,0,0,0-15.23-10.86c-11.89-6.27-25.21-9.4-38.13-12.68-13.75-3.47-27.26-7.77-40.63-12.49C62,63.83,47.3,56.52,32,50.08a.22.22,0,0,0-.29.21C23.14,47.36,14.85,54.9,10,61.43c-.9,1.21-3.46,6.35-5.46,5.5-3.15-1.35-3.42-8.06-3.17-10.69C2,49.58,6.73,42.68,12.84,40l.2.23q-.45.41-.88.85c-.08.09,0,.21.11.13,5.31-4.4,13-5.36,19.58-6.45s13-2.52,19.58-4.17L66.6,26.66l0,0,0,0c12.65-3.25,25.29-6.48,38-9.54Q131,10.78,157.74,5.78c16.64-3.11,34.77-8.3,51.15-1.44.49.21,1-.59.5-.81l-1-.45Z"/><path class="cls-2" d="M51.42,30.54c-6.53,1.65-12.94,3.05-19.58,4.17s-14.27,2-19.58,6.45c-.1.08-.19,0-.11-.13q.42-.44.88-.85c4-3.5,9.88-4.63,14.91-5.58,7.23-1.39,14.4-2.6,21.55-4.42C69,25.22,88.43,20,108,15.43c19-4.47,38.14-8.22,57.29-12,14-2.76,29.37-5.92,43-.35l1,.45c.49.22,0,1-.5.81-16.38-6.85-34.51-1.67-51.15,1.44q-26.69,5-53.1,11.32c-12.7,3.05-25.34,6.29-38,9.54l0,0,0,0Z"/><path class="cls-2" d="M32,50.08c15.28,6.44,30,13.74,45.7,19.31,13.37,4.72,26.88,9,40.63,12.49,12.92,3.28,26.24,6.41,38.13,12.68a60.82,60.82,0,0,1,15.23,10.86C176.2,110,179,116,185,119a.65.65,0,0,1,.38.72v.17a1.08,1.08,0,0,1-1.4.79c-5.87-2.78-8.24-8.54-12.58-13a61.52,61.52,0,0,0-17-12.2c-12.4-6.09-25.88-9.3-39.15-12.89-14.37-3.87-28.6-8.46-42.54-13.66-13-4.84-27.17-9.74-39-17.27A.67.67,0,0,1,33,52c-6.09-.94-10.84-.67-15.66,3.61A56.14,56.14,0,0,0,9.2,65C7.34,67.52,5,70.16,2.53,66.83-4,58.06,3.16,42.73,12.8,39.71c.17-.06.16.19,0,.24C6.73,42.68,2,49.58,1.37,56.24c-.24,2.63,0,9.34,3.17,10.69,2,.86,4.56-4.28,5.46-5.5,4.85-6.53,13.14-14.07,21.73-11.15A.22.22,0,0,1,32,50.08Z"/></g></g></svg>