<svg xmlns="http://www.w3.org/2000/svg" viewBox="0 0 353.11 135.82"><defs><style>.cls-1{fill:#42210b;}.cls-2{fill:#593212;}.cls-3{fill:#603813;}</style></defs><title>Asset 7</title><g id="Layer_2" data-name="Layer 2"><g id="objects"><path class="cls-1" d="M352.4,77.44a22.76,22.76,0,0,1,.33,9.54c-1.35,6.2-5.11,10.63-8.66,14.14a1.92,1.92,0,0,1-.47.77l-.18.19-.24,0a3.27,3.27,0,0,0-2.67.77,9.39,9.39,0,0,0-3.47,3.8l0,.15,0,.21-.18.12a54.73,54.73,0,0,1-11.59,5.35l-1,.33a191.83,191.83,0,0,1-21,6.29c-1.65.36-3.28.75-4.91,1.14l-.09,0H298a9.76,9.76,0,0,1-1.77-.34,6.21,6.21,0,0,1-1.27-.54,3.48,3.48,0,0,0-1.53-.52h-.21a.72.72,0,0,0-.29,0,2.12,2.12,0,0,0-.68.22l-.1,0a3.2,3.2,0,0,0-1.05.52,9.35,9.35,0,0,0-1.82,2l-.43.56-.11.1c-.26.19-.51.37-.75.57l-.18.1-4.2,1.15-7,1.9c-8.93,2.38-18,3.15-26.45,3.64-3.71.21-7.5.24-11.15.27h-.56l-.08,0a9.29,9.29,0,0,1-1.26-.55l-.16-.09-.06-.17c-.16-.39-.79-1.75-1.91-1.49a3,3,0,0,0-1.56,1,5,5,0,0,1-3,1.39l-.17.07-.11.07h-.14c-1.7.07-3,.14-4.2.23A137.55,137.55,0,0,0,209,133c-1.54.32-3.09.64-4.65.95a111.39,111.39,0,0,1-21.75,1.86c-2,0-4.17,0-6.53-.11l-.19,0a16.73,16.73,0,0,1-2.22-1.25,17.56,17.56,0,0,0-2.31-1.28c-1.18-.5-2.08.19-3.17,1.24l-.11.08-.9.49-.65.37-1.69-.09-4.32-.21a382.6,382.6,0,0,1-44.89-4.58c-3.11-.52-6.24-1.15-9.25-1.77l-.32-.12a10.58,10.58,0,0,1-1.45-1.43,6.52,6.52,0,0,0-2-1.71c-.9-.41-1.69.06-2.54.62a4.34,4.34,0,0,1-2.26.95c-2.31-.38-4.29-.67-6.15-.88l-4.85-.51a154.18,154.18,0,0,1-17.55-2.48l-2.8-.6c-4.47-.94-9.09-1.9-13.09-3.77a16.9,16.9,0,0,1-4.71-3.59c-1.88-1.84-3.67-3.56-6.79-3.71-13.59-.62-25.11-6.14-32.46-15.55-3.58-4.59-7.33-10.12-8-16.38A24.94,24.94,0,0,1,1.69,74c.1-.76.2-1.52.25-2.27a22,22,0,0,0-1.2-8.62L.44,62c-1.08-3.87.06-8,1.15-11.9.35-1.26.68-2.45.95-3.63.69-3.16,1.48-6.76,4.56-8.72a1,1,0,0,1,.51-.17A1.32,1.32,0,0,1,8.36,37c.6-.5,1.18-1,1.77-1.54C11.06,34.61,12,33.77,13,33c4.66-3.63,10.28-5.82,15.69-7.93l1.83-.71,3.19-1.27c2.29-.92,4.58-1.83,6.87-2.7l.21-.08.12.07.11,0h.11a1.06,1.06,0,0,1,.61.18.67.67,0,0,1,.27.15,3.22,3.22,0,0,1,.95.26c.12-.18.23-.34.36-.51l.21-.26L43,19.48l.65-.23c2.64-1,5-1.76,7.22-2.42A281.55,281.55,0,0,1,89.49,8.3l-.3-.23.45.21c.73-.11,1.47-.22,2.22-.32l.28,0,0,0a5,5,0,0,1,2,.38h0l-.54-.62.89-.12c7.49-1,15.41-1.9,23.54-2.64,3.11-.28,6.24-.88,9.24-1.44A82.1,82.1,0,0,1,138.27,1.9c3.27-.19,6.46-.4,10-.64l.26,0,.16.21.17.21.06.07.71.31a7,7,0,0,0,1.3.49,1.76,1.76,0,0,1,.26-.38l-.89-1,1-.07C159.73.48,167.35,0,175.16,0c2.67,0,5.26.06,7.7.18,9.28.44,18.85,1.1,28.44,2h.16l.25.21.2.16,0,0a3.63,3.63,0,0,1,1.6.56,3.71,3.71,0,0,0,.93.42l-.23-.3-.71-.9,2.61.25h.13a1.14,1.14,0,0,1,.37.06c4.58.45,8.3.84,11.68,1.24,4.8.57,9.67,1.26,14.38,1.92,3.31.47,6.63.95,9.94,1.38s6.85.71,10.21,1c4.05.31,8.26.64,12.34,1.27l1.4.24.69.12.52.93c.22.12.44.24.65.37a4.53,4.53,0,0,0,1.38.63H280l-1.16-1.65,1.21.25c5,1,10,2.45,14.75,3.81l4.09,1.14,2.72.75A154.41,154.41,0,0,1,318,21.17c1.05.41,2.17.83,3.3,1.25,4.74,1.77,10.12,3.77,13.8,7a22.73,22.73,0,0,1,2.57,2.77,23.48,23.48,0,0,0,2.21,2.43c.4.37,1,1.05,1.7,1.85s1.28,1.48,1.94,2.18A4.78,4.78,0,0,1,345,40a2.21,2.21,0,0,0,.79.48,1.3,1.3,0,0,1,1,1.23,1.94,1.94,0,0,1-.8,1.61,23.54,23.54,0,0,1-.79,6c-.12.56-.23,1.09-.33,1.57-.57,3,.5,4,2.11,5.54a19.79,19.79,0,0,1,1.86,2,12.2,12.2,0,0,1,2.53,7.32c.07,1,.12,2.06.18,3.06a56.07,56.07,0,0,0,.89,8.59"/><path class="cls-1" d="M348.54,67.66c0-3.31-.56-6.12-3.33-8.2a12.52,12.52,0,0,1-1.75-1.39,7,7,0,0,1-1.85-4.45c-.23-2.57,2.37-8,1.25-10.9a23.06,23.06,0,0,1-2.29,4.64c-1.48,2.21-4.42,3.46-6.26,5.34A11.21,11.21,0,0,1,332,54.83a1,1,0,0,1-.51.71l-1.9,1.11c0,.86-1.29,1-1.83,1.57a16.45,16.45,0,0,1-2.41,2.6.75.75,0,0,1-1-.13,3.46,3.46,0,0,0-.74-.61A55.25,55.25,0,0,1,314,64.54c-6.71,2.24-13.3,4.92-20,7-2.64.83-5.3,1.56-8,2.25-.89.61-1.94,1-2.41,2.06-.24.53-1,1-1.43.43A14.58,14.58,0,0,0,281,75.06c-9.93,2.28-20,3.83-30.12,5.13-6,.78-12,1.58-18.09,2.33a2.5,2.5,0,0,1-1.35.35h-.29c-.24,0-.39,0-.45.12a1.21,1.21,0,0,1-.48.63,2.35,2.35,0,0,1-2.41-.49c-7.7.92-15.4,1.72-23.1,2.24-11.62.78-23.28.08-34.92-.25l-.09-.1v.07a2.72,2.72,0,0,1-1.43,1.79,1.72,1.72,0,0,1-2.12-.7l-.18-.24a.48.48,0,0,1-.62-.2c-.16-.24-.34-.47-.51-.71-2.1,0-4.2-.06-6.3,0-15.4.16-30.21-3.73-45.55-4.3-3.19-.12-6.47-.16-9.73-.35a4.88,4.88,0,0,1-.47,1.36,2,2,0,0,1-2.76.59,19.62,19.62,0,0,1-2.57-2.53,39.12,39.12,0,0,1-5.18-1.09c-7-2-13.82-4.16-20.94-5.66s-14.51-2-21.75-3.34C43.16,68.49,38,64.45,32.4,61.25c-4.9-2.79-10.77-4-15.44-7.1-2.85-1.88-4.17-4.35-5.67-7.35A.78.78,0,0,1,11.4,46c-.57-1-1.09-2-1.64-3C9,41.69,8.13,40.62,7.91,39.22l-.21-.1c-3.93,3-3.87,11.12-5,15.6-1.38,5.44,1.69,8.83,1.51,14C4,74.86,2.69,80.24,5.73,86A40.23,40.23,0,0,0,19,101a42.93,42.93,0,0,0,15.37,6.63c3.7.82,9.81-.42,13.13,1.92,3.14,2.23,4.4,5.5,8.33,6.91a104.38,104.38,0,0,0,12.5,3.42c8,1.76,16.11,2.41,24.23,3.36,1.81.21,3.6.48,5.39.78,1-1.86,3.46-3.56,5.27-2.6,1.49.8,2.34,2.83,3.4,4.1l0,0,.1.14c2.66.54,5.35,1.07,8.05,1.52a380.08,380.08,0,0,0,48,4.82l3.14.14a1.79,1.79,0,0,1,1-.94c1.46-.51,2.07-2.64,3.93-2.47a4.2,4.2,0,0,1,2.62,1.06c.33.29.62.62.94.91a2.5,2.5,0,0,0,1,1.53c.13.13.31.23.31.31v.13l.52,0,.14,0a1.12,1.12,0,0,0,.31,0c3.5.17,7,.28,10.48.22,7.43-.13,14.63-1.57,21.88-3.08,6.84-1.42,13.69-2.77,20.71-2.79h1.2a1.49,1.49,0,0,1,.69-1.32c1.08-.75,2.59-2.14,4-2,1.69.12,2.47,1.51,3.12,2.92a1.33,1.33,0,0,1,.09.32c4.52-.1,9-.26,13.54-.57,8.69-.6,17.26-1.42,25.66-3.85,2.82-.82,5.62-1.62,8.43-2.4a1.48,1.48,0,0,1,.49-1c1.16-1.1,2.31-2.23,3.57-3.22a1.09,1.09,0,0,1,.79-.24,3.5,3.5,0,0,1,2.94,0,4.49,4.49,0,0,1,1.63.31c.6.22,1.1.55,1.68.82a2.57,2.57,0,0,0,1.13.14H299l.12,0v0h.21c6.72-1.41,13.16-3.45,19.7-5.5,5.32-1.67,10.9-3.37,15.73-6.28a1.56,1.56,0,0,1,.2-.87,12.25,12.25,0,0,1,3.77-4.61l.19-.2a.78.78,0,0,1,.62-.22,5.23,5.23,0,0,1,3.09-.22c3.94-3.82,7.26-8.53,7.63-13.7C350.68,79.49,348.61,73.6,348.54,67.66Zm1.24,17.68c-.31,4.32-2.77,8.76-7.31,13.21a5.73,5.73,0,0,0-3,.26,1.27,1.27,0,0,0-.86.35,1.39,1.39,0,0,0-.17.18,12.73,12.73,0,0,0-3.88,4.75,2.12,2.12,0,0,0-.26.82c-4.55,2.7-9.78,4.33-14.84,5.91l-1.39.44c-6.3,2-12.24,3.84-18.55,5.16l-1.13,0a1.64,1.64,0,0,1-.65-.1l-.6-.3a7.9,7.9,0,0,0-1.11-.54,5.22,5.22,0,0,0-1.71-.3c-1-.43-2.07,0-3.12,0h0a1.54,1.54,0,0,0-1,.32c-1.14.9-2.2,1.88-3.22,2.86l-.39.36a2,2,0,0,0-.59,1q-4.06,1.13-8.13,2.31c-8.71,2.51-17.75,3.29-25.55,3.83-4,.26-8.13.45-13.14.56l0,0c-.68-1.47-1.58-3.05-3.52-3.19-1.36-.11-2.67.89-3.72,1.67l-.6.44a1.88,1.88,0,0,0-.88,1.24h-.76c-6.89,0-13.5,1.29-20.8,2.8-6.64,1.39-14.15,2.95-21.78,3.07-3.08,0-6.11,0-10.42-.22h0l-.16,0-.37-.13a2.38,2.38,0,0,1-.4-.29,2.23,2.23,0,0,1-.94-1.26l0-.13-.1-.09-.33-.33c-.19-.2-.4-.4-.61-.59a4.64,4.64,0,0,0-2.9-1.19,3.37,3.37,0,0,0-2.81,1.44,3.56,3.56,0,0,1-1.33,1.05,2.11,2.11,0,0,0-1.06.89l-2.85-.12a382.25,382.25,0,0,1-47.9-4.81c-2.58-.43-5.06-.92-7.78-1.47l0-.06a15.49,15.49,0,0,1-1-1.39,7.84,7.84,0,0,0-2.57-2.83,2.91,2.91,0,0,0-1.39-.34,5.68,5.68,0,0,0-4.37,2.83c-1.84-.31-3.51-.55-5.08-.73l-4.89-.55a182.45,182.45,0,0,1-19.29-2.8A100.67,100.67,0,0,1,56,116a12.16,12.16,0,0,1-5-3.83,19.92,19.92,0,0,0-3.21-3c-2.23-1.57-5.48-1.62-8.62-1.66a25,25,0,0,1-4.69-.34,42.44,42.44,0,0,1-15.2-6.56A40,40,0,0,1,6.16,85.82c-2.33-4.48-2-8.78-1.69-13.33.09-1.22.18-2.49.22-3.78a19.39,19.39,0,0,0-1-6.06c-.67-2.48-1.32-4.81-.57-7.81.31-1.22.53-2.69.76-4.25.6-4,1.27-8.49,3.64-10.72a9.16,9.16,0,0,0,1.15,2.34c.21.34.42.69.62,1.05l.45.85c.34.64.69,1.3,1.05,1.93a1.19,1.19,0,0,0,0,1c1.61,3.22,3,5.65,5.83,7.53a44.23,44.23,0,0,0,8.45,4,52.55,52.55,0,0,1,7,3.12c1.31.75,2.63,1.56,3.89,2.34,4.15,2.57,8.44,5.21,13.47,6.13,3.22.59,6.51,1,9.68,1.43,4,.53,8.05,1.06,12.05,1.9,5.84,1.23,11.6,2.93,17.19,4.57l3.72,1.08a39.29,39.29,0,0,0,5.08,1.08,20,20,0,0,0,2.51,2.46,2.54,2.54,0,0,0,3.46-.69,3.58,3.58,0,0,0,.44-1.12c2,.11,4.09.17,6.08.22l3.26.1c6.92.25,13.84,1.59,20.54,2.51,7.86,1.07,16,2.57,24.16,2.57h.88c2,0,4-.4,6-.37l.09-.07c.09.12.19.15.27.28a.91.91,0,0,0,.81.41,2.22,2.22,0,0,0,2.73.83A3.22,3.22,0,0,0,170,85.64l6.87.22c5.32.19,10.83.37,16.25.37,4.25,0,8-.12,11.59-.35,6.74-.45,14-1.16,23-2.22a3.34,3.34,0,0,0,1.79.64,2.23,2.23,0,0,0,.95-.27c.32-.16.53.24.65-.76h0a2.43,2.43,0,0,0,.33.06A3,3,0,0,0,233,83q6.51-.81,13-1.66l5-.65c8.29-1.07,19.16-2.61,29.9-5.07.22.22.43.47.64.73l.26.31a1.13,1.13,0,0,0,.88.43,1.61,1.61,0,0,0,1.37-1,3.39,3.39,0,0,1,1.61-1.44l.57-.35c3.07-.79,5.57-1.5,7.92-2.25,3.8-1.19,7.6-2.59,11.28-3.92,2.87-1.05,5.84-2.14,8.77-3.11a57,57,0,0,0,9.44-4.34A4.92,4.92,0,0,1,324,61a1.26,1.26,0,0,0,1.59.17,8.87,8.87,0,0,0,1.75-1.79q.35-.45.73-.88a2.72,2.72,0,0,1,.68-.43c.48-.24,1.07-.55,1.24-1.16l.41-.25,1.29-.74a1.53,1.53,0,0,0,.68-.82,9.2,9.2,0,0,0,1.73-1.55c.17-.19.34-.38.54-.58a17.85,17.85,0,0,1,2.6-2.06A13.77,13.77,0,0,0,341,47.62a21.92,21.92,0,0,0,1.68-3.1,21.82,21.82,0,0,1-.84,4.78,15.07,15.07,0,0,0-.68,4.35,7.41,7.41,0,0,0,2,4.74,9.24,9.24,0,0,0,1.41,1.16l.41.29c2.55,1.9,3.09,4.5,3.13,7.81a55.76,55.76,0,0,0,.9,8A42,42,0,0,1,349.78,85.34Z"/><path class="cls-2" d="M348.95,75.66a42,42,0,0,1,.83,9.68c-.31,4.32-2.77,8.76-7.31,13.21a5.72,5.72,0,0,0-3,.26,1.27,1.27,0,0,0-.86.35,1.39,1.39,0,0,0-.17.18,12.72,12.72,0,0,0-3.88,4.75,2.12,2.12,0,0,0-.26.82c-4.55,2.7-9.78,4.33-14.84,5.91l-1.39.44c-6.3,2-12.24,3.84-18.55,5.16l-1.13,0a1.64,1.64,0,0,1-.65-.1l-.6-.3a7.79,7.79,0,0,0-1.11-.54,5.31,5.31,0,0,0-1.71-.34,4,4,0,0,0-3.12,0h0a1.59,1.59,0,0,0-1,.36c-1.14.9-2.2,1.9-3.22,2.88l-.39.37a2,2,0,0,0-.59,1q-4.06,1.13-8.13,2.31c-8.71,2.51-17.75,3.29-25.55,3.83-4,.26-8.13.45-13.14.56l0,0c-.68-1.47-1.58-3.05-3.52-3.19-1.36-.11-2.67.89-3.72,1.67l-.6.44a1.88,1.88,0,0,0-.88,1.24h-.76c-6.89,0-13.5,1.29-20.8,2.8-6.64,1.39-14.15,2.95-21.78,3.07-3.08,0-6.11,0-10.42-.22h0l-.16,0-.37-.13a2.46,2.46,0,0,1-.4-.29,2.23,2.23,0,0,1-.94-1.26l0-.13-.1-.09-.33-.33c-.19-.2-.4-.4-.61-.59a4.64,4.64,0,0,0-2.9-1.19,3.37,3.37,0,0,0-2.81,1.44,3.56,3.56,0,0,1-1.33,1.05,2.11,2.11,0,0,0-1.06.89l-2.85-.12a382.25,382.25,0,0,1-47.9-4.81c-2.58-.43-5.06-.92-7.78-1.47l0-.06a15.49,15.49,0,0,1-1-1.39,7.84,7.84,0,0,0-2.57-2.83,2.91,2.91,0,0,0-1.39-.34,5.68,5.68,0,0,0-4.37,2.83c-1.84-.31-3.51-.55-5.08-.73l-4.89-.55a182.45,182.45,0,0,1-19.29-2.8A100.67,100.67,0,0,1,56,116a12.15,12.15,0,0,1-5-3.83,19.92,19.92,0,0,0-3.21-3c-2.23-1.57-5.48-1.62-8.62-1.66a25,25,0,0,1-4.69-.34,42.44,42.44,0,0,1-15.2-6.56A40,40,0,0,1,6.16,85.82c-2.33-4.48-2-8.78-1.69-13.33.09-1.22.18-2.49.22-3.78a19.39,19.39,0,0,0-1-6.06c-.67-2.48-1.32-4.81-.57-7.81.31-1.22.53-2.69.76-4.25.6-4,1.27-8.49,3.64-10.72a9.16,9.16,0,0,0,1.15,2.34c.21.34.42.69.62,1.05l.45.85c.34.64.69,1.3,1.05,1.93a1.19,1.19,0,0,0,0,1c1.61,3.22,3,5.65,5.83,7.54a44.29,44.29,0,0,0,8.45,4,52.52,52.52,0,0,1,7,3.12c1.31.75,2.63,1.56,3.89,2.34,4.15,2.57,8.44,5.21,13.47,6.13,3.22.59,6.51,1,9.68,1.43,4,.53,8.05,1.06,12.05,1.9,5.84,1.23,11.6,2.93,17.19,4.57l3.72,1.08a39.29,39.29,0,0,0,5.08,1.08,20,20,0,0,0,2.51,2.46,2.54,2.54,0,0,0,3.46-.69,3.58,3.58,0,0,0,.44-1.12c2,.11,4.09.17,6.08.22l3.26.1c6.92.25,13.84,1.2,20.54,2.12,7.86,1.07,16,2.19,24.16,2.19h.88c2,0,4,0,6,0l.09.13c.09.12.19.24.27.38a1,1,0,0,0,.81.46,2.24,2.24,0,0,0,2.73.85,3.2,3.2,0,0,0,1.54-1.7l6.87.22c5.32.19,10.83.37,16.25.37,4.25,0,8-.12,11.59-.35,6.74-.45,14-1.16,23-2.22a3.34,3.34,0,0,0,1.79.64,2.17,2.17,0,0,0,.95-.22,1.57,1.57,0,0,0,.65-.71h.37A3,3,0,0,0,233,83c4.34-.54,8.68-1.1,13-1.67l5-.65c8.29-1.07,19.16-2.62,29.9-5.08.22.22.43.47.64.73l.26.31a1.13,1.13,0,0,0,.88.43,1.61,1.61,0,0,0,1.37-1,3.39,3.39,0,0,1,1.61-1.44l.57-.35c3.06-.79,5.57-1.5,7.92-2.25,3.8-1.19,7.6-2.59,11.28-3.92,2.87-1.05,5.84-2.14,8.77-3.11a57,57,0,0,0,9.44-4.34A4.92,4.92,0,0,1,324,61a1.26,1.26,0,0,0,1.59.17,8.87,8.87,0,0,0,1.75-1.79q.35-.45.73-.88a2.72,2.72,0,0,1,.68-.43c.48-.24,1.07-.55,1.24-1.16l.41-.25,1.29-.74a1.53,1.53,0,0,0,.68-.82,9.2,9.2,0,0,0,1.73-1.55c.17-.19.34-.38.54-.58a17.85,17.85,0,0,1,2.6-2.06A13.77,13.77,0,0,0,341,47.62a21.92,21.92,0,0,0,1.68-3.1,21.81,21.81,0,0,1-.84,4.78,15.07,15.07,0,0,0-.68,4.35,7.41,7.41,0,0,0,2,4.74,9.3,9.3,0,0,0,1.41,1.16l.41.29c2.55,1.9,3.09,4.5,3.13,7.81a55.76,55.76,0,0,0,.9,8M26.13,93.51A2.13,2.13,0,0,0,26,91.57a4.73,4.73,0,0,0-3.22-2l-.18,0C19.56,88.61,18.9,88,18,85.06c-.65-2-2.36-3.13-3.73-4-2.61-1.72-2.11-5.34-.56-8a1.6,1.6,0,0,0,0-1.6,1.43,1.43,0,0,0-2.22-.27,10,10,0,0,0-3.14,7.59,7,7,0,0,0,2.52,5.48c1.76,1.38,2.86,2.32,3.45,4.25a6.7,6.7,0,0,0,2.32,3.87,12.51,12.51,0,0,0,7,2.25,6.37,6.37,0,0,0,1.26-.11,1.62,1.62,0,0,0,1.23-1"/><path class="cls-1" d="M276.88,71.18c.76.72,2.53,1.25,3.54,2.14-10.28,2.36-20.8,3.81-31.2,5.14q-8.94,1.14-17.93,2.21c-7-6-11.43-14.35-19.25-19.63a49.23,49.23,0,0,0-4.61-2.68c-2.26-1.2-3.56-3.76-4.91-5.8a61,61,0,0,0-8.88-11.22c-3.57-3.37-8.23-5-11.77-8.56-3.24-3.22-5.11-7.58-8.41-10.84-6.3-6.25-14.52-11.83-19.72-19,9-.57,18.12-.89,27.11-.6,10.11.32,20.23,1.05,30.32,2l.14.08c.83.29,1.55.95,2.37,1.26,4.58,4,6.88,10.46,12,13.63,3.22,2,4.41,5.74,7.39,8A87,87,0,0,1,244.6,38.4c2.56,2.84,4.81,5.72,7.78,8.18C256.5,50,259.9,52.82,263,57.18c2.53,3.49,6.11,6.24,9.24,9.15,1.63,1.51,3,3.32,4.59,4.85m2.35,1.91c-.31-.17-.64-.34-1-.51a7.12,7.12,0,0,1-1.72-1.05c-.82-.76-1.56-1.6-2.28-2.41s-1.49-1.68-2.3-2.43-1.6-1.45-2.42-2.19a44.63,44.63,0,0,1-6.88-7c-3.16-4.37-6.61-7.22-10.59-10.52A52.7,52.7,0,0,1,246,40.75c-.59-.67-1.17-1.36-1.78-2a88.15,88.15,0,0,0-11.51-11,18.12,18.12,0,0,1-3.46-3.9,14.46,14.46,0,0,0-3.9-4.12c-2.92-1.82-5-4.71-6.93-7.52a34.05,34.05,0,0,0-5-6.08,7.79,7.79,0,0,1-1.15-.63,6.68,6.68,0,0,0-1.13-.6L211,4.77c-11.17-1.05-21-1.71-30.17-2-2.2-.07-4.48-.1-6.8-.1-5.85,0-12,.2-19.37.64,3.29,4.32,7.69,8.11,11.95,11.78,2.44,2.1,5,4.27,7.19,6.48a35.82,35.82,0,0,1,4.31,5.55,34.79,34.79,0,0,0,4.11,5.3,32.89,32.89,0,0,0,6,4.4A35.28,35.28,0,0,1,194,41a60.81,60.81,0,0,1,9,11.3c.23.35.46.71.69,1.08,1.12,1.78,2.28,3.62,4,4.55a48.49,48.49,0,0,1,4.65,2.72c4.48,3,7.89,7.09,11.19,11a72.35,72.35,0,0,0,7.93,8.5c5.43-.63,11.22-1.35,17.72-2.18,9.7-1.24,20-2.64,30.07-4.88"/><path class="cls-3" d="M278.26,72.58c.32.17.65.33,1,.51-10.07,2.25-20.37,3.64-30.07,4.88-6.5.83-12.3,1.54-17.72,2.18a72.35,72.35,0,0,1-7.93-8.5c-3.3-3.92-6.71-8-11.19-11a48.49,48.49,0,0,0-4.65-2.72c-1.77-.93-2.93-2.77-4-4.55-.23-.37-.46-.73-.69-1.08A60.81,60.81,0,0,0,194,41a35.28,35.28,0,0,0-5.75-4.15,32.89,32.89,0,0,1-6-4.4,34.79,34.79,0,0,1-4.11-5.3,35.82,35.82,0,0,0-4.31-5.55c-2.23-2.21-4.75-4.38-7.19-6.48-4.25-3.67-8.66-7.46-11.95-11.78,7.35-.44,13.53-.64,19.37-.64,2.32,0,4.61,0,6.8.1,9.13.29,19,.95,30.17,2l.14.07a6.68,6.68,0,0,1,1.13.6,7.79,7.79,0,0,0,1.15.63,34.05,34.05,0,0,1,5,6.08c2,2.81,4,5.71,6.93,7.52a14.46,14.46,0,0,1,3.9,4.12,18.12,18.12,0,0,0,3.46,3.9,88.15,88.15,0,0,1,11.51,11c.61.67,1.19,1.36,1.78,2A52.7,52.7,0,0,0,252.07,47c4,3.3,7.43,6.15,10.59,10.52a44.63,44.63,0,0,0,6.88,7c.82.73,1.63,1.45,2.42,2.19s1.57,1.6,2.3,2.43,1.46,1.65,2.28,2.41a7.12,7.12,0,0,0,1.72,1.05"/><path class="cls-1" d="M230.51,81.36l0,0a3.63,3.63,0,0,0-.5.19.89.89,0,0,0-.41.37,2.72,2.72,0,0,0-.18.33c-.07.25-.08.24,0,0a3.25,3.25,0,0,1-.66-.21l-.12-.23a35.09,35.09,0,0,0-3-2.65,46.11,46.11,0,0,1-4.62-6.07c-2.92-4-6.73-6.46-10.74-9.22a41.66,41.66,0,0,1-10.81-10.15c-3.44-4.84-7.12-8.31-11.48-12.31-3.29-3-7.46-5-10.13-8.7-3.17-4.37-5.44-8.44-9.56-12.08-3.51-3.09-7.47-5.65-10.79-9-2.37-2.38-4.39-5.1-7-7.23a1.47,1.47,0,0,0,1.22-.52,4.49,4.49,0,0,0,.54-.81l.13-.17.06.08.33,0,0,0c.33.1,2.15,3.29,2.34,3.53a32.27,32.27,0,0,0,4.39,4.17c4.09,3.54,7.82,7.45,11.84,11,3.54,3.15,5.85,7,8.63,10.74,3,4.07,7.67,5.88,11.65,8.74,4.21,3,7.17,7.85,10,12.09,2.53,3.79,4.61,5.26,8.3,7.68a52.35,52.35,0,0,1,12.06,10.89,81.83,81.83,0,0,0,8.38,9.5m-1.3.31a1.33,1.33,0,0,1,.43-.44A69.88,69.88,0,0,1,223.19,74l-1.44-1.78A51.78,51.78,0,0,0,209.8,61.38c-3.65-2.39-5.85-3.93-8.43-7.82l-.82-1.23c-2.62-4-5.33-8.05-9.08-10.75-1.21-.87-2.52-1.66-3.79-2.43-2.87-1.74-5.84-3.52-8-6.42-.64-.86-1.25-1.73-1.86-2.59a45.35,45.35,0,0,0-6.7-8.07c-1.85-1.65-3.67-3.4-5.43-5.09-2.07-2-4.21-4-6.4-6l-.84-.71a25.34,25.34,0,0,1-3.63-3.52c-.06-.08-.26-.41-.53-.85-.4-.65-1.3-2.15-1.62-2.51h0a4.49,4.49,0,0,1-.52.75,2.57,2.57,0,0,1-.55.44,50.79,50.79,0,0,1,3.7,3.86c.83.93,1.69,1.89,2.58,2.78a64.25,64.25,0,0,0,6.26,5.31c1.5,1.17,3,2.37,4.5,3.66a45.8,45.8,0,0,1,7.45,9c.7,1,1.43,2.08,2.2,3.14a25.67,25.67,0,0,0,6,5.45,42.42,42.42,0,0,1,4,3.17c4.81,4.43,8.22,7.68,11.55,12.39a41.06,41.06,0,0,0,10.69,10l.78.54c3.76,2.58,7.3,5,10.08,8.8.45.61.87,1.23,1.3,1.85A26.66,26.66,0,0,0,226,78.78a15,15,0,0,0,1.21,1A11.75,11.75,0,0,1,229,81.49l.11.16.09,0"/><path class="cls-2" d="M229.64,81.23a1.33,1.33,0,0,0-.43.44l-.09,0-.11-.16a11.75,11.75,0,0,0-1.79-1.67,15,15,0,0,1-1.21-1,26.66,26.66,0,0,1-3.26-4.15c-.43-.62-.85-1.24-1.3-1.85-2.78-3.79-6.32-6.23-10.08-8.8l-.78-.54a41.06,41.06,0,0,1-10.69-10c-3.33-4.71-6.73-8-11.55-12.39a42.42,42.42,0,0,0-4-3.17,25.67,25.67,0,0,1-6-5.45c-.77-1.06-1.49-2.12-2.2-3.14a45.8,45.8,0,0,0-7.45-9c-1.45-1.29-3-2.49-4.5-3.66a64.25,64.25,0,0,1-6.26-5.31c-.89-.89-1.75-1.85-2.58-2.78a50.79,50.79,0,0,0-3.7-3.86,2.57,2.57,0,0,0,.55-.44,4.49,4.49,0,0,0,.52-.75h0c.32.36,1.22,1.85,1.62,2.51.26.44.47.77.53.85a25.34,25.34,0,0,0,3.63,3.52l.84.71c2.2,1.91,4.33,4,6.4,6,1.76,1.69,3.57,3.44,5.43,5.09a45.35,45.35,0,0,1,6.7,8.07c.61.86,1.22,1.73,1.86,2.59,2.13,2.9,5.09,4.69,8,6.42,1.27.77,2.58,1.56,3.79,2.43,3.75,2.69,6.45,6.79,9.08,10.75l.82,1.23c2.59,3.88,4.78,5.43,8.43,7.82a51.78,51.78,0,0,1,11.95,10.79L223.19,74a69.88,69.88,0,0,0,6.45,7.28"/><path class="cls-1" d="M223.68,79a13.27,13.27,0,0,0,2.4,2.26c-6.43.72-12.87,1.39-19.31,1.92-12.59,1-25.14,0-37.73-.27-2.23-2.27-4.31-4.77-6.61-7a97.76,97.76,0,0,0-9.53-7.73c-4.22-3.21-6.73-8.58-10.1-12.61a45.12,45.12,0,0,0-9.34-8.22c-4-2.72-7.19-5.25-10-9.23-2.58-3.66-4.79-7.46-7.83-10.78s-7.68-4.76-11-7.88a54.11,54.11,0,0,1-4.08-4.64c-1.43-1.7-3.37-3.2-4.41-5.2,6-.81,12.08-1.48,18.12-2.13,7.44-.79,14.78-2.71,22.19-3.32q5.86-.48,11.77-.91a4.78,4.78,0,0,0,.51.37c3.29,3,6.08,6.46,9.2,9.66,3.27,3.36,7.35,5.94,10.85,9.06s5.77,7.12,8.33,11.08c2.7,4.15,7.82,6.58,11.39,9.87a65,65,0,0,1,10.19,11.17A37.45,37.45,0,0,0,207.28,63c4.11,3.11,8.54,5.48,12,9.45,1.72,2,2.9,4.37,4.44,6.5m1.19,1.9a9.65,9.65,0,0,1-1.59-1.62c-.63-.87-1.21-1.79-1.77-2.67a30.59,30.59,0,0,0-2.65-3.79,40.47,40.47,0,0,0-8.16-6.73c-1.23-.84-2.5-1.72-3.72-2.65a37.18,37.18,0,0,1-8.67-8.71A64.48,64.48,0,0,0,188.2,43.66a45.56,45.56,0,0,0-4.28-3.35c-2.66-1.92-5.43-3.9-7.19-6.62l-1.24-2c-2.1-3.3-4.08-6.41-7-9-1.43-1.27-3-2.47-4.49-3.64a61.27,61.27,0,0,1-6.38-5.44c-1.2-1.24-2.38-2.53-3.51-3.77-1.8-2-3.66-4-5.67-5.87-.09,0-.2-.14-.33-.22q-5.81.41-11.58.89c-4,.32-8,1-11.87,1.73C121.27,7,117.79,7.6,114.33,8c-5.21.55-11.32,1.22-17.38,2a18.4,18.4,0,0,0,2.42,2.83c.54.54,1.08,1.09,1.57,1.68.33.38.65.77,1,1.17A37.91,37.91,0,0,0,105,19.1,28.46,28.46,0,0,0,110,22.62,24.79,24.79,0,0,1,116,27a64.12,64.12,0,0,1,5.72,7.67c.7,1.05,1.42,2.11,2.15,3.15,2.67,3.8,5.77,6.31,9.88,9.12a45.35,45.35,0,0,1,9.44,8.31c1.22,1.45,2.34,3.11,3.44,4.71,1.94,2.85,3.94,5.81,6.59,7.82l1.75,1.32a77.94,77.94,0,0,1,7.83,6.45c1.28,1.25,2.5,2.59,3.68,3.88.91,1,1.84,2,2.79,3,3.48.07,7,.21,10.42.33,5,.2,10.1.39,15.16.39,4.38,0,8.28-.15,11.91-.45,5.51-.46,11.3-1,18.14-1.8"/><path class="cls-3" d="M223.28,79.28a9.65,9.65,0,0,0,1.59,1.62c-6.84.76-12.63,1.34-18.14,1.8-3.63.3-7.53.45-11.91.45-5.06,0-10.19-.19-15.16-.39-3.42-.13-6.94-.26-10.42-.33-.95-1-1.88-2-2.79-3-1.18-1.3-2.4-2.64-3.68-3.88a77.94,77.94,0,0,0-7.83-6.45l-1.75-1.32c-2.64-2-4.65-5-6.59-7.82-1.09-1.6-2.22-3.26-3.44-4.71a45.35,45.35,0,0,0-9.44-8.31c-4.11-2.81-7.2-5.32-9.88-9.12-.73-1-1.44-2.1-2.15-3.15A64.12,64.12,0,0,0,116,27,24.79,24.79,0,0,0,110,22.62,28.46,28.46,0,0,1,105,19.1a37.91,37.91,0,0,1-3.06-3.43c-.32-.4-.64-.79-1-1.17-.49-.59-1-1.14-1.57-1.68A18.4,18.4,0,0,1,96.94,10c6.06-.8,12.17-1.47,17.38-2,3.46-.37,6.95-1,10.32-1.59,3.88-.69,7.91-1.41,11.87-1.73s7.7-.62,11.58-.89c.13.09.24.18.33.22,2,1.85,3.87,3.89,5.67,5.88,1.13,1.24,2.31,2.53,3.51,3.77A61.27,61.27,0,0,0,164,19.07c1.5,1.17,3.06,2.37,4.49,3.64,2.94,2.62,4.92,5.73,7,9l1.24,2c1.77,2.71,4.53,4.69,7.19,6.62a45.56,45.56,0,0,1,4.28,3.35,64.48,64.48,0,0,1,10.12,11.08A37.18,37.18,0,0,0,207,63.44c1.22.93,2.49,1.81,3.72,2.65a40.47,40.47,0,0,1,8.16,6.73,30.59,30.59,0,0,1,2.65,3.79c.56.89,1.13,1.81,1.77,2.67"/><path class="cls-2" d="M168.68,84.08l0,.07c-.19.45-.2,2-1.24,1.46a2.46,2.46,0,0,1-.62-.56H167c-.23-.37-.47-.18-.7-.56a1.27,1.27,0,0,0-1-.52h-.14a3.64,3.64,0,0,0-1.2-1.7c-1.55-1.44-2.61-4-4.12-5.55-3.5-3.68-7.68-7-11.43-10.43s-7.38-7.51-11.17-11.15c-3.43-3.28-7.22-6.16-10.38-9.71a108.36,108.36,0,0,1-8.26-9.67,30.45,30.45,0,0,0-9-8.63,33.79,33.79,0,0,1-9.47-9.07,42,42,0,0,0-7-7.59,2.36,2.36,0,0,0,.82.28,2.54,2.54,0,0,0,1.33-.44,1.72,1.72,0,0,0,.46-.39C97,12.87,100,15.35,102,17.75c2.74,3.33,5.81,5.31,9.5,7.49,7.9,4.64,11,14.13,17.68,20,3.91,3.44,8.27,6,11.93,9.8,3.37,3.55,5.89,7.83,8.89,11.68,2.73,3.52,7.43,5.79,10.69,8.82,2.88,2.66,5.32,5.74,8,8.5m-.62.4.06-.28c-1-1.07-2.06-2.21-3-3.3-1.51-1.68-3.06-3.41-4.75-5-.68-.63-1.42-1.23-2.21-1.83.74.71,1.47,1.43,2.18,2.17a19.59,19.59,0,0,1,2,2.65,15.08,15.08,0,0,0,2.11,2.76,3,3,0,0,0,.3.24,2.49,2.49,0,0,1,.91,1.09,2.4,2.4,0,0,1,1.09.87l.08.1a1.61,1.61,0,0,0,.26.3,2,2,0,0,1,.44.51l.26.42.09,0a2.48,2.48,0,0,0,.24-.77"/><path class="cls-2" d="M168.11,84.2l-.06.28a2.47,2.47,0,0,1-.24.77l-.09,0-.26-.42a2,2,0,0,0-.44-.51,1.59,1.59,0,0,1-.26-.3l-.08-.1a2.39,2.39,0,0,0-1.09-.87,2.49,2.49,0,0,0-.91-1.09,3,3,0,0,1-.3-.24,15.08,15.08,0,0,1-2.11-2.76,19.56,19.56,0,0,0-2-2.65c-.7-.73-1.43-1.45-2.18-2.17.78.6,1.52,1.19,2.21,1.83,1.69,1.56,3.24,3.29,4.75,5C166.05,82,167.07,83.13,168.11,84.2Z"/><path class="cls-1" d="M163.29,82.86h-.74a149.61,149.61,0,0,1-21.93-.95c-6.91-.93-13.76-2.22-20.71-2.89-5.24-.51-10.51-.53-15.76-.86-2.23-5.12-8.77-8.72-12.64-12.42-5.8-5.56-11.66-11-17.48-16.57C69,44.36,64.42,39,59.65,33.95c-4.44-4.75-8.25-9.73-13.72-13.34l.12,0c14.86-5,30.35-8.09,45.85-10.36,2.11,2.59,4.27,5,6.63,7.39,2.55,2.58,4.2,5.74,7.07,8,4.09,3.26,8.23,5.16,11.58,9.44,2.74,3.49,5.33,6.66,8.35,9.91a90.45,90.45,0,0,0,9,8.42,105,105,0,0,1,12.11,12.08c5.4,6,11.74,11.06,16.68,17.4m-5.07-.46,4.06,0a108.24,108.24,0,0,0-8.87-9.3c-2.4-2.32-4.88-4.73-7.16-7.29a104.78,104.78,0,0,0-12.06-12,90.69,90.69,0,0,1-9-8.45c-3.23-3.47-5.93-6.83-8.37-9.95a31.35,31.35,0,0,0-7.52-6.49c-1.3-.89-2.65-1.81-4-2.87a25.94,25.94,0,0,1-4.29-4.7,37.84,37.84,0,0,0-2.81-3.36c-2.29-2.32-4.42-4.68-6.49-7.2-17.72,2.61-32,5.8-44.68,10,3.88,2.73,6.89,6.09,10.05,9.62C58,31.46,59,32.54,60,33.61c1.43,1.54,2.85,3.09,4.27,4.66,3.22,3.54,6.55,7.2,10.07,10.56l7.49,7.08c3.34,3.16,6.69,6.31,10,9.5C93,66.53,94.45,67.65,96,68.83c3.38,2.63,6.86,5.36,8.5,8.87,1.94.12,3.9.2,5.82.27,3.17.13,6.45.25,9.67.57,4.38.42,8.79,1.1,13.06,1.77,2.52.39,5.11.79,7.67,1.13a131.4,131.4,0,0,0,17.54,1"/><path class="cls-3" d="M162.29,82.37l-4.06,0a131.4,131.4,0,0,1-17.54-1c-2.56-.34-5.15-.74-7.67-1.13-4.26-.66-8.68-1.35-13.06-1.77-3.22-.31-6.5-.44-9.67-.57-1.91-.08-3.87-.16-5.82-.27-1.64-3.51-5.12-6.24-8.5-8.87-1.51-1.18-2.94-2.29-4.12-3.43-3.32-3.18-6.67-6.33-10-9.5l-7.49-7.08c-3.52-3.36-6.85-7-10.07-10.56-1.42-1.56-2.84-3.11-4.27-4.66-1-1.07-2-2.16-2.95-3.24C53.9,26.84,50.9,23.48,47,20.75c12.73-4.23,27-7.42,44.68-10,2.07,2.52,4.2,4.88,6.49,7.2A37.84,37.84,0,0,1,101,21.29a25.94,25.94,0,0,0,4.29,4.7c1.33,1.06,2.67,2,4,2.87a31.35,31.35,0,0,1,7.52,6.49c2.44,3.11,5.14,6.47,8.37,9.95a90.69,90.69,0,0,0,9,8.45,104.78,104.78,0,0,1,12.06,12c2.28,2.56,4.76,5,7.16,7.29a108.24,108.24,0,0,1,8.87,9.3"/><path class="cls-2" d="M102.33,79.28l-.29.63c0-.06-.12-.08-.35-.21a10.4,10.4,0,0,1-1.33-1,6.38,6.38,0,0,0-1.74-1.22C95.87,72.93,90.89,69,86.73,66.11,80,61.33,75.25,55.56,69.83,49.38c-2.62-3-5.91-5.25-8.75-8-2.23-2.18-3.8-4.95-6.25-6.9-2.61-2.07-4-5-6.47-7.13-.88-.72-1.83-1.45-2.79-2.16a5.62,5.62,0,0,0-1.72-1.87L43.52,23a4.8,4.8,0,0,0,1.76-1.57A153.12,153.12,0,0,1,59,34.59c4.7,5.12,9.26,10.49,14.14,15.46s10,9.38,14.8,14.24c2.13,2.15,4.25,4.32,6.53,6.3s4.75,3.55,6.59,5.77a.77.77,0,0,0-.1.63A5.17,5.17,0,0,0,102.33,79.28Z"/><path class="cls-3" d="M85.35,67.42C89.12,70.2,93,73.07,95.6,76.69a98.92,98.92,0,0,1-10.2-2.78c-2.59-.81-5.26-1.64-7.92-2.27a154.44,154.44,0,0,0-19.05-3.75c-1-.12-2.08-.21-3.11-.3-2.12-.2-4.29-.39-6.42-.78-3-.55-5.7-2.24-8.31-3.88-.68-.43-1.36-.86-2-1.26A87,87,0,0,0,23,54.1a16.5,16.5,0,0,1-8.93-6.74,22.61,22.61,0,0,0-1.71-3.92l-.07-.13c-.24-.47-.58-1-.94-1.54a12.23,12.23,0,0,1-1.61-3.09c1.05-.77,2.09-1.6,3.08-2.4s1.84-1.48,2.79-2.19a40,40,0,0,1,8.54-4.36c.7-.29,1.4-.58,2.07-.87,5.26-2.26,9.71-4.07,14-5.67a10.1,10.1,0,0,0,3,2.92l.39.28a44.35,44.35,0,0,1,8,7.92A44.48,44.48,0,0,0,55.18,38a48.83,48.83,0,0,1,3.43,3.52,43.07,43.07,0,0,0,5.58,5.26c1,.88,2.14,1.79,3.14,2.72a69.85,69.85,0,0,1,5.9,6.5,61.44,61.44,0,0,0,7,7.48C81.79,64.79,83.51,66.07,85.35,67.42Z"/><path class="cls-1" d="M80.53,63.07c5.12,4.39,12.37,8.35,16.12,14.31-6.53-1.09-12.85-3.72-19.28-5.27a156.12,156.12,0,0,0-19-3.74c-3.2-.35-6.39-.5-9.56-1.08-3.89-.71-7.17-3.21-10.5-5.19a85.94,85.94,0,0,0-15.45-7.53,17,17,0,0,1-9.21-7,21.56,21.56,0,0,0-1.77-4c-.71-1.4-2.42-3.46-2.64-5.08,2.1-1.51,4-3.22,6.13-4.76,3.12-2.33,7.16-3.76,10.7-5.29,4.75-2,9.54-4,14.39-5.83.75,1.5,2,2.34,3.46,3.42A44.63,44.63,0,0,1,52,34c2.1,2.52,4.8,4.63,7,7.18,2.52,3,5.84,5.29,8.69,7.94C72.31,53.45,75.71,58.93,80.53,63.07ZM95.6,76.69c-2.6-3.62-6.48-6.49-10.25-9.27-1.83-1.36-3.56-2.64-5.13-4a61.44,61.44,0,0,1-7-7.48,69.85,69.85,0,0,0-5.9-6.5c-1-.94-2.1-1.84-3.14-2.72a43.07,43.07,0,0,1-5.58-5.26A48.83,48.83,0,0,0,55.18,38a44.48,44.48,0,0,1-3.53-3.66,44.35,44.35,0,0,0-8-7.92l-.39-.28a10.1,10.1,0,0,1-3-2.92c-4.25,1.6-8.71,3.41-14,5.67-.67.29-1.37.58-2.07.87a40,40,0,0,0-8.54,4.36c-.95.7-1.88,1.45-2.79,2.19s-2,1.63-3.08,2.4a12.23,12.23,0,0,0,1.61,3.09c.36.56.69,1.07.94,1.54l.07.13a22.61,22.61,0,0,1,1.71,3.92A16.5,16.5,0,0,0,23,54.1a87,87,0,0,1,15.53,7.57c.68.4,1.36.83,2,1.26,2.61,1.63,5.3,3.33,8.31,3.88,2.13.39,4.3.59,6.42.78,1,.09,2.07.19,3.11.3a154.44,154.44,0,0,1,19.05,3.75c2.65.63,5.33,1.46,7.92,2.27A98.92,98.92,0,0,0,95.6,76.69Z"/><path class="cls-1" d="M26,91.57a2.13,2.13,0,0,1,.12,1.94,1.62,1.62,0,0,1-1.23,1,6.37,6.37,0,0,1-1.26.11,12.51,12.51,0,0,1-7-2.25,6.7,6.7,0,0,1-2.32-3.87c-.59-1.92-1.69-2.87-3.45-4.25a7,7,0,0,1-2.52-5.48,10,10,0,0,1,3.14-7.59,1.43,1.43,0,0,1,2.22.27,1.59,1.59,0,0,1,0,1.6c-1.55,2.64-2,6.27.56,8,1.37.91,3.07,2,3.73,4,.95,2.93,1.6,3.55,4.66,4.44l.18,0A4.73,4.73,0,0,1,26,91.57ZM24.82,94a1.46,1.46,0,0,0,.79-2.19c-.77-1.23-1.73-1.46-3.11-1.86-3.16-.92-4-1.62-5-4.75-.58-1.79-2.06-2.82-3.54-3.79-3-2-2.25-6-.71-8.65.61-1-.47-2.08-1.42-1.25-3.24,2.8-4.38,9.38-.64,12.32,1.66,1.3,3,2.36,3.61,4.48A6.17,6.17,0,0,0,17,92,11.6,11.6,0,0,0,24.82,94Z"/><path class="cls-1" d="M25.61,91.83A1.46,1.46,0,0,1,24.82,94,11.6,11.6,0,0,1,17,92a6.17,6.17,0,0,1-2.16-3.63c-.64-2.12-2-3.18-3.61-4.48-3.74-2.94-2.6-9.52.64-12.32.95-.83,2,.2,1.42,1.25C11.7,75.42,11,79.45,14,81.43c1.48,1,3,2,3.54,3.79,1,3.13,1.83,3.84,5,4.75C23.88,90.37,24.84,90.6,25.61,91.83Zm-.36,1.28a1.18,1.18,0,0,0-.06-1c-.63-1-1.4-1.23-2.66-1.6l-.17,0c-3.38-1-4.27-1.83-5.33-5.08-.51-1.56-1.76-2.49-3.34-3.53-3.13-2.06-2.64-6.26-.87-9.29a.57.57,0,0,0,0-.62.37.37,0,0,0-.32-.21.62.62,0,0,0-.41.19,9.16,9.16,0,0,0-2.8,6.83,6,6,0,0,0,2.15,4.72c1.58,1.25,3.07,2.42,3.77,4.73a5.8,5.8,0,0,0,2,3.39,11.59,11.59,0,0,0,6.39,2,6.16,6.16,0,0,0,1.08-.09A.67.67,0,0,0,25.25,93.11Z"/><path class="cls-1" d="M25.19,92.09a1.18,1.18,0,0,1,.06,1,.67.67,0,0,1-.52.43,6.16,6.16,0,0,1-1.08.09,11.59,11.59,0,0,1-6.39-2,5.8,5.8,0,0,1-2-3.39c-.69-2.31-2.19-3.48-3.77-4.73a6,6,0,0,1-2.15-4.72,9.16,9.16,0,0,1,2.8-6.83.62.62,0,0,1,.41-.19.37.37,0,0,1,.32.21.57.57,0,0,1,0,.62c-1.78,3-2.26,7.23.87,9.29,1.58,1,2.83,2,3.34,3.53,1.05,3.24,2,4.1,5.33,5.08l.17,0C23.79,90.86,24.55,91.07,25.19,92.09Z"/></g></g></svg>