<svg xmlns="http://www.w3.org/2000/svg" viewBox="0 0 365.97 92.24"><defs><style>.cls-1{fill:#39b54a;}.cls-2{fill:#007038;}</style></defs><title>Asset 4</title><g id="Layer_2" data-name="Layer 2"><g id="objects"><path class="cls-1" d="M366,73.77c.48,8.17-10,17-14.88,12.54-4.47-4.12-7.18-8.79-12.83-9.8-8.66-1.53-14.9,10-23.28,10.43-3.47.16-1.92-4.4-1.83-7.78a29.55,29.55,0,0,0-.56-7c-.8-3.67-2.29-7.1-4.93-8.63-6.72-3.9-15.12.8-20.77,6.11l0,.12-.44.09a55.29,55.29,0,0,0-.79-5.86c-.55-2.62-4.2-5.43-5.81-6.93,4.78.48,9.2-.4,13.92-1.38,6.07-1.26,10.48,1,16.21,3.08.73.28,1.17-1.18.63-1.81-8.51-10.12-21.2-1.92-30.76-.37-.12,0-.18.19-.16.33l0,0c-3.24-3.18-5.4-6.75-8-10.85-.39-.61-.79-1.19-1.22-1.76l.2-.3c6.72.6,12.28,1.67,18.59-2.44,2.64-1.71,5.33-3.87,8.17-4.91a7.76,7.76,0,0,0,1.2.58c.58.22,1-.45,1.09-1.16a7.63,7.63,0,0,1,2.46.09c3,.61,5.45,5.13,7.25,8.2,3.15,5.37,6.28,11.75,11.23,14.07,7.26,3.42,16.71,5,24.28,3.06.42-.1.59-1.25.1-1.38-6-1.65-12.29-.7-18.29-2.08,3.44-1.73,6.84-6.26,10.12-8.66,4.28-3.14,8.67-4.48,13.1-6.35-1.84,3.67-.93,11.16.77,14.3,1.82,3.35,5.12,5,7.74,6.63C362.26,66.34,363.84,69.13,366,73.77Z"/><path class="cls-2" d="M345,60.08c.5.13.33,1.28-.1,1.38-7.57,2-17,.36-24.28-3.06-5-2.32-8.08-8.7-11.23-14.07-1.8-3.06-4.21-7.59-7.25-8.2a7.63,7.63,0,0,0-2.46-.09,1.47,1.47,0,0,0-.29-1.15c-.23-.27-.46-.52-.68-.8,3.07-.74,5.88.15,8.78,3.57,4.26,5,6.54,13,11.56,16.83a19,19,0,0,0,7.19,3.39l.46.12C332.71,59.38,339,58.43,345,60.08Z"/><path class="cls-2" d="M344.93,41a28.52,28.52,0,0,0-3.18,1.79c-9.13-1.73-18.19-10.9-26.11-16.35-6.65-4.57-12.49-6.69-19.95-5.82-2.32.27-4.61.6-6.91.8a10.45,10.45,0,0,0-3.72-2c9.59-2.78,19.49-4.75,28.64,1.32,5.55,3.67,10.91,7.9,16.45,11.59C335,35.55,340.24,37.53,344.93,41Z"/><path class="cls-1" d="M341.75,42.79c-1.61,1-3.14,2.1-4.48,3-3.17,2.17-10,6.46-11,11.92v.15a19,19,0,0,1-7.19-3.39c-5-3.85-7.3-11.81-11.56-16.83-2.89-3.42-5.7-4.31-8.78-3.57-3.54-4.28-6.15-9.61-9.93-12.66,2.3-.21,4.59-.54,6.91-.8,7.46-.88,13.3,1.25,19.95,5.82C323.57,31.89,332.63,41.07,341.75,42.79Z"/><path class="cls-2" d="M310.59,56.94c.54.64.11,2.1-.63,1.81-5.72-2.11-10.13-4.34-16.21-3.08-4.72,1-9.14,1.86-13.92,1.38l-.17-.16c0-.13,0-.31.16-.33C289.39,55,302.08,46.83,310.59,56.94Z"/><path class="cls-2" d="M299.4,34.9a1.47,1.47,0,0,1,.29,1.15,9.68,9.68,0,0,0-2.29.58,8.67,8.67,0,0,1-1.67-1.38,12.8,12.8,0,0,1,3-1.15C298.94,34.37,299.16,34.63,299.4,34.9Z"/><path class="cls-2" d="M299.68,36c-.06.71-.51,1.38-1.09,1.16a7.76,7.76,0,0,1-1.2-.58A9.68,9.68,0,0,1,299.68,36Z"/><path class="cls-2" d="M298.72,34.09a12.8,12.8,0,0,0-3,1.15c-1.65-1.71-2.81-4.12-4.34-6.56a12.07,12.07,0,0,0-10.1-6.08l0-1a41.75,41.75,0,0,0,7.47-.13C292.57,24.48,295.18,29.81,298.72,34.09Z"/><path class="cls-2" d="M295.72,35.24a8.67,8.67,0,0,0,1.67,1.38c-2.84,1-5.53,3.2-8.17,4.91-6.31,4.11-11.87,3-18.59,2.44v-.09c4.62-.1,9.61.67,14.05-1.58,3.38-1.73,6.4-4.39,9.71-6.35C294.84,35.68,295.29,35.45,295.72,35.24Z"/><path class="cls-1" d="M295.72,35.24c-.43.21-.88.45-1.33.71-3.31,2-6.33,4.63-9.71,6.35-4.44,2.25-9.43,1.47-14.05,1.58V44l-.2.3A10,10,0,0,0,266,40.65c-4.84-8.35-14-8.78-20.82-5,0-.34-.15-.64-.42-.71-2.74-.79-5.49-.8-8.25-1.29-3.33-.6-5.17-4.79-7.53-7.6-3-3.57-5.62-3-9.29-1.84-2.43.8-4.79,1.84-7.16,2.87-8.27-2.65-16.83-5.53-24.73-10.34,2.42-.51,4.88-1,7.31-1.74,8.94.62,18-2.47,26.75-4.21a60.33,60.33,0,0,1,14.79-1.12c6.77.33,12.52,3.53,18.45,7.91,7.3,5.41,15,5.67,23,5a22.45,22.45,0,0,1,3.16-.06,12.07,12.07,0,0,1,10.1,6.08C292.91,31.12,294.07,33.53,295.72,35.24Z"/><path class="cls-2" d="M288.32,78.62c.58,1.29-.71,3.39-1.46,2a34.37,34.37,0,0,0-2.76-4.12c-1.35,3.78-3.49,7.6-6.07,9.09-1.94,1.1-4.94,2.39-7,1.18-3-1.77-5.79-5.5-9.23-4.81-4.25.86-9.22,4.25-13.47,1.93-1.89-1-3-2.77-4-5.18-1.24-2.86-2.83-4.4-4.63-4.91-4.73,3.27-9.56,5.94-14.6,5.3l0-1a26.38,26.38,0,0,0,8.84-3.94,6.18,6.18,0,0,1,4.24-3c6-4.48,11.94-9.49,18.9-10.06,5-.42,9.57,1.16,14.17,3.94A94.62,94.62,0,0,1,282,72.22c.22-.58.69-1,1.1-.57s.66.74,1,1.12l.39-.55.2-.16c0-.18,0-.34-.05-.54-.49-7.36-3.72-9.57-7.52-13.43A33.88,33.88,0,0,1,272,50.95l-.72-1.21a51.18,51.18,0,0,0-5.37-6.86.58.58,0,0,1-.7,0c-6.4-4.17-12-8.41-19.31-4-4.56,2.77-7.43,8.57-11.54,12.26-7,6.31-14.16,4.36-21.13-1-.76-.59-1.54-1.22-2.32-1.84,5.26,7.51,9.9,14.12,18,14.34,7,.19,13.48-4.4,20-8.06,2-2.25,3.59-5.31,5.82-7.23,1.74-1.5,4.52-3.18,6.38-1.37a1.29,1.29,0,0,1-.3,1.84c-1.25.71-2.61.45-3.87,1.16a18.41,18.41,0,0,0-3,2.28l-1.87,1.65c5.53-2.72,11.18-4.15,17.33-.88.6.33.32,1.52-.25,1.59-4.2.52-8.37-.89-12.58.06-4.49,1-8.36,3.41-12.41,6.23-5.43,3.78-11.27,6.2-17.4,4.92-5.86-1.21-9.78-4.4-13.84-10.41-2.4-3.56-4.74-7.48-7.51-10.35a18.89,18.89,0,0,0-6.12-2.92c-6.5-1.53-13.19,0-19.49,2.39-10.56,4-21.18,10.68-32.32,9.73.18.45-.17,1.28-.56,1.35a40.37,40.37,0,0,1-11.52.3,66.37,66.37,0,0,0,10.1,6.6c6,3,10.9,2.23,17.08,1.49.54-.06.47,1,.13,1.29-10,8.78-22.55-2.6-32-10.12a65.67,65.67,0,0,1-12-3.76h0c-9.6-1.13-23-11.95-32.36-4.63a7.38,7.38,0,0,1,2.82.65c.32.15.14.74-.13.8-4.92,1-8.31,3.62-11.45,7.75A28,28,0,0,1,76,63.49c-.92,2.83-2.78,8.41-5.53,7.94-.46-.07-.34-1-.13-1.26,1.94-2.92,3.7-4.89,4.79-8.81.4-1.41.85-3,1.19-4.61-.71,1-1.41,2.14-2.13,3.35-2.71,4.55-5.56,10.61-9.8,12.45-.69.3-.84-.92-.46-1.47,3.43-5.06,6.69-10.8,10.25-15.81-5.9,4.46-13,8.79-19.28,6.37-.72-.28-.29-1.59.28-1.73,4.17-.89,8.21-.71,12.27-2.81,3.21-1.67,6.29-3.73,9.49-5.44,2.34-2.83,5-5.15,7.94-5.7,3.11-5.28,10.38-4.21,14.54-3.6,1.78.25,3.64.58,5.52,1-6.51-3.82-13-7.26-20.22-7-7.85.28-13.61,5.1-20.5,9.63-14.11,9.25-29.6-.85-43.79,6.38-5.55,2.83-12.5,5.94-16,13.23C2.11,70.45,1.68,75.48,1.92,80.7A27.3,27.3,0,0,1,6.16,73,50.17,50.17,0,0,1,24.63,58.43c8.26-3.6,14.61.12,21,7.88,6.93,8.46,13.22,17.26,22,21.42l.68.34c1,.54.59,2.51-.27,2.95-5.39,2.72-11.63-5.7-15.71-10.9C45,81.46,35,91,28,86.31c-6-3.93-5.92-14.7-6.53-22.75C12,68.19,1.9,78.1,3.36,90.3c.08.74-.57,1.43-1,.83-.15-.22-.27-.45-.39-.67-.18,0-.35-.1-.43-.45C-2.17,76.19.83,62.45,10.21,55.31c6-4.54,12.72-8,19.57-8.38a52.65,52.65,0,0,1,6.84.12A1.73,1.73,0,0,1,35.94,46l.07-.22c2.83-1.47,4.66-2.38,6.92-5.58s4.19-6.43,6.17-9.77c3.52-5.94,6.18-11.05,12-12,5.4-.83,10.44,1.23,15.27,4.24a12.22,12.22,0,0,0-1,.86c-.43.43-.21,1.56.34,1.12a8.18,8.18,0,0,1,1.94-1.16c1,.65,2,1.35,3,2.05,4.07,2.92,8.12,6.2,12.44,8.38l.77.34c.91.27,1.81.58,2.7.92s1.89.49,2.82.73c9.4-2.23,17.84-7.35,27.11-10.95,4.87-1.89,9.84-3.14,14.9-2.54,4.44.52,10.85,6.11,15,2.11,1.73-1.68,2.85-6.23,5.14-6.8,2.65-.64,5.38.61,7.63,2.63,4.35,3.91,7.85,9.54,12.8,12a37.52,37.52,0,0,0,4.53,1.8c6.16-1.64,12.42-2.5,18.58-4.28.83-.24,1.64-.51,2.45-.82a10.39,10.39,0,0,0,5.91-.46c.35-.13.54-1.06.08-1.21l-1-.33c2.37-1,4.74-2.07,7.16-2.87C223.35,23,226,22.52,229,26.09c2.35,2.81,4.2,7,7.53,7.6,2.76.49,5.51.51,8.25,1.29.28.07.4.37.42.71,6.86-3.82,16-3.39,20.82,5a10,10,0,0,1,4.45,3.62c.42.57.83,1.15,1.22,1.76,2.59,4.09,4.74,7.66,8,10.85l0,0,.17.16c1.61,1.5,5.26,4.31,5.81,6.93a55.29,55.29,0,0,1,.79,5.86A27.31,27.31,0,0,0,288.32,78.62ZM242.56,37.42c-3.71.68-8.14.58-10.94-2.81-1.88-2.29-4.66-8-7.26-7.87a21.43,21.43,0,0,0-7,2c-8.16,3.44-17.56,7.38-26.47,7.32a13.72,13.72,0,0,1,1.81,1.12c7.5-.1,13.64,3.45,20.85,9,4.78,3.64,10.49,7.56,16,4.63C234.9,47.93,237.83,41.23,242.56,37.42ZM186.45,38l.14,0a53.5,53.5,0,0,1-6.8-3.15c-3.71-2-6.47-6.2-9.62-9.39-1.85-1.87-5.78-6.08-8.28-4.54-1.4.88-1.9,3.24-3,4.63a8.52,8.52,0,0,1-7.22,3.61c-2.16,0-4.32-1.4-6.37-2.22a18.15,18.15,0,0,0-9.12-1.22c-5.4.68-10.54,2.77-15.65,5.22-5.43,2.62-11.14,5.88-16.94,6.86a1,1,0,0,1-.33.86c6.7,3.94,13.36,7.87,20.49,10.12.78.25,1.58.48,2.36.67C133,51.21,139.85,51.6,146.71,53c0-.24.1-.51.29-.54,7.38-1.26,14.4-4.39,21.43-7.53l.73-.33A111.85,111.85,0,0,1,186.45,38Zm-107-4.25a22.12,22.12,0,0,1,7-.77c-1.09-.8-2.12-1.58-3.06-2.26-7.66-5.55-17.27-13.43-26.09-8.06-2,1.25-14.61,23-19.56,24.49,6.58.51,13.26,1.34,19.57-1C65,43.17,71.53,36,79.44,33.75Z"/><path class="cls-2" d="M288.79,21.43a41.75,41.75,0,0,1-7.47.13c-.47,0-.2-1,.12-1.07,1.21-.36,2.42-.73,3.64-1.07A10.45,10.45,0,0,1,288.79,21.43Z"/><path class="cls-1" d="M284.69,72.06l-.2.16-.39.55c-.33-.37-.65-.76-1-1.12s-.88,0-1.1.57a94.62,94.62,0,0,0-10.77-7.14c-4.6-2.78-9.15-4.36-14.17-3.94-7,.56-12.86,5.58-18.9,10.06a6.18,6.18,0,0,0-4.24,3,26.38,26.38,0,0,1-8.84,3.94c0-.52-.23-1-.69-1.07-4.27-1-8.08-1.89-12-4.69-2.93-2.1-5.63-4.79-8.52-7A25,25,0,0,0,189.82,60c-6.94-.37-20.17,2.47-18.78,15.56-10.87,5.52-22.69,3.06-33.63-1.13a114.63,114.63,0,0,1-16.52-8.38c-4.37-2.59-8.61-6.37-13-8.88.19-.45.17-1.13-.24-1.22C99.16,54,90.3,58.53,83.67,65.82a86.18,86.18,0,0,0-6.4,8.08c-.31-.1-.74.27-.78.79V75c-1.2,1.71-2.38,3.44-3.57,5.21-1.34,2-4.14,4.66-5.33,7.51-8.76-4.17-15-13-22-21.42-6.36-7.77-12.71-11.48-21-7.88A50.17,50.17,0,0,0,6.16,73,27.3,27.3,0,0,0,1.92,80.7c-.24-5.22.19-10.25,2.52-15.11,3.49-7.29,10.43-10.4,16-13.23C34.61,45.13,50.11,55.23,64.22,46c6.89-4.52,12.64-9.34,20.5-9.63,7.27-.27,13.72,3.17,20.22,7-1.89-.42-3.74-.74-5.52-1-4.17-.61-11.44-1.68-14.54,3.6-2.93.55-5.6,2.87-7.94,5.7-3.2,1.71-6.27,3.78-9.49,5.44-4.06,2.1-8.11,1.92-12.27,2.81-.56.13-1,1.44-.28,1.73,6.31,2.42,13.38-1.9,19.28-6.37-3.56,5-6.82,10.76-10.25,15.81-.38.55-.23,1.77.46,1.47,4.24-1.84,7.09-7.9,9.8-12.45.72-1.21,1.42-2.31,2.13-3.35-.34,1.62-.78,3.2-1.19,4.61-1.09,3.91-2.85,5.89-4.79,8.81-.21.31-.33,1.19.13,1.26,2.76.46,4.61-5.12,5.53-7.94a28,28,0,0,0,1.55-8.44c3.14-4.14,6.53-6.72,11.45-7.75.26-.06.44-.65.13-.8a7.38,7.38,0,0,0-2.82-.65c9.37-7.32,22.76,3.5,32.36,4.63h0a65.67,65.67,0,0,0,12,3.76c9.45,7.51,22,18.89,32,10.12.34-.3.41-1.35-.13-1.29-6.18.74-11.07,1.47-17.08-1.49a66.37,66.37,0,0,1-10.1-6.6,40.37,40.37,0,0,0,11.52-.3c.39-.07.74-.91.56-1.35,11.14,1,21.76-5.76,32.32-9.73,6.31-2.38,13-3.93,19.49-2.39a18.89,18.89,0,0,1,6.12,2.92c2.78,2.87,5.12,6.8,7.51,10.35,4.06,6,8,9.21,13.84,10.41,6.14,1.28,12-1.15,17.4-4.92,4-2.83,7.92-5.22,12.41-6.23,4.21-1,8.38.46,12.58-.06.57-.07.86-1.26.25-1.59L272,50.95a33.88,33.88,0,0,0,5.09,7.14c3.79,3.87,7,6.07,7.52,13.43C284.64,71.71,284.66,71.88,284.69,72.06Z"/><path class="cls-2" d="M282.67,19a9.48,9.48,0,0,1,2.4.43c-1.22.34-2.43.71-3.64,1.07-.32.09-.58,1-.12,1.07l0,1a22.45,22.45,0,0,0-3.16.06c-8.08.64-15.73.39-23-5-5.94-4.39-11.68-7.59-18.45-7.91a60.33,60.33,0,0,0-14.79,1.12C213.05,12.57,204,15.66,195.1,15c-2.44.7-4.9,1.23-7.31,1.74l-.1-.46c1.39-.6,2.8-1.18,4.21-1.74-.18-.25.06-.89.34-.94q2.47-.51,5-1.07c2.78-1,5.58-1.93,8.39-2.71.29-.07.38.49.14.65a2.82,2.82,0,0,0-.34.19c6.78-1.56,13.58-3.08,20.37-4,9.82-1.34,18.76-.55,27.72,5.55,5.06,3.44,9.83,6.72,15.55,7C273.58,19.41,278.12,18.75,282.67,19Z"/><path class="cls-1" d="M271.31,49.74l.72,1.21-2.62,1.12c-6.15-3.27-11.8-1.84-17.33.88l1.87-1.65A18.41,18.41,0,0,1,257,49c1.26-.71,2.62-.45,3.87-1.16a1.29,1.29,0,0,0,.3-1.84c-1.87-1.81-4.64-.13-6.38,1.37-2.23,1.92-3.78,5-5.82,7.23-6.53,3.66-13,8.26-20,8.06-8.1-.22-12.74-6.83-18-14.34.78.63,1.56,1.25,2.32,1.84,7,5.33,14.13,7.27,21.13,1,4.11-3.69,7-9.49,11.54-12.26,7.27-4.37,12.91-.13,19.31,4a.58.58,0,0,0,.7,0A51.18,51.18,0,0,1,271.31,49.74Z"/><path class="cls-1" d="M231.62,34.61c2.8,3.39,7.23,3.5,10.94,2.81-4.74,3.81-7.66,10.5-13,13.31-5.54,2.93-11.26-1-16-4.63-7.21-5.5-13.34-9.06-20.85-9A13.72,13.72,0,0,0,190.88,36c8.9.06,18.31-3.88,26.47-7.32a21.43,21.43,0,0,1,7-2C227,26.61,229.75,32.32,231.62,34.61Z"/><path class="cls-2" d="M225.08,78.1l0,1h-.1c-.2.64-.59,1.19-1.07,1.19-5.33,0-9.68-2.81-13.9-6.11l-.16.09c-9.39,1.9-18.22,7.57-24.72,17.44-.88,1.35-2-.06-1.72-1.55,1.39-8.49,2.25-22.94-6.06-23.94l-.13-.09c-2.84,1.9-4.55,5-3.64,10a2.18,2.18,0,0,1-1,2.16c-11.43,6.41-24.43,4.15-36-.59a106.16,106.16,0,0,1-14.34-7.17,1.5,1.5,0,0,1-.45,1.09c-6.2,4.16-12.89,5.09-18.67,11.13-3.39,3.54-6.86,8.18-11.2,9.13C85.4,93.36,77.5,87.69,76.53,78.28c-.88,1.22-1.76,2.41-2.67,3.57-1.67,2.11-3.88,4-5.62,6.23l-.68-.34c1.19-2.86,4-5.5,5.33-7.51,1.19-1.77,2.37-3.5,3.57-5.21v-.33c0-.52.48-.89.78-.79a86.18,86.18,0,0,1,6.4-8.08C90.3,58.53,99.16,54,107.6,56c.41.09.43.77.24,1.22,4.43,2.51,8.67,6.29,13,8.88a114.63,114.63,0,0,0,16.52,8.38c10.94,4.2,22.76,6.65,33.63,1.13C169.65,62.51,182.88,59.66,189.82,60a25,25,0,0,1,14.08,5.33c2.89,2.19,5.6,4.88,8.52,7,3.9,2.8,7.71,3.7,12,4.69C224.85,77.13,225.05,77.58,225.08,78.1Z"/><path class="cls-2" d="M213.54,27.44c.46.15.27,1.07-.08,1.21a10.39,10.39,0,0,1-5.91.46c1.67-.58,3.33-1.29,5-2Z"/><path class="cls-2" d="M212.51,27.11c-1.64.7-3.3,1.41-5,2-3.54-.62-7.14-2.53-10.22-4.09a183,183,0,0,1-15.81-9.27C176.31,12.43,170.09,1.69,164,3c-6.67,1.49-9.39,12.24-15.8,12.84-2.78.27-5.7-2.83-8.09-4.33-3.29-2.07-7.19-3.18-10.68-4.3S121,4,117.44,5.72c-3.23,1.59-6,4.17-8.8,7-4.41,4.42-9.21,9.74-14.85,10.26-4.75.43-11.26-1.61-16.08.54l-1.29-.82c4-2.95,9.4-1.84,13.65-2,8.44-.39,13.59-6.93,20.34-13,5-4.52,9.27-6.14,15.18-4.67a63.26,63.26,0,0,1,18.78,8c6,3.78,8.36-1.87,12.41-6.8a11.78,11.78,0,0,1,6-3.9c6-1.32,9.62,3.64,14.2,8.2a57.3,57.3,0,0,0,10.28,8.06l.38-.16.1.46C195.68,21.58,204.25,24.47,212.51,27.11Z"/><path class="cls-1" d="M207.54,29.11c-.81.31-1.62.58-2.45.82-6.16,1.79-12.42,2.65-18.58,4.28a37.52,37.52,0,0,1-4.53-1.8c-4.95-2.51-8.46-8.14-12.8-12-2.25-2-5-3.27-7.63-2.63-2.29.57-3.41,5.12-5.14,6.8-4.12,4-10.54-1.59-15-2.11-5.07-.6-10,.65-14.9,2.54-9.27,3.6-17.71,8.72-27.11,10.95-.93-.24-1.88-.46-2.82-.73s-1.79-.65-2.7-.92l-.77-.34c-4.32-2.17-8.37-5.46-12.44-8.38-1-.7-2-1.4-3-2.05,4.82-2.14,11.33-.1,16.08-.54,5.64-.52,10.44-5.85,14.85-10.26,2.78-2.8,5.56-5.37,8.8-7,3.59-1.76,8.43.39,12,1.53s7.4,2.23,10.68,4.3c2.39,1.5,5.31,4.6,8.09,4.33C154.58,15.29,157.3,4.53,164,3c6.13-1.35,12.34,9.39,17.54,12.7A183,183,0,0,0,197.32,25C200.4,26.58,204,28.48,207.54,29.11Z"/><path class="cls-1" d="M186.59,38l-.14,0a111.85,111.85,0,0,0-17.29,6.56c.33-.39.43-1.29-.08-1.47-3.26-1.09-6.51-1.47-9.73-3s-6.26-3.36-9.59-3.7c-8.58-.91-15.44,6.71-23.32,10-.3.12-.37.91,0,.88l-.29,2.08c-.78-.19-1.58-.42-2.36-.67-7.13-2.25-13.79-6.17-20.49-10.12a1,1,0,0,0,.33-.86c5.8-1,11.51-4.24,16.94-6.86,5.11-2.45,10.25-4.54,15.65-5.22a18.15,18.15,0,0,1,9.12,1.22c2,.82,4.21,2.23,6.37,2.22a8.52,8.52,0,0,0,7.22-3.61c1.06-1.38,1.56-3.75,3-4.63,2.5-1.55,6.42,2.66,8.28,4.54,3.16,3.18,5.91,7.38,9.62,9.39A53.5,53.5,0,0,0,186.59,38Z"/><path class="cls-2" d="M169.08,43.09c.52.18.41,1.09.08,1.47l-.73.33c-6.11,1.93-11.83-4.08-17.73-5.37-9.07-2-15.63,7.19-24.25,7.82-.38,0-.31-.76,0-.88,7.88-3.33,14.74-10.95,23.32-10,3.33.34,6.47,2.28,9.59,3.7S165.81,42,169.08,43.09Z"/><path class="cls-1" d="M150.7,39.52c5.9,1.29,11.63,7.3,17.73,5.37-7,3.14-14.06,6.26-21.43,7.53-.19,0-.3.3-.29.54-6.86-1.35-13.74-1.74-20.55-3.53l.29-2.08C135.06,46.71,141.62,37.51,150.7,39.52Z"/><path class="cls-1" d="M86.41,33a22.12,22.12,0,0,0-7,.77C71.53,36,65,43.17,57.27,46.1c-6.31,2.38-13,1.55-19.57,1,4.95-1.53,17.51-23.24,19.56-24.49,8.82-5.37,18.42,2.51,26.09,8.06C84.29,31.4,85.32,32.17,86.41,33Z"/><path class="cls-2" d="M77.71,23.48a8.18,8.18,0,0,0-1.94,1.16c-.55.45-.77-.68-.34-1.12a12.22,12.22,0,0,1,1-.86Z"/></g></g></svg>