<svg xmlns="http://www.w3.org/2000/svg" viewBox="0 0 335.2 70.42"><defs><style>.cls-1{fill:#aa6b21;}.cls-2{fill:#7c1414;}.cls-3{fill:#af1b1b;}</style></defs><title>Asset 9</title><g id="Layer_2" data-name="Layer 2"><g id="objects"><path class="cls-1" d="M38.42,37.86c7.45-.93,12.71-5.19,17.73-10A193.61,193.61,0,0,0,28,36c-2.27.87-4.34,1.73-6.26,2.59A90.88,90.88,0,0,0,38.42,37.86Z"/><path class="cls-1" d="M180.65,69.12a1,1,0,0,0,.54-.21c5.09-.68,8.92-4.86,11.75-10,2.16-3.94,3.42-8.28,4.84-12.53,2.32-7,8.08-9.2,14.17-12.15,5.15-2.49,10.5-8.6,5.6-13.91-.08-.09-.18-.17-.27-.26-13.09-.87-27.63-1.42-43.78-1.52-11.83,4.36-19.94,15.11-33.27,16-11.41.8-22.48-5.1-33.1-8.35C97,23.06,86.88,23,77.38,28.08c-2.73,1.47-4.34,4-5.46,6.77-2.15,5.27-3.12,9.18-9.38,11-6.65,1.94-15-.87-20.85,3.84-4.22,3.41-.81,9.46,2.41,12.14,5.41,4.49,14.14,4.41,20.76,4,9.32-.6,17.87-5.16,27.14-6.21,10.2-1.16,18.17,5.57,26.07,10.82"/><path class="cls-1" d="M226.68,38.81c-5.75,6.31,4.61,11.1,9.23,12.24,9.2,2.27,19.46,2.39,28.89,2.79,10.24.44,20.63-.24,27.9-8.12,4.87-5.3,13.32-3.31,19.72-4.44a10,10,0,0,0,2.46-.78,147.7,147.7,0,0,0-28.38-10.26c-6.62-1.75-14.16-3.39-22.7-4.88-5.26,2.39-10.24,6.5-15.15,8.61C241.87,36.89,232.23,32.72,226.68,38.81Z"/><path class="cls-1" d="M306.14,54.32a11.78,11.78,0,0,0-3.7-.63c-.68,0-1.11,1.29-.32,1.41,6.6.9,11.62,5.22,18.44,5.7,3.19.23,10.58.37,11.76-3.82a5.08,5.08,0,0,0-1.12-5.11l-.05-.05a6.36,6.36,0,0,0-4-1.71C319.68,49.46,313.26,54.35,306.14,54.32Z"/><path class="cls-2" d="M329.71,37.29c3.84.33,6.3,3.19,5.24,7-1.2,4.26-8.68,4.12-11.91,3.89-6.91-.49-12-4.88-18.68-5.8-.8-.12-.37-1.42.32-1.43a11.9,11.9,0,0,1,3.75.64C315.64,41.61,322.14,36.64,329.71,37.29Zm3.19,7.48c4.23-5-4.1-6.14-6.5-5.94A26.23,26.23,0,0,0,320,40c-3.25,1.14-6.09,2.41-9.05,2.59,2.63,1.28,5.11,2.9,8.13,3.43C322.56,46.65,330.24,47.91,332.9,44.77Z"/><path class="cls-3" d="M326.4,38.84c2.4-.2,10.73,1,6.5,5.94-2.67,3.14-10.34,1.88-13.83,1.29-3-.52-5.51-2.15-8.13-3.43,3-.18,5.81-1.45,9.05-2.59A26.23,26.23,0,0,1,326.4,38.84Zm3.1,3.66a.36.36,0,0,0,.5-.39c-.53-2.51-4.91-1.52-6.47-.84-.15.06-.15.31,0,.28a12,12,0,0,1,2.9-.09A7.26,7.26,0,0,1,329.5,42.5Z"/><path class="cls-2" d="M330,42.1a.36.36,0,0,1-.5.39,7.26,7.26,0,0,0-3-1,12,12,0,0,0-2.9.09c-.19,0-.19-.21,0-.28C325.09,40.59,329.47,39.6,330,42.1Z"/><path class="cls-2" d="M305.34,3.5C312.82,5.91,323.74,12.59,322,22c-.63,3.37-4,5.71-7.22,6.28-6.48,1.15-15-.87-20,4.52-7.36,8-17.88,8.71-28.26,8.26-9.54-.41-19.94-.53-29.26-2.84-4.69-1.15-15.18-6-9.35-12.45,5.63-6.19,15.39-2,22.25-4.92,5.59-2.41,11.28-7.42,17.36-9.59a1,1,0,0,1,.85-.87c.82,0,1.62,0,2.43,0a13.92,13.92,0,0,1,4.11-.05,15.28,15.28,0,0,0,5.21-1.15c3-1.3,5.72-3.12,8.7-4.41C294,2.59,299.88,1.75,305.34,3.5ZM306,26.26c4.1-.14,14.9.48,13.59-6.48C317.51,9,301.87,3,292.33,6.33c-7.71,2.71-15.27,9.74-23.74,6-5.95,2.41-11.71,7.69-16.67,10.15a15.23,15.23,0,0,1-3.94,1.3c-4.76.94-9.73.05-14.52,1.47-7.08,2.09-4.13,7.86,1.35,9.63a50.2,50.2,0,0,0,9.86,2c1.29.15,2.59.29,3.9.42a203.6,203.6,0,0,0,21.29,1.27c5,0,10.41-.11,15.2-1.83,4.26-1.54,6.41-4.31,9.67-7.13C297.7,27,302.18,26.39,306,26.26Z"/><path class="cls-3" d="M319.55,19.78c1.31,7-9.49,6.34-13.59,6.48-3.78.13-8.26.77-11.24,3.34-3.27,2.82-5.41,5.59-9.67,7.13-4.79,1.72-10.16,1.83-15.2,1.83a203.6,203.6,0,0,1-21.29-1.27l.3-3a13.7,13.7,0,0,0,4-.11c.45-.11.61-.89.11-1a30.54,30.54,0,0,0-4-.7,13.69,13.69,0,0,1-2.35-.57c-2.21-.69-1.11-2.71.52-3.28,4.93-1.71,10.34-1.26,15.32-3,.22-.08.21-.45-.06-.41-4.63.8-9.37,1-14,1.6l-.39-3a15.23,15.23,0,0,0,3.94-1.3c5-2.47,10.73-7.74,16.67-10.15,8.48,3.76,16-3.27,23.74-6C301.87,3,317.51,9,319.55,19.78Z"/><path class="cls-2" d="M262.4,25.18c.28,0,.29.32.06.41-5,1.75-10.39,1.3-15.32,3-1.63.57-2.73,2.58-.52,3.28a13.69,13.69,0,0,0,2.35.57,30.54,30.54,0,0,1,4,.7c.5.14.34.92-.11,1a13.7,13.7,0,0,1-4,.11c-3.14-.35-6.51-1.61-5.47-4.63.63-1.79,2.8-2.56,4.5-2.8l.47-.06C253,26.17,257.77,26,262.4,25.18Z"/><path class="cls-3" d="M248.85,34.28l-.3,3c-1.3-.13-2.6-.27-3.9-.42a50.2,50.2,0,0,1-9.86-2c-5.48-1.77-8.42-7.54-1.35-9.63,4.79-1.42,9.76-.53,14.52-1.47l.39,3-.47.06c-1.71.24-3.87,1-4.5,2.8C242.34,32.67,245.72,33.93,248.85,34.28Z"/><path class="cls-2" d="M218.68,7c5,5.4-.45,11.62-5.67,14.15-6.17,3-12,5.28-14.36,12.36-1.43,4.32-2.71,8.74-4.9,12.75-2.87,5.26-6.75,9.51-11.9,10.21a1,1,0,0,1-.54.21c-20.48,1.62-44.36,14-63.38,1.32-8-5.34-16.08-12.19-26.41-11C82.13,48,73.46,52.66,64,53.27c-6.7.44-15.55.52-21-4-3.27-2.73-6.71-8.88-2.44-12.35,5.89-4.79,14.38-1.93,21.12-3.91C68,31.12,69,27.14,71.17,21.78c1.13-2.81,2.77-5.39,5.53-6.89C86.32,9.7,96.53,9.79,106.82,13c10.76,3.31,22,9.31,33.53,8.5C154.21,20.5,162.51,9,175,4.81c7.33-2.45,15.81-2.67,23.48-2.57C204.55,2.29,214.17,2,218.68,7Zm-.58,5.56c.42-9-16-8.63-21.74-8.56-8.06.1-17.49.1-24.83,3.73C160.85,13,151.93,22.91,139.31,23.29c-11,.32-21.11-4.3-31.46-7.42C97.33,12.7,76.3,9.14,72,23.38c-1.43,4.79-3.21,8.46-7.8,10.93-4.35,2.34-9.73,1.81-14.48,2.17-2.64.2-6.22.29-8.38,2.07-3.83,3.14,1.7,8.42,4.44,9.67,5.4,2.42,11.63,2.66,17.46,2.16,12.41-1,24.48-9.34,37.12-5.35,10.94,3.46,18.94,14.08,30.59,15.43,16.74,1.94,32.95-5.68,49.57-6.25.81,0,1.09.62,1,1.26,9.12-1.76,12.06-15.52,15.34-23.48a17.39,17.39,0,0,1,6.88-8.49C208.14,20.71,217.82,18.87,218.11,12.52Z"/><path class="cls-3" d="M196.37,4c5.74-.06,22.15-.43,21.74,8.56-.29,6.35-10,8.19-14.38,11A17.39,17.39,0,0,0,196.85,32c-3.28,8-6.22,21.71-15.34,23.48.11-.64-.17-1.28-1-1.26-16.62.57-32.83,8.19-49.57,6.25-11.65-1.34-19.64-12-30.59-15.43-12.64-4-24.71,4.3-37.12,5.35-5.83.5-12.05.27-17.46-2.16-2.74-1.25-8.27-6.53-4.44-9.67,2.16-1.78,5.74-1.87,8.38-2.07,4.75-.35,10.13.17,14.48-2.17,4.59-2.47,6.37-6.14,7.8-10.93C76.3,9.14,97.33,12.7,107.85,15.87c10.36,3.12,20.43,7.74,31.46,7.42,12.62-.38,21.54-10.32,32.23-15.61C178.89,4.06,188.31,4.06,196.37,4ZM135,30.39c.11-.05.11-.29-.05-.28-11.72,1.77-19.46-11.49-31.71-8.75-.53.12-.68,1.1-.09,1.21,3,.59,6,.73,8.93,1.46,3.74.93,6.92,3.13,10.17,5C125.89,31.22,131.14,32.52,135,30.39Z"/><path class="cls-2" d="M134.94,30.12c.16,0,.16.22.05.28-3.85,2.12-9.11.82-12.75-1.32-3.26-1.91-6.44-4.11-10.17-5-2.95-.74-5.95-.87-8.93-1.46-.6-.11-.45-1.09.09-1.21C115.48,18.63,123.22,31.89,134.94,30.12Z"/><path class="cls-2" d="M70.89.28c.85-.13.82,1.23.21,1.53-12.73,6.12-19,21.17-33.87,23C27,26.13,11,27.05,2.64,19.72-1,16.5-.54,11.1,2.12,7.43,5.28,3.06,12.37.86,17.56,1.4,28.3,2.5,37.93,8.49,48.77,5.06c6-1.89,13.69-6.58,20.11-4.57a.52.52,0,0,1,.26.18A14.88,14.88,0,0,1,70.89.28Z"/><path class="cls-2" d="M199.08,13.4c-2-3.58-8.12-2.61-11.34-2.11-1.57.24-7.62.25-8,2.35,0,.27.24.57.51.45a1.75,1.75,0,0,0,.41-.25c.09-.07.16-.2.07-.3.33.37-1.2.88,1.07.6,1.62-.2,3.23-.48,4.84-.7s3-.39,4.52-.55c.76-.08,6.65,1.27,5.72,2.3-2.28,2.51-5.37,3.88-7.46,6.68A17.77,17.77,0,0,0,187,27.3c-1.09,3.47-2.94,5.58-5,8.45-.35.48,0,1.29.67,1.08,6.59-2.23,5.93-11.31,10.31-15.73C194.59,19.47,200.82,16.57,199.08,13.4Z"/><path class="cls-2" d="M171.07,47.19c-8.14-2.33-18.33,3-26.15,4.86-5.81,1.42-11.81,1.2-17-2-4.09-2.53-7.76-5.6-12.65-6.31-.2,0-.32.26-.12.34,5.48,2.12,9.34,6.6,14.59,9,3.92,1.83,8.32,1.91,12.52,1.39s8.43-2,12.54-3.2c5.37-1.61,10.72-1.83,16.13-2.88C171.5,48.33,171.67,47.37,171.07,47.19Z"/></g></g></svg>