<svg xmlns="http://www.w3.org/2000/svg" viewBox="0 0 377.8 108.42"><defs><style>.cls-1{fill:#a82d2d;}.cls-2{fill:#d83f3f;}.cls-3{fill:#6b2430;}</style></defs><title>Asset 3</title><g id="Layer_2" data-name="Layer 2"><g id="objects"><path class="cls-1" d="M372.8,46.19a20,20,0,0,0-3.86,8.36h-1.66c-4.56,0-9-.3-13.25-1.88l-.67-.27-.14-.45-.26.27a5.5,5.5,0,0,0-.61-.56,18.45,18.45,0,0,0-2.21-1.37c-.75-.42-1.47-.79-1.79-1A14.54,14.54,0,0,0,345.78,48a4.46,4.46,0,0,1-1.94-1.49,5.28,5.28,0,0,0-4.51-2.33,11.87,11.87,0,0,0-6.69,2.64C330,48.9,327.85,50,325,50a13.15,13.15,0,0,1-2.42-.23,21.56,21.56,0,0,1-7.44-3.43c-2.47-1.59-4.87-3.39-7.23-4.64a15.28,15.28,0,0,0-7.29-1.93c-3.83,0-7.34,1.46-11.53,2.7l-2.47.74-1.51.48-.51.18-.05,0a3.6,3.6,0,0,1-1.46-1c-.53-.53-1-1.16-1.46-1.68-1.62-1.92-2.95-4.3-5-6.1a6.15,6.15,0,0,0-4.13-1.66c-2.5,0-4.8,1.54-6.89,3.24-2.78,2.28-5,4.82-8.18,6.18a9.39,9.39,0,0,1-3.71.71c-3.62,0-7.55-1.71-10.61-3.33s-6.23-3.85-9.46-5.67a24.37,24.37,0,0,0-9.4-3.33c-.22,0-.46,0-.69-.06a4.27,4.27,0,0,0,0-.51,24.6,24.6,0,0,0-.46-3.88,23.79,23.79,0,0,1-.45-3.92,5,5,0,0,1,.87-3.14,5.13,5.13,0,0,1,3.62-1.65.68.68,0,0,0,.42-.24.62.62,0,0,0,.12-.38.66.66,0,0,0-.07-.29l.13-.06.06.13a.78.78,0,0,0,.36.3,12.39,12.39,0,0,1,5,4.6c1.42,2,2.61,4.28,3.87,6.16,2.34,3.47,5,7.11,8.8,9.32a6.5,6.5,0,0,0,3.31.95,7.23,7.23,0,0,0,3.64-1.06c3.38-2,6-6.07,7.75-8.6a26.28,26.28,0,0,1,10.06-9.12c3.81-2,8.24-2.42,13.69-2.42h0c2.26,0,3.86-.07,5,.7a7.7,7.7,0,0,1,3.22,5.1c.54,2.23.76,4.69,1.19,7.23a45.74,45.74,0,0,0-4.61,3.64.64.64,0,0,0-.22.47.68.68,0,0,0,.14.41.6.6,0,0,0,.5.23.65.65,0,0,0,.36-.11c1.39-.89,2.82-1.85,4.29-2.73l.19.22a.91.91,0,0,0,.55.18,1.07,1.07,0,0,0,.69-.27,1,1,0,0,0,.34-.72l0-.23,0-.19A16.26,16.26,0,0,1,303.55,29,8.94,8.94,0,0,1,310,31.84c1.41,1.38,2.56,3,3.85,4.54a14.39,14.39,0,0,0,4.76,3.91,8.29,8.29,0,0,0,3.5.9,4.8,4.8,0,0,0,3.27-1.23,10.88,10.88,0,0,0,2.74-4.76c.48-1.42.84-2.91,1.16-4.27A10.49,10.49,0,0,0,333.86,35a17.48,17.48,0,0,0,7.61,1.47h.73c2.65-.07,5.24-.41,7.81-.41.46,0,.92,0,1.39,0A4.37,4.37,0,0,1,355,37.8a6.32,6.32,0,0,1,.94,3.71,19,19,0,0,1-.31,3.16l0,.22a1.22,1.22,0,0,0,.39.89,1.51,1.51,0,0,0,.84.36c2.22.19,4.44.27,6.65.27C366.58,46.41,369.69,46.27,372.8,46.19Z"/><path class="cls-2" d="M368.58,56.65c-.28,2.29-.25,4.64-.42,6.89-6.26-.6-12.6-.77-18.86-1-2.13-.07-4.29-.19-6.45-.19-4,0-8,.43-11.64,2.44-2.31,1.26-4.5,2.77-6.61,3.95a13.13,13.13,0,0,1-6.16,2c-2.17,0-4.36-.94-6.8-3.67-1.77-2-3.27-4.59-5-7A15.76,15.76,0,0,0,300,54.31a27.89,27.89,0,0,0-10.83-2.12,40.66,40.66,0,0,0-8.13.91c-5.71,1.17-11.21,2.8-16.64,2.8a21.8,21.8,0,0,1-9.43-2c-3-1.38-5.77-3-8.7-4.2a23.87,23.87,0,0,0-9.46-2.15l-.82,0c-2.95.12-5.9,1.38-8.82,2.57s-5.77,2.32-8.43,2.31a8,8,0,0,1-1.64-.17,13.19,13.19,0,0,0,.19-2.18c0-2.29-.47-4.54-.46-6.72a11.63,11.63,0,0,1,.31-2.78,8.38,8.38,0,0,1,2.72-3.67,12.86,12.86,0,0,0,3.37-4.1l.07-.24c4.46,1.43,9.21,4.65,14.11,7.61,5.07,3,10.31,5.8,15.7,5.81a14.8,14.8,0,0,0,7.08-1.79c2.12-1.14,4.12-3.2,6.12-4.95a20,20,0,0,1,3-2.24,5.94,5.94,0,0,1,2.9-.9c1.26,0,2.58.57,4.06,2.21,1.1,1.22,2.27,3.21,3.68,4.9a11.3,11.3,0,0,0,2.38,2.21,5.46,5.46,0,0,0,3,1h.27a9.45,9.45,0,0,0,3.59-1.22c1.17-.6,2.3-1.27,3.22-1.62a20.37,20.37,0,0,1,7.29-1.71,12.23,12.23,0,0,1,2.78.32c4,.92,7.6,3.41,11.26,5.71s7.46,4.44,12,4.44h.51c2.46-.09,4.64-1.67,6.74-3.14a27,27,0,0,1,3.09-2,6.26,6.26,0,0,1,2.92-.86,4.73,4.73,0,0,1,3.39,1.58,5.59,5.59,0,0,0,1.35,1,5.39,5.39,0,0,0,1.59.46,5.33,5.33,0,0,1,1.87.81c1.68,1.08,3.37,2.28,5.2,3.25l.21.55.24-.29.21.22a3.31,3.31,0,0,0,.37.25,7.24,7.24,0,0,0,1.39.63,24.21,24.21,0,0,0,3.29.82c1.06.19,2,.33,2.37.4A46.94,46.94,0,0,0,368.58,56.65Z"/><path class="cls-1" d="M368,65.33a11.07,11.07,0,0,1-2.89,6.56,1.09,1.09,0,0,0-.2.33,27.49,27.49,0,0,1-3.76.24c-2.15,0-4.31-.16-6.47-.16A17.71,17.71,0,0,0,344.22,75c-3.29,2.19-5.73,5.08-8.29,7.35s-5.2,4-8.94,4A14.36,14.36,0,0,1,323.9,86c-3.87-.83-7.61-2.66-11.48-3.94-4.31-1.39-8.41-1.61-12.16-4-2.48-1.53-4-4.5-5.63-7.43a27.57,27.57,0,0,0-2.68-4.15,9.07,9.07,0,0,0-3.84-2.86,6.38,6.38,0,0,0-2.23-.38,17,17,0,0,0-6.54,1.79,55,55,0,0,1-5.82,2.45,22.16,22.16,0,0,1-6,.85,20.4,20.4,0,0,1-12-4,36.27,36.27,0,0,1-4-3.61A16.8,16.8,0,0,0,247,57.47a6.19,6.19,0,0,0-2.6-.58c-2.42,0-4.69,1.35-6.69,2.95s-3.76,3.52-5.07,4.77a8.8,8.8,0,0,1-6.28,2.58,13.72,13.72,0,0,1-6.44-1.83,14,14,0,0,1-3.06-2.29,8.22,8.22,0,0,1-1.24-1.52,2.74,2.74,0,0,1-.46-1.37,1.32,1.32,0,0,1,.39-.95,3.7,3.7,0,0,1,1.55-.89.76.76,0,0,0,.52-.73.65.65,0,0,0-.16-.46.69.69,0,0,0-.49-.24l-.51,0a4.65,4.65,0,0,0-.94.09c.32-.68.6-1.39.86-2.1a10.15,10.15,0,0,0,1.75.17c3.42,0,7-1.58,10-2.67,3.4-1.26,6.4-2.21,9.66-2.21a17.43,17.43,0,0,1,3.86.44c4.17.95,8.07,3.52,12,5.5a23,23,0,0,0,10.48,2.36c8.72,0,17.4-3.77,25.92-3.76a23.44,23.44,0,0,1,8,1.32c3.28,1.18,5.37,3.6,7.3,6.34s3.68,5.79,6.33,8.09a10.19,10.19,0,0,0,6.77,2.72,14.94,14.94,0,0,0,7.34-2.33c3.25-1.88,6-4.25,9.35-5.52a15.78,15.78,0,0,1,5.47-.77c1.91,0,3.84.15,5.57.18,5.71.08,11.59.75,17.41.76C365.12,65.49,366.55,65.44,368,65.33Z"/><polygon class="cls-3" points="227.09 17.93 227.44 17.93 227.93 17.93 227.93 16.98 226.95 16.98 226.95 17.44 227.44 17.44 227.44 16.95 227.09 16.95 227.09 17.93 227.09 17.93"/><polyline class="cls-3" points="227.93 16.98 227.93 16.9 226.95 16.9 226.95 16.98"/><polygon class="cls-3" points="359.14 39.44 359.14 39.45 359.14 39.45 359.14 39.44"/><polygon class="cls-3" points="265.3 36.38 265.3 36.38 265.3 36.37 265.3 36.38"/><polygon class="cls-3" points="295.05 22.13 295.05 22.13 295.05 22.13 295.05 22.13"/><polygon class="cls-3" points="353.31 33.06 353.31 33.06 353.31 33.06 353.31 33.06"/><polygon class="cls-3" points="333.65 35.49 333.65 35.49 333.65 35.49 333.65 35.49"/><polygon class="cls-3" points="328.62 35.34 328.62 35.34 328.62 35.34 328.62 35.34"/><polygon class="cls-3" points="214.83 39.59 214.83 39.59 214.83 39.58 214.83 39.59"/><polygon class="cls-3" points="211.61 52.64 211.61 52.63 211.61 52.63 211.61 52.64"/><polygon class="cls-3" points="339.18 82.98 339.18 82.98 339.18 82.98 339.18 82.98"/><path class="cls-3" d="M377.69,44.21a1.84,1.84,0,0,0-.29-.44h0v0h0a1.06,1.06,0,0,0-.44-.28c-.08,0-.28,0-.28-.05v-.7l-.43-.12c-4.12,0-9.16.6-13.57.6h-2.56a2.28,2.28,0,0,1-.91-.13l-.05,0h0s.25-.1.25-.23.29-.13.29-.23h0c0-.51.07-1,.07-1.52s-.07-1.09-.07-1.61h0a6.42,6.42,0,0,0-2.08-4.27h-.13a8,8,0,0,0-4.08-2.12,20.17,20.17,0,0,0-4.29-.4c-2.95,0-5.95.4-8.61.4a11.59,11.59,0,0,1-5.91-1.23h0c-1.61-.94-2.93-2.51-3.82-5.48H331c-.09-.28-.31-.59-.31-.81h-1c0-.21-.36-.28-.63-.28a1.59,1.59,0,0,0-1,.37h.08a2,2,0,0,0-.7.9h0c-.79,2.2-1.19,5.18-2,7.53a8.08,8.08,0,0,1-1.46,2.8,2.72,2.72,0,0,1-2.14,1,6.45,6.45,0,0,1-2.64-.71,11.85,11.85,0,0,1-4-3.52h0a50.81,50.81,0,0,0-3.81-4.46,10.06,10.06,0,0,0-7.31-2.93h0A16.48,16.48,0,0,0,296,28.55c-.25-2,.06-4.24-.44-6.34a19.7,19.7,0,0,1-.89-3.79v0h0a31.71,31.71,0,0,0-3.78-3.16h0a19,19,0,0,0-7.75-1.71A35,35,0,0,0,268.7,17a24.61,24.61,0,0,0-8,7.17v0a47.85,47.85,0,0,1-5.05,7.23,15.18,15.18,0,0,1-3,3,5.64,5.64,0,0,1-3.21,1.14,5.25,5.25,0,0,1-2.08-.47,15.4,15.4,0,0,1-5.56-5h0c-1.68-2.19-3.15-4.68-4.47-6.7A37.13,37.13,0,0,0,234,18.72h0a9.14,9.14,0,0,0-5.21-3.11h0l-.17-.2,0-.19h0a1.47,1.47,0,0,0-1,.62,1.89,1.89,0,0,0-.24.49,11.39,11.39,0,0,0-1.81.36,5.64,5.64,0,0,0-1.85.83,7.38,7.38,0,0,0-2.58,3.09,14.73,14.73,0,0,0-1.42,4.77h0c0,.09,0,.19,0,.31v.18h0c1,1.24.56,2.39.56,3.45a8.34,8.34,0,0,1-.45,3.46,7.08,7.08,0,0,1-2.49,3,7,7,0,0,0-2.5,3.78,14.37,14.37,0,0,0-.36,4.33c0,.35.24.68.24,1h0c0,2.17.26,4.09.32,5.94a9.6,9.6,0,0,1-1.06-.67l0-.31c-.26-.21-.63-.65-1-.65h0c-.56,0-.77.64-1,.94a2.75,2.75,0,0,0-.23,1.47h0c0,.33-.11.69.15,1a7.46,7.46,0,0,0,2.6,2.06c-.3,1-.45,1.93-.85,2.92a3.51,3.51,0,0,0-.9,2.67v0h0v-.11h-.57a5.74,5.74,0,0,0,1.07,3.17A16.27,16.27,0,0,0,226,70.33a12.39,12.39,0,0,0,3.29-.42,11.56,11.56,0,0,0,5.12-3.25c1.4-1.42,2.61-3,3.77-4.22v.06a9.77,9.77,0,0,1,6.74-3.28h0A5.66,5.66,0,0,1,248,60c1.82,1.11,3.48,3.17,5.31,4.88a20.09,20.09,0,0,0,14,5.32h0a34.17,34.17,0,0,0,12.15-2.48c1.22-.47,2.34-1.21,3.37-1.62a8.69,8.69,0,0,1,2.81-.9h0a4.68,4.68,0,0,1,3.15,1.64l.17.11a20.17,20.17,0,0,1,3.56,4.76v0a41.43,41.43,0,0,0,3.16,5.38,16.87,16.87,0,0,0,7.57,5.2c5.12,2,10.51,2.59,15.45,4.43a22.69,22.69,0,0,0,8.09,1.45h0c4.42,0,8.27-1.66,12.2-5.49a54,54,0,0,1,6.41-5.66c2.2-1.53,4.56-1.86,7.64-2.86h2c2.52,0,5,.45,7.72.45a18,18,0,0,0,5.22-.68h0a2.08,2.08,0,0,0,1-.63c.16-.27.45-.55.45-.82v0c0-.24-.27-.56-.5-.85h-.1l-.06.29,0,.28h0c-.11-1-.33-.53-.47-.62,1.39-2.31,1.17-5.16,2.17-7.81h0a42.26,42.26,0,0,1,1-6.89c.28-.11.69-.68.85-.68h-.08c.24,0,.35-.51.35-.88a1.67,1.67,0,0,0-.33-1v-.08h0s-.08.14-.12.1c.81-3.14,2.15-6.1,4.87-8.1h0v-.06a2.23,2.23,0,0,0,.47-.61,1.6,1.6,0,0,0,.17-.74A1.47,1.47,0,0,0,377.69,44.21ZM228,18.07a11.82,11.82,0,0,1,4.7,4.41h-.07c2,2,2.66,4.24,3.94,6.15,2.35,3.48,5.1,7.18,9,9.47a7.05,7.05,0,0,0,3.58,1A7.74,7.74,0,0,0,253.08,38c3.52-2.06,6.2-6.22,7.91-8.74a25.35,25.35,0,0,1,9.89-8.81c3.69-2,8-2.21,13.47-2.21h0c.35,0,.69-.15,1-.15a17.82,17.82,0,0,1,2.23,0,3.67,3.67,0,0,1,1.54.49h.26c1.63,1.07,2.27,2.52,3.27,4.8h0c1,2.1.88,4.44,1.28,6.89a24.5,24.5,0,0,0-4.28,3.5h-.39c-.23.21-.58.52-.58.83a1.15,1.15,0,0,0,.13.69h0l0-.24c.18.23.47.18.85.18h0v.49c1,0,.22-.49.37-.49h.11c1.29,0,2.66-1.55,4-2.37a1.62,1.62,0,0,0,.85.35,1.57,1.57,0,0,0,1-.34h.58c.27-.24,1.06-.61,1.06-1.08v0l-.58-.13c2.38-1.28,4.5-2.17,6.74-2.17a8.27,8.27,0,0,1,6,2.75h-.07c1.37,1,2.48,2.94,3.79,4.49h0a14.31,14.31,0,0,0,4.91,3.8,8.22,8.22,0,0,0,3.7.72h0a5.08,5.08,0,0,0,3.49-1.13v.11a17,17,0,0,0,2.92-4.91c.37-1.09.67-2.17.93-3.25a11,11,0,0,0,4.13,3.44c2.29,1.1,5,1.13,7.82,1.14.26,0,.51-.39.74-.39h0l7.8,0c.45,0,.9.2,1.36.22a5.14,5.14,0,0,1,2,.58,3.25,3.25,0,0,1,1.17,1,6,6,0,0,1,.85,3.45,18.81,18.81,0,0,1-.3,3.09v0l.26.25.28,0v0c0,.49-.07.94.26,1.25h-.14l-.07-.2a1.39,1.39,0,0,0,1,.27h0c2.24,0,4.47.47,6.69.47,2.79,0,5.57,0,8.34-.08A20.88,20.88,0,0,0,368.56,54c-.43,0-.86,0-1.28,0-4.54,0-8.92-.28-13.08-1.83h0l-.45-.17-.07-.23-.24-.76-.5.5-.29-.26h0v.16a4.6,4.6,0,0,0-2.27-1.24h0a3.33,3.33,0,0,0-1.75-1.15,17.49,17.49,0,0,0-2.9-1.38,16.6,16.6,0,0,1-2-1.41h0c-1-1.79-2.5-3.06-4.29-3.06h0c-2.58,0-5.11,1.59-7,3v.13c-2.65,2-4.64,3.07-7.37,3.07-.71,0-1.48-.2-2.33-.2h0a42.89,42.89,0,0,1-7.26-3.31c-2.45-1.58-4.86-3.36-7.26-4.64a15.75,15.75,0,0,0-7.52-2c-4,0-7.51,1.22-11.67,2.45a8.54,8.54,0,0,1-2.47.48h0c-.56,0-1.11.62-1.52.76v.14c-.16.05-.17.17-.28.21-.34-.13-1-.56-1-.94v-.16h-.25c-.5,0-1-.93-1.43-1.46-1.58-1.86-2.92-4.18-5-6.05v.15a6.47,6.47,0,0,0-4.41-1.63h0c-2.71,0-5.09,1.54-7.2,3.25v0c-2.82,2.32-5,4.32-8.06,5.61-1.1.47-2.29.18-3.52.18h0a23.41,23.41,0,0,1-10.35-2.81c-3.15-1.65-6.51-3.6-9.77-5.43a23.66,23.66,0,0,0-9.9-3.08v.32h.64l-.64-.28v-.06s.17,0,.09-.05.19-.06.19-.08c0-1.28-.28-2.64-.28-4h0c0-1.34-.47-2.67-.47-3.83a5.14,5.14,0,0,1,.75-3c.55-.68,1.47-.67,3.29-1.67h0v.2a1.1,1.1,0,0,0,.72-.32v.06ZM364.67,71.55c0,.07-.06.14-.11.2a27.17,27.17,0,0,1-3.44.42c-2.13,0-4.26,0-6.45,0h-.11c-3.47,0-7.08.27-10.61,2.63-3.36,2.24-5.82,5.05-8.34,7.29s-5,3.63-8.62,3.64c-.91,0-1.9-.56-3-.56h-.34v.51c-4-.81-7.18-2.51-11.09-3.51h0c-4.39-2-8.44-1.94-12.05-4.21v-.15l-.19-.07c-2.31-1.42-3.65-4.34-5.65-7.29v0c0-1.46-1.47-2.94-2.54-4.23a9.26,9.26,0,0,0-4-3,6.61,6.61,0,0,0-2.35-.41,17.27,17.27,0,0,0-6.71,1.83,55,55,0,0,1-5.75,2.42,21.62,21.62,0,0,1-5.82.83A19.9,19.9,0,0,1,255.84,64h0a35.74,35.74,0,0,1-4-3.56A16.14,16.14,0,0,0,247.45,57h.22v0a9.52,9.52,0,0,0-3.24-.83h0c-2.6,0-5,1.52-7,3.14a69.46,69.46,0,0,0-5.1,4.85,8.34,8.34,0,0,1-5.94,2.47,13,13,0,0,1-6.21-1.61v.15h0c-.78-1-1.78-1.4-2.72-2.35l.22-.07v0a2.63,2.63,0,0,1-1.39-1.44,2.78,2.78,0,0,1-.5-1.12.77.77,0,0,1,.21-.63,3,3,0,0,1,1.32-1v-.3h0c.54,0,.83,0,.83-1h0v.14a.89.89,0,0,0-.27-.62v.05l-.1,0h-.09c0-.27-.45-.39-.74-.41l-.5,0-.16,0c.14-.33.29-.66.42-1a9.91,9.91,0,0,0,1.45.13c3.56,0,7.23-1.93,10.2-3v-.31h0c3.38-1,6.33-1.87,9.49-1.87a17.51,17.51,0,0,1,3.76.58c4,.92,7.92,3.53,11.9,5.53a23.56,23.56,0,0,0,10.7,2.46c8.84,0,17.51-3.71,25.88-3.71h0a22,22,0,0,1,7.66,1.27c3.14,1.13,4.9,3.43,6.9,6.15h0c2,2.7,3.85,6.09,6.58,8.45a11.51,11.51,0,0,0,7.26,3.12h0c2.56,0,5.08-1.23,7.58-2.69,3.3-1.91,6-4.41,9.28-5.62v-.07a15.31,15.31,0,0,1,5.3-.77c1.88,0,3.81.13,5.56.17,5.68.08,11.56.75,17.42.76,1.26,0,2.46-.05,3.72-.13-.36,2.15-.71,4-2.71,5.69Zm-15.35-9.48c-2.12-.07-4.29-.19-6.47-.19-4,0-8.1.43-11.88,2.5-2.34,1.28-4.53,2.79-6.61,3.95a12.67,12.67,0,0,1-5.92,1.94c-2,0-4-.84-6.44-3.51-1.73-1.94-3.22-4.52-5-7s-3.83-5-6.82-6.18a28.78,28.78,0,0,0-10.93-2.4h-.09A41.92,41.92,0,0,0,281,52.38c-5.74,1.18-11.21,2.92-16.54,2.91a21.23,21.23,0,0,1-9.23-1.91c-2.94-1.37-5.75-2.92-8.71-4.18s-6.11-2.6-9.65-2.6c-.29,0-.56-.39-.83-.39h0c-3.07,1-6.07,1.48-9,2.66s-5.7,2.34-8.21,2.34h0c-.37,0-.8.32-1.16.27a8.23,8.23,0,0,0,.07-1.41h0c0-2.33-1-4.55-1-6.65v-.07h0a11.61,11.61,0,0,1,.63-2.67c.28-1.16,1.49-2.26,2.75-3.43h.09a13.94,13.94,0,0,0,3.43-4.08c4.23,1.46,8.84,4.53,13.59,7.4,5.08,3,10.4,5.87,16,5.88a15.6,15.6,0,0,0,7.31-2,28.65,28.65,0,0,0,6.21-5.2h0a12,12,0,0,1,2.9-2,5.26,5.26,0,0,1,2.65-.74c1.11,0,2.26.52,3.7,2.1,1,1.16,2.23,3.18,3.67,4.91v0a10.41,10.41,0,0,0,2.48,2,5.77,5.77,0,0,0,3.29.72h.29a8.26,8.26,0,0,0,3.78-1,31.64,31.64,0,0,1,3.17-1.44c2.56-1,4.77-1.8,7.12-1.8.86,0,1.74.19,2.67.19h0c3.91,1,7.43,3.53,11.1,5.84s7.24,4.61,12,4.61c.16,0,.21,0,.21,0v-.45h0v.43c3-.11,5.22-1.72,7.32-3.17l.17,0a24.68,24.68,0,0,1,2.77-1.94h-.25v0A10.7,10.7,0,0,1,339,46.22h0c1,0,1.89.61,3,1.72l.06.14c.53.51.52,1,1.52,1.22h0l-.06,0,0,0h0a6.13,6.13,0,0,1,1.68.54,5,5,0,0,1,1.7.76c1.62,1,3.27,2.22,5.07,3.19l.15.39.3.78.44-.53.27.19a7.94,7.94,0,0,0,1.48.76c1.07.37,2.3-.09,3.36.91h0a9,9,0,0,1,2.62.43v-.1a39.4,39.4,0,0,0,7.51.62c-.2,2-.29,4-.41,5.87C361.65,62.48,355.41,62.28,349.32,62.07Z"/><polygon class="cls-3" points="221.43 20.63 221.43 20.63 221.43 20.62 221.43 20.63"/><polygon class="cls-3" points="223.66 17.55 223.66 17.55 223.66 17.55 223.66 17.55"/><polyline class="cls-3" points="284.77 43.78 284.4 44 284.91 44.84 285.28 44.61"/><path class="cls-1" d="M272.51,71.76l.14.05a4.4,4.4,0,0,1-1.43,1.82A31.71,31.71,0,0,1,266,77c-1.85,1-3.55,1.81-4.32,2.21l-.85.46c-.77-.87-1.64-1.56-2.33-2.33-.92-1-1.76-2.12-2.78-3.14a9,9,0,0,0-5.15-2.6,10.75,10.75,0,0,0-3.28,0,.75.75,0,0,0-.31.12,7,7,0,0,1-3.46-2,9.74,9.74,0,0,1-2-5.39c-.3-2.11-.37-4.45-.85-6.66a5.86,5.86,0,0,0-1.64-3h0a4.91,4.91,0,0,0-2.12-1.29l-.4-.09,0,0h0a9.15,9.15,0,0,0-.93-.19,10.47,10.47,0,0,0-4,.22c-2.24.56-5.15,2.16-8.21,3.53s-6.18,2.44-8.66,2.06a5.23,5.23,0,0,1-3.52-2.12A8.32,8.32,0,0,1,209.86,53c-.2-1.48-.26-3-.48-4.3a17.51,17.51,0,0,0-4.3-9,4.85,4.85,0,0,0-2.88-1.53,9.84,9.84,0,0,0-5.31,1.08c-1.71.76-3.29,1.73-4.47,2.32a23,23,0,0,1-14,2.18,33.08,33.08,0,0,1-16.62-8.19c-3.64-3.24-6.49-5.25-10.4-5.84a21.51,21.51,0,0,0-5.85,0,11.39,11.39,0,0,1-3.06.07,5.12,5.12,0,0,1-2.08-.78,13.42,13.42,0,0,1-2.24-1.87c-3.55-3.48-8.39-6.54-11-10.5a10.26,10.26,0,0,0,.47-1.18c1-3,1.07-5.82,1.82-8a6.45,6.45,0,0,1,1.73-2.78,8.57,8.57,0,0,1,3.73-1.81l.32,0,.24,0a21.54,21.54,0,0,1,3.35.91,8.38,8.38,0,0,1,2.78,2.6c1,1.43,1.74,3.18,2.86,5.11,1.79,3,5.2,4.34,8.1,5.41,4.35,1.59,8.8,2.41,12.82,4.43a10.09,10.09,0,0,1,4.13,4.45c1,1.91,1.82,4.06,2.72,6a13.8,13.8,0,0,0,3,4.24,8.09,8.09,0,0,0,4.31,2.16,8.85,8.85,0,0,0,4.39-.52,45.06,45.06,0,0,0,9.32-4.47,21.74,21.74,0,0,1,5.13-2.57,11.05,11.05,0,0,1,5-.38,16.3,16.3,0,0,1,3.57,1c2.75,1.08,5.35,3.36,8,5.53s5.54,4.24,8.9,4.75a10.25,10.25,0,0,0,1.71.11c4.72-.09,9-1.93,13.26-3.31a26.62,26.62,0,0,1,12.15-1.26,18.59,18.59,0,0,1,8.11,3.24,9.42,9.42,0,0,1,3.89,6.53c.68,3.9-.08,8.54.3,12.76a12.67,12.67,0,0,0,1.86,5.9,9.71,9.71,0,0,0,.87,1.1l-.12.06a.83.83,0,0,0-.35.56.78.78,0,0,0,.26.71,17.64,17.64,0,0,0,4.39,2.63C271,71,271.74,71.38,272.51,71.76Z"/><path class="cls-2" d="M256.78,79.33a11,11,0,0,0,1.82,1.82,16.3,16.3,0,0,0-4.77,5.17,24.92,24.92,0,0,0-1.89,4.58,7.39,7.39,0,0,1-1.32,2.33,15.81,15.81,0,0,1-6.49-3.41,46.27,46.27,0,0,1-5.41-5.87A13.66,13.66,0,0,0,230,78.67l-.29,0A34.3,34.3,0,0,0,222,79a10.77,10.77,0,0,1-2.62-.06c-2.28-.34-4.25-1.42-6.83-2.28a126.49,126.49,0,0,1-14.6-5.53A3.38,3.38,0,0,1,196.58,70a7.71,7.71,0,0,1-1-2.36,9.06,9.06,0,0,0-1.22-2.74c-.24-.31-.48-.58-.71-.84a9.38,9.38,0,0,0-2.85-2.93c-.56-.53-1.11-1.05-1.65-1.58-1.37-1.33-3-1.56-4.48-1.92a8,8,0,0,1-2-.72,4.59,4.59,0,0,1-1.68-1.61,17.36,17.36,0,0,1-1.11-2.69,4.8,4.8,0,0,0-2-2.64,8.62,8.62,0,0,0-2.93-1,11.56,11.56,0,0,0-5.2.56c-1.69.54-3.34,1.29-5,2a11,11,0,0,1-5.8,1,7.49,7.49,0,0,1-5.29-3.95,27.29,27.29,0,0,1-2.84-7.8.83.83,0,0,0-.69-.63h-.28c-7.09,1.44-13.78,4.69-20.86,3.8l-.26,0a6.15,6.15,0,0,1-3.81-1.93c-1.33-1.43-2-3.55-2.84-5.69a11.61,11.61,0,0,0-3.65-5.55c.15-.36.29-.72.43-1.07a30.12,30.12,0,0,1,1.69-4.41,19.87,19.87,0,0,1,3.14-3.86,22.75,22.75,0,0,0,2.63-3.12c1.25,2.56,3.05,4.18,5.27,6a38.45,38.45,0,0,1,3.78,4.07A14.21,14.21,0,0,0,139.73,32a5.33,5.33,0,0,0,1.46.45,10.15,10.15,0,0,0,3.36-.24,21.48,21.48,0,0,1,7-.33,13.2,13.2,0,0,1,7,3.41c5.94,5.24,13,9.29,20.92,10.49.6.09,1.21.17,1.83.23,3.74.34,7.28-1.06,10.47-2.5,1.61-.73,3.3-1.81,5-2.62a8.72,8.72,0,0,1,5-1.13,5.16,5.16,0,0,1,2.35,1A10,10,0,0,1,207.22,46a42,42,0,0,1,1.2,6.32c.12.86.22,2,.47,3.07a5.74,5.74,0,0,0,1.53,3,7,7,0,0,0,3.72,1.7c3.69.54,7.89-1.12,10.75-2.44,1.68-.79,3.46-1.78,5.27-2.51a10.6,10.6,0,0,1,5.4-.89,6.32,6.32,0,0,1,.63.13,5,5,0,0,1,2.05,1.13,6.41,6.41,0,0,1,1.42,3.79c.17,1.52.1,3.14.13,4.47a10,10,0,0,0,6.78,9.14l.07.19a.84.84,0,0,0,.58.36,18.07,18.07,0,0,1,4.21,1,8.84,8.84,0,0,1,3.37,2.43C255.44,77.58,256.07,78.47,256.78,79.33Z"/><path class="cls-1" d="M249.2,94.64c-.83.71-1.75,1.39-2.69,2.16C244.92,98.12,243.39,99,242,100a8.65,8.65,0,0,0-3.11,4.19,3.74,3.74,0,0,1-2.06.49,1.6,1.6,0,0,1-1.05-.65,7.21,7.21,0,0,1-1-2.57c-.28-1.07-.5-2.23-.85-3.25-.82-2.34-1.69-5.42-3.59-7.42a5.77,5.77,0,0,0-3.4-1.72,13.35,13.35,0,0,0-5,.44c-1.66.4-3.26.9-4.59,1.13a10.74,10.74,0,0,1-3.38,0c-3.31-.5-6.34-2.49-9.42-4.63s-6.18-4.41-9.73-5.31A10.61,10.61,0,0,1,189,77.18,23.24,23.24,0,0,1,185.61,71c-1.46-3.45-4.76-5.88-8-7.25a13.6,13.6,0,0,0-3.29-.93c-6.27-.93-12.73,2.23-18,4.51a5.33,5.33,0,0,1-2.94.56,3.38,3.38,0,0,1-1.9-1,11.33,11.33,0,0,1-2.06-3.32,29.11,29.11,0,0,0-1.86-3.73c-1.55-2.3-4.28-3.49-6.63-4.29a26.75,26.75,0,0,0-4.73-1.11c-4.52-.69-9.22-.54-13.57-1-.59-.06-1.18-.13-1.77-.22a17.65,17.65,0,0,1-7.37-2.62,7.41,7.41,0,0,1-2.81-3.76,20.34,20.34,0,0,1-.84-4.8c.35-1.25,1.18-2.52,1.4-4h0a1,1,0,0,0-.26-.63c.3-.32.52-.38.83-.73.13-.13.1-.19.1-.19h0c1.32-.9,2.73-1.63,4.05-2.48a6.21,6.21,0,0,0,1.72-2c1.85,2.27,2.67,5,3.84,7.53A12.15,12.15,0,0,0,124,43.31a9.31,9.31,0,0,0,4.52,2.41c.33.07.65.13,1,.18,4,.6,8.26-.76,11.8-1.72,2-.55,4-1.17,6-1.72a2.77,2.77,0,0,1,1.08-.1,1.11,1.11,0,0,1,.74.41,4,4,0,0,1,.71,1.64c.17.7.31,1.5.53,2.26a11.13,11.13,0,0,0,3,5.13,9.37,9.37,0,0,0,5.13,2.47,12.21,12.21,0,0,0,3,.06,19.71,19.71,0,0,0,5.81-1.83,27.13,27.13,0,0,1,5.49-2,6.33,6.33,0,0,1,2.19-.1A2.87,2.87,0,0,1,177,51.47a14.34,14.34,0,0,1,1.65,3.46,8.46,8.46,0,0,0,1,1.86,4.46,4.46,0,0,0,1.79,1.38c2.64,1.1,6.1,2.05,8.63,3.79a34.61,34.61,0,0,1,2.67,2.74,6.79,6.79,0,0,1,.87,2.76,5.18,5.18,0,0,0,.91,2.58,6.92,6.92,0,0,0,2,1.78c5.91,3.67,14,6.25,20.55,8.28a8,8,0,0,0,1.22.28,26.22,26.22,0,0,0,6.33-.28,20.24,20.24,0,0,1,5,0,12.26,12.26,0,0,1,7.93,4.74A61.14,61.14,0,0,0,243,91,16.61,16.61,0,0,0,249.2,94.64Z"/><polygon class="cls-3" points="118.62 23.11 118.62 23.11 118.62 23.11 118.62 23.11"/><path class="cls-3" d="M275.67,71.57v-.1a.6.6,0,0,1,.12-.25h-.12v0l.36,0h0c.07,0,.11-.21.13-.34l0-.19c0-.19.09-.37,0-.57s-.51-.5-.51-.64h0l-.25-.25h.25v.08a9.22,9.22,0,0,0-2.77-.91c0-.11-.23-.17-.23-.28v.11h0c-.14,0-.37-.54-.65-.67v0a11.79,11.79,0,0,1-3.95-3,9.72,9.72,0,0,1-1.87-3.67,22.62,22.62,0,0,1-.61-6c0-1.2,0-2.46.07-3.77,0-.28,0-.57,0-.85a20.41,20.41,0,0,0-1-6.72,10.43,10.43,0,0,0-4.87-5.78,16.2,16.2,0,0,0-8.16-2.6h0c-1.17-1-2.34-.61-3.5-.61a43,43,0,0,0-13.37,2.46,26.86,26.86,0,0,1-8.26,1.68,11.38,11.38,0,0,1-1.72-.17,11.77,11.77,0,0,1-5.15-2.21c-3.66-2.62-7-5.65-11.34-7.72A15.05,15.05,0,0,0,204,27.3a13,13,0,0,0-2-.15c-3.67,0-7,1.56-10.3,3.73h0a40.73,40.73,0,0,1-5.89,3.26,13.52,13.52,0,0,1-5.08,1.2,7.44,7.44,0,0,1-1.08,0,6,6,0,0,0-.84-.11h0c-.67,0-1.28-.68-1.84-1.27v-.06a13,13,0,0,1-2.25-3.55c-.64-1.37-1.17-2.78-1.71-3.94A16.63,16.63,0,0,0,164.74,18a62,62,0,0,0-11.06-3.79h0c-2.28-1-4-1.6-5.39-2.87a16.64,16.64,0,0,1-3.6-5A9.36,9.36,0,0,0,142,3.09h0a8.42,8.42,0,0,0-3.9-1.57l-.06-.35c-.81-.25-1.64-1-2.5-1h0C135,.22,134.51,0,134,0c-.77,0-1.53.22-2.28.22h0a17.92,17.92,0,0,0-3.46,2.84V3.4A1.49,1.49,0,0,0,128,4v.2s0,0,0,.07A10.54,10.54,0,0,0,126.66,7c-.88,2.72-1,5.51-1.66,7.94a8.9,8.9,0,0,1-2.61,4,24.33,24.33,0,0,0-3.66,4.13c-1.45,2.26-3.05,4.69-3.05,7h0c0,1.06-1.43,1.84-2.64,2.55s-2.71,1.28-4,2a8.08,8.08,0,0,0-4.3,5.48,2.37,2.37,0,0,0-.08.56,5.18,5.18,0,0,0,1.2,3.54h-.18v.6l.15.4h.07c.21,0,.55.22.92.28l0-.28h0l.15.09a1.32,1.32,0,0,0,.2,0,12.6,12.6,0,0,0,5.14,7.51,22.45,22.45,0,0,0,9.31,3.28c4,.61,8.3.11,12.2,1.11h0a18.72,18.72,0,0,1,2.77.23A17.25,17.25,0,0,1,144,60a5.21,5.21,0,0,1,1.54,1.64,13.64,13.64,0,0,1,1,2.16,10.66,10.66,0,0,0,2.9,4.82,7,7,0,0,0,3.48,1.5,9.3,9.3,0,0,0,1.38.1,10.61,10.61,0,0,0,2.85-.23c2.89-.81,5.15-2.82,7.69-2.82h0a18.74,18.74,0,0,1,7.36-1l1.68,0h0a6.48,6.48,0,0,1,.88-.05,8.73,8.73,0,0,1,5.11,2.55c2,2,3.45,4.93,5.21,7.79s4,5.61,7.66,6.88,6.79,3.5,10.14,5.69S209.73,93.34,214,94c.48.07,1,.12,1.45.15.27,0,.53-.14.8-.14,3.2,0,6.23-1.77,9-1.77h0c.2,0,.38.11.54.11a2.62,2.62,0,0,1,.4.11,2.85,2.85,0,0,1,1.63,1,6.11,6.11,0,0,1,1.92,3.78h0a12.15,12.15,0,0,1,1.41,4.14,22.82,22.82,0,0,0,1.68,4.3,6.46,6.46,0,0,0,1.25,1.66h0a6.83,6.83,0,0,0,2.31,1.05c.48,0,1-.2,1.48-.2h0v-.1a7.44,7.44,0,0,0,1.52-1l.1,0a1.45,1.45,0,0,0,.76-.23h0a1.35,1.35,0,0,0,.56-.9h-.11a11.65,11.65,0,0,1,4.22-5.37c2-1.44,4.46-2.71,6.48-4.57h0a6,6,0,0,0,.44-.44,1.25,1.25,0,0,0,.44-.25h0c.21-.21.63-.48.68-.77a35.19,35.19,0,0,0,3.68-7.09h0c1-1.2,1.11-2.18,2-3l-.18.53,1.18,0h.76l.17-.8a1.81,1.81,0,0,0,0-.22v-.06h0l0,0a1.4,1.4,0,0,0,.21-.47v-.18a1.24,1.24,0,0,0-.12-.51l.11-.07a1.39,1.39,0,0,0,.55-.19h.21c0-.1.19-.23.29-.36,2.25-1.26,4.77-2.3,7.2-3.64a16.25,16.25,0,0,0,5.72-4.88l0,0,.36.31L276,73l.36-.42.18-.37Zm-14.78,8.12c-.77-.87-1.64-1.56-2.33-2.33-.92-1-1.76-2.12-2.78-3.14a9,9,0,0,0-5.15-2.6,10.75,10.75,0,0,0-3.28,0,.75.75,0,0,0-.31.12,7,7,0,0,1-3.46-2,9.74,9.74,0,0,1-2-5.39c-.3-2.11-.37-4.45-.85-6.66a5.86,5.86,0,0,0-1.64-3h0a4.91,4.91,0,0,0-2.12-1.29l-.4-.09,0,0h0a9.15,9.15,0,0,0-.93-.19,10.47,10.47,0,0,0-4,.22c-2.24.56-5.15,2.16-8.21,3.53s-6.18,2.44-8.66,2.06a5.23,5.23,0,0,1-3.52-2.12A8.32,8.32,0,0,1,209.86,53c-.2-1.48-.26-3-.48-4.3a17.51,17.51,0,0,0-4.3-9,4.85,4.85,0,0,0-2.88-1.53,9.84,9.84,0,0,0-5.31,1.08c-1.71.76-3.29,1.73-4.47,2.32a23,23,0,0,1-14,2.18,33.08,33.08,0,0,1-16.62-8.19c-3.64-3.24-6.49-5.25-10.4-5.84a21.52,21.52,0,0,0-5.85,0,11.38,11.38,0,0,1-3.06.07,5.12,5.12,0,0,1-2.08-.78,13.42,13.42,0,0,1-2.24-1.87c-3.55-3.48-8.39-6.54-11-10.5a10.26,10.26,0,0,0,.47-1.18c1-3,1.07-5.82,1.82-8a6.45,6.45,0,0,1,1.73-2.78,8.57,8.57,0,0,1,3.73-1.81l.32,0,.24,0a21.54,21.54,0,0,1,3.35.91,8.38,8.38,0,0,1,2.78,2.6c1,1.43,1.74,3.18,2.86,5.11,1.79,3,5.2,4.34,8.1,5.41,4.35,1.59,8.8,2.41,12.82,4.43a10.09,10.09,0,0,1,4.13,4.45c1,1.91,1.82,4.06,2.72,6a13.81,13.81,0,0,0,3,4.24,8.09,8.09,0,0,0,4.31,2.16,8.85,8.85,0,0,0,4.39-.52,45.06,45.06,0,0,0,9.32-4.47,21.74,21.74,0,0,1,5.13-2.57,11.05,11.05,0,0,1,5-.38,16.3,16.3,0,0,1,3.57,1c2.75,1.08,5.35,3.36,8,5.53s5.54,4.24,8.9,4.75a10.25,10.25,0,0,0,1.71.11c4.72-.09,9-1.93,13.26-3.31a26.62,26.62,0,0,1,12.15-1.26,18.59,18.59,0,0,1,8.11,3.24,9.43,9.43,0,0,1,3.89,6.53c.68,3.9-.08,8.54.3,12.76a12.67,12.67,0,0,0,1.86,5.9,9.71,9.71,0,0,0,.87,1.1l-.12.06a.83.83,0,0,0-.35.56.78.78,0,0,0,.26.71,17.64,17.64,0,0,0,4.39,2.63c.73.36,1.46.76,2.23,1.13l.14.05a4.4,4.4,0,0,1-1.43,1.82A31.71,31.71,0,0,1,266,77c-1.85,1-3.55,1.81-4.32,2.21Zm-7.47,6.39a25.44,25.44,0,0,0-1.93,4.67,6.71,6.71,0,0,1-1,1.93,15.34,15.34,0,0,1-6-3.22,45.91,45.91,0,0,1-5.35-5.81,14.1,14.1,0,0,0-9-5.41,1.91,1.91,0,0,0-.29,0h0c-.72,0-1.44-.17-2.16-.17-2,0-3.89.25-5.68.43-.36,0-.7,0-1,0a9.85,9.85,0,0,1-1.47-.11,40.51,40.51,0,0,1-6.75-2c-4.95-1.64-9.9-3.22-14.54-5.22h0c-.54-1-1-.85-1.3-1.23l-.15-.18v-.06a12.94,12.94,0,0,0-.81-2.24,9.26,9.26,0,0,0-1.22-2.89h0c-.25-.33-.49-.6-.7-.85a9.84,9.84,0,0,0-2.91-3c-.55-.53-1-1-1.51-1.56h.11v.13c-2-1.46-3.51-2.11-4.91-2.11h0a4.1,4.1,0,0,1-1.92-.71,4.16,4.16,0,0,1-1.5-1.46H181c-.36-.53-.36-1.57-1.36-2.61h0a3.5,3.5,0,0,0-1.92-2.89,8.39,8.39,0,0,0-2.94-1.06,8.71,8.71,0,0,0-1.35-.1,13.1,13.1,0,0,0-4,.68c-1.73.55-3.37,1.31-5,2a11.87,11.87,0,0,1-4.5,1,3.33,3.33,0,0,1-.72-.07,6.05,6.05,0,0,1-4.63-3.72h0c-2-2.05-2.43-4.82-3.09-7.65h-.24a1.37,1.37,0,0,0-1.13-1l-.06-.2-.34-.19h0l0,.21c-6.34,1.29-12.26,3.95-18.3,3.94-.8,0-1.6-.15-2.4-.15h0l-.25.07a5.61,5.61,0,0,1-3.52-1.73v0h-.42a21.57,21.57,0,0,1-3.16-5.52h0c-1-2-1.26-4-3.1-5.52.1-.25.41-.51.51-.75h.16a29.94,29.94,0,0,1,1.68-4.33h0A19.51,19.51,0,0,1,124,21.69h0a27.79,27.79,0,0,0,2.21-2.54,19.58,19.58,0,0,0,5,5.47,38.24,38.24,0,0,1,3.73,4h0a14.24,14.24,0,0,0,4.55,3.72v-.14h0c.53,1,1.06.54,1.59.62.32,0,.64.38.95.38h2.57c1.68-1,3.22-.72,4.65-.72a15.25,15.25,0,0,1,2.21,0,12.58,12.58,0,0,1,6.73,3.23c6,5.28,13.09,9.19,21.17,10.42a12.64,12.64,0,0,0,1.85,0h0c.4,0,.8-.18,1.19-.18A16.24,16.24,0,0,0,192,43.22h0c1.65-1,3.35-2,5-2h0a6.26,6.26,0,0,1,4-1.06,5.22,5.22,0,0,1,2.82,1,10.1,10.1,0,0,1,3.33,4.91c.61,2,.55,4.31,1.55,6.26h0a12.29,12.29,0,0,0,0,3.11h-.35a4.28,4.28,0,0,0,1.72,3v-.25h0a8.29,8.29,0,0,0,4,2.07,11.35,11.35,0,0,0,1.57.32c3.42,0,7-1.39,9.47-2.39h0a39.67,39.67,0,0,1,5.25-2.58,11.63,11.63,0,0,1,4.16-1,6.67,6.67,0,0,1,1,.05,5.61,5.61,0,0,1,.57.11,5.48,5.48,0,0,1,2.08,1,5.25,5.25,0,0,1,1.52,3.49v-.1h-.29a37.11,37.11,0,0,1,.29,4.53v-.53h-.29c.13,5,2.82,8.4,6.86,9.78v.25a1.35,1.35,0,0,0,.92.63,18.6,18.6,0,0,1,4.2,1,8.48,8.48,0,0,1,3.3,2.31h0c0,.66,1.12,1.56,1.85,2.44a12.55,12.55,0,0,0,1.38,1.48A16.69,16.69,0,0,0,253.41,86.07Zm-14.49,18.1a3.74,3.74,0,0,1-2.06.49,1.6,1.6,0,0,1-1.05-.65,7.21,7.21,0,0,1-1-2.57c-.28-1.07-.5-2.23-.85-3.25-.82-2.34-1.69-5.42-3.59-7.42a5.77,5.77,0,0,0-3.4-1.72,13.35,13.35,0,0,0-5,.44c-1.66.4-3.26.9-4.59,1.13a10.74,10.74,0,0,1-3.38,0c-3.31-.5-6.34-2.49-9.42-4.63s-6.18-4.41-9.73-5.31A10.61,10.61,0,0,1,189,77.18,23.24,23.24,0,0,1,185.61,71c-1.46-3.45-4.76-5.88-8-7.25a13.6,13.6,0,0,0-3.29-.93c-6.27-.93-12.73,2.23-18,4.51a5.33,5.33,0,0,1-2.94.56,3.38,3.38,0,0,1-1.9-1,11.33,11.33,0,0,1-2.06-3.32,29.11,29.11,0,0,0-1.86-3.73c-1.55-2.3-4.28-3.49-6.63-4.29a26.84,26.84,0,0,0-4.73-1.11c-4.52-.69-9.22-.54-13.57-1-.59-.06-1.18-.13-1.77-.22a17.65,17.65,0,0,1-7.37-2.62,7.41,7.41,0,0,1-2.81-3.76,20.34,20.34,0,0,1-.84-4.8c.35-1.25,1.18-2.52,1.4-4h0a1,1,0,0,0-.26-.63c.3-.32.52-.38.83-.73.13-.13.1-.19.1-.19h0c1.32-.9,2.73-1.63,4.05-2.48a6.21,6.21,0,0,0,1.72-2c1.85,2.27,2.67,5,3.84,7.53A12.15,12.15,0,0,0,124,43.31a9.31,9.31,0,0,0,4.52,2.41c.33.07.65.13,1,.18,4,.6,8.26-.76,11.8-1.72,2-.55,4-1.17,6-1.72a2.77,2.77,0,0,1,1.08-.1,1.11,1.11,0,0,1,.74.41,4,4,0,0,1,.71,1.64c.17.7.31,1.5.53,2.26a11.13,11.13,0,0,0,3,5.13,9.37,9.37,0,0,0,5.13,2.47,12.21,12.21,0,0,0,3,.06,19.71,19.71,0,0,0,5.81-1.83,27.12,27.12,0,0,1,5.49-2,6.33,6.33,0,0,1,2.19-.1A2.87,2.87,0,0,1,177,51.47a14.34,14.34,0,0,1,1.65,3.46,8.46,8.46,0,0,0,1,1.86,4.46,4.46,0,0,0,1.79,1.38c2.64,1.1,6.1,2.05,8.63,3.79a34.61,34.61,0,0,1,2.67,2.74,6.79,6.79,0,0,1,.87,2.76,5.18,5.18,0,0,0,.91,2.58,6.92,6.92,0,0,0,2,1.78c5.91,3.67,14,6.25,20.55,8.28a8,8,0,0,0,1.22.28,26.25,26.25,0,0,0,6.33-.28,20.24,20.24,0,0,1,5,0,12.26,12.26,0,0,1,7.93,4.74A61.27,61.27,0,0,0,243,91a16.61,16.61,0,0,0,6.19,3.64c-.83.71-1.75,1.39-2.69,2.16C244.92,98.12,243.39,99,242,100A8.64,8.64,0,0,0,238.92,104.18Z"/><polygon class="cls-3" points="121.66 56.04 121.66 56.04 121.65 56.04 121.66 56.04"/><polygon class="cls-3" points="232.82 105.71 232.82 105.7 232.82 105.7 232.82 105.71"/><polygon class="cls-3" points="215.4 94.13 215.4 94.13 215.4 94.13 215.4 94.13"/><polygon class="cls-3" points="104.69 40.12 104.69 40.12 104.69 40.12 104.69 40.12"/><polygon class="cls-3" points="264.66 43.6 264.66 43.6 264.66 43.6 264.66 43.6"/><polygon class="cls-3" points="173.06 26.38 173.06 26.38 173.06 26.38 173.06 26.38"/><polygon class="cls-3" points="206.76 46.13 206.76 46.14 206.76 46.13 206.76 46.13"/><polygon class="cls-3" points="208.21 55.5 208.21 55.5 208.21 55.5 208.21 55.5"/><polygon class="cls-3" points="253.41 86.08 253.41 86.07 253.41 86.08 253.41 86.08"/><polygon class="cls-3" points="178.04 49.54 178.04 49.54 178.04 49.53 178.04 49.54"/><polyline class="cls-3" points="237.29 53.65 237.31 53.61 236.44 53.17 236.42 53.2"/><path class="cls-3" d="M151.46,94.7l.31,0a23.71,23.71,0,0,1-3.08-2.82c-1.55-1.67-2.94-3.43-4.31-4.78a15.34,15.34,0,0,0-5.28-3.59,26.16,26.16,0,0,0-6.36-1.42c-3.17-.4-6.22-1.36-8.56-3.84-2.76-2.93-5-6.27-7.54-8.84s-5.28-4.35-9.14-4.36a14.88,14.88,0,0,0-3.23.38,34.82,34.82,0,0,1-7.53,1.11,12,12,0,0,1-8.12-2.9c-2.4-2.06-4.13-4.61-6.77-6s-5.67-2.56-7.9-4.91c-1.71-1.82-3.29-4.13-5-6.31a22,22,0,0,0-5.56-5.44,8.91,8.91,0,0,0-4.62-1.32,10.45,10.45,0,0,0-1.15.06,50.74,50.74,0,0,0-6.11,1.49,27.94,27.94,0,0,1-6.89,1.2,7.89,7.89,0,0,1-4.27-1.07,4.11,4.11,0,0,1-1.54-2c-.32-.76-.54-1.55-.8-2.09a12.13,12.13,0,0,0-10.32-7.1.69.69,0,0,1-.28-.08,16.9,16.9,0,0,1-8,2.15,15.42,15.42,0,0,1-1.84-.12,47.5,47.5,0,0,0-9.14,7.39c-2.87,3.08-5,6.58-5,10a7.85,7.85,0,0,0,.1,1.22,86.56,86.56,0,0,1,9.16-6.19c3.61-2,7.46-3.54,11.26-3.54.37,0,.74,0,1.1,0a8.85,8.85,0,0,1,7.76,5.3A23,23,0,0,1,34.63,56c0,.26,0,.51,0,.77a53.05,53.05,0,0,0,7.75-1.54,9.39,9.39,0,0,0,3.92-2.22A21.49,21.49,0,0,0,49,49.45,22.16,22.16,0,0,1,52,45.77a6.36,6.36,0,0,1,4.36-2c.23,0,.44,0,.67,0a8.07,8.07,0,0,1,4.93,2.79A18.94,18.94,0,0,1,65.11,52,83.1,83.1,0,0,1,68.47,63.6l.09.13a1.12,1.12,0,0,0,.35.17,4.87,4.87,0,0,0,1.46.15c1.62,0,3.76-.34,5.2-.34a4,4,0,0,1,1,.11,6.12,6.12,0,0,1,2.54,1.67A16.53,16.53,0,0,1,81,67.74a26,26,0,0,0,3.54,4.4A6.34,6.34,0,0,0,89,74a8.7,8.7,0,0,0,2.68-.46c2.25-.73,4.72-2,7.3-2.21.32,0,.64,0,.94,0a6.89,6.89,0,0,1,3.75,1,10.43,10.43,0,0,1,2.46,2.31c1.42,1.73,2.66,3.57,5.12,4.59,2.63,1.1,4.67,2.94,7.06,4.08s4.69,2,7.1,2.89a8.65,8.65,0,0,1,1-.08,5.26,5.26,0,0,1,3.7,1.25,5,5,0,0,1,1.41,3.76c0,.11,0,.22,0,.32v.41c0,2.06.58,3.22,1.49,4a6.27,6.27,0,0,0,3.92,1,36.66,36.66,0,0,0,7.25-1.06A36.8,36.8,0,0,1,151,94.69ZM31.37,58.87c0-.44-.1-.87-.1-1.32a27.31,27.31,0,0,0-.84-6.71A8.72,8.72,0,0,0,27.62,46a5.58,5.58,0,0,0-3.48-1.08,10.48,10.48,0,0,0-3,.48c-6.47,1.91-12.28,6-17.78,10A1.65,1.65,0,0,1,.9,54.71,12.1,12.1,0,0,1,0,50.12C0,45.46,2.61,41,6.16,37.39a29.33,29.33,0,0,1,12.07-7.45l.24,0a.7.7,0,0,1,.58.28.89.89,0,0,1,.15.32c4.61-.72,8-2.51,11.82-5.59,2.29-1.85,4.64-4,7.43-5.4a16.39,16.39,0,0,1,7.15-1.88,10.32,10.32,0,0,1,1.41.09,13.14,13.14,0,0,1,5,2.13,9.21,9.21,0,0,0,4.37,1.69h.23a10.51,10.51,0,0,0,4.73-1.71,12.66,12.66,0,0,1,4.93-1.95c.57-.05,1.15-.09,1.73-.09A14,14,0,0,1,75.81,20c3.82,2.62,6.53,6.31,9.47,9.57S91.35,35.69,96,36.74a24.92,24.92,0,0,0,5.48.6c4.78,0,9.35-1.25,14.46-2.19a25.2,25.2,0,0,1,4.54-.55,9.48,9.48,0,0,1,3,.43,5,5,0,0,1,2.35,1.69,12.37,12.37,0,0,1,1.45,2.34c1.72,3.5,3.32,7.29,6.11,9.84,4.89,4.48,11.3,5.91,17.89,6.4a41.82,41.82,0,0,1,4.53.46,10.3,10.3,0,0,1,4.37,1.72,13.73,13.73,0,0,1,4.14,5.81A43.47,43.47,0,0,0,171,73.72c.08.1.23.19.27.29a9.52,9.52,0,0,1,4.46,1.62c1.25,1,2.73,2.48,2.73,4.54l-.39.18c0,.55-.68,1-1.14,1.33a5,5,0,0,0-2.26,3,14.68,14.68,0,0,0-.44,3.56c.23,0,.46,0,.68-.05h.23a1.2,1.2,0,0,1,1,.5,1.63,1.63,0,0,1,.28,1,2,2,0,0,1-.3,1.07,1.43,1.43,0,0,1-1,.69c-.36.06-.7.1-1,.13a9.51,9.51,0,0,1-.78,3.23,6.13,6.13,0,0,1-2.84,2.9A13.82,13.82,0,0,1,164,99.3c-4,0-7.58-1.45-11.86-1.44-.29,0-.57,0-.87,0a40.72,40.72,0,0,0-6.66,1.31,34.55,34.55,0,0,1-7.79,1.23,8.59,8.59,0,0,1-5.6-1.7,9.49,9.49,0,0,1-1.85-1.87,4.85,4.85,0,0,1-.93-2.61,12.68,12.68,0,0,0-.34-2.6,2.69,2.69,0,0,0-.87-1.4c-3-1-5.9-2.08-8.77-3.32a29.1,29.1,0,0,1-4.23-2.49,18.52,18.52,0,0,0-4.07-2.2,12.37,12.37,0,0,1-5-2.88,3.82,3.82,0,0,1-.79-1.27c-.18-.44-.34-.88-.48-1.17a4.59,4.59,0,0,0-1.7-2,4.18,4.18,0,0,0-2.12-.54,11.38,11.38,0,0,0-3.54.75c-2.72.94-5.39,2-8.11,2a8.75,8.75,0,0,1-5.43-1.84c-2-1.49-3-3.72-4.35-5.43a13.28,13.28,0,0,0-2-2.25,3.59,3.59,0,0,0-2.41-.93,5.06,5.06,0,0,0-1.49.25c-.34.1-.78.27-1.25.41a5.42,5.42,0,0,1-1.48.27h-.18A5.64,5.64,0,0,1,67.3,67,3.09,3.09,0,0,1,66,65.5a29.89,29.89,0,0,1-1-4.18,47.87,47.87,0,0,0-2.42-7.06,22,22,0,0,0-3.71-6.2,2.86,2.86,0,0,0-4.09-.56,9.37,9.37,0,0,0-1.85,1.69,50.8,50.8,0,0,0-3.43,4.71,16.34,16.34,0,0,1-2,2.5c-1.77,1.63-4.35,2.44-7,3s-5.37.8-7.4,1.2a1.5,1.5,0,0,1-.38,0,1.53,1.53,0,0,1-1.14-.49,1.74,1.74,0,0,1-.37-1.19ZM175,79.48a.8.8,0,0,0,.17-.45.9.9,0,0,0-.29-.61,5.39,5.39,0,0,0-1.44-1,25.94,25.94,0,0,0-3.27-1.37,1.61,1.61,0,0,1-.39.06,1.36,1.36,0,0,1-.91-.36c-3.06-2.76-5.14-6.54-6.73-10.24a20.54,20.54,0,0,0-2.17-4.19,6.26,6.26,0,0,0-3.65-2.47c-3.89-1-8.12-1.16-12.23-1.85s-8.11-1.91-11.5-5a31.71,31.71,0,0,1-7-10,12.39,12.39,0,0,0-2-3.34,4,4,0,0,0-3.16-1.28,5.59,5.59,0,0,0-.59,0C113.2,37.91,107.28,40,101,40a23.87,23.87,0,0,1-9.22-1.77c-4-1.65-6.72-4.69-9.22-7.75s-4.88-6.13-8.24-8a14.09,14.09,0,0,0-6.57-2,5.76,5.76,0,0,0-3,.74c-1,.59-2,1.51-3.25,2.1a10.59,10.59,0,0,1-2.88.85c5.18,3.42,9.5,7.75,14.4,11.41,2.61,1.95,5.41,4.45,8.37,6.57s6.08,3.88,9.25,4.39a18.79,18.79,0,0,0,3.13.24c3.54,0,7.18-.76,10.82-.76A16.3,16.3,0,0,1,111,47.08a20.14,20.14,0,0,1,6,4.33,33.54,33.54,0,0,0,5.44,4.6c5.83,3.53,12.57,5.29,18.74,8.55,3.93,2.08,6.93,4.93,10,7.94,2.56,2.48,5.81,6.13,9.4,9.3,3.4,3,7.1,5.54,10.73,6.29v-.75a9.71,9.71,0,0,1,1.67-6,6.41,6.41,0,0,1,1-1A4.89,4.89,0,0,0,175,79.48Zm-6.32,15.78a5,5,0,0,0,2.64-3.81c-3.43-.53-6.65-2.4-9.57-4.66a99.62,99.62,0,0,1-8.12-7.43c-3.58-3.46-7.13-8-11.27-10.46-5.83-3.48-12.48-5.34-18.61-8.61-2.85-1.53-5.41-4.14-8-6.47s-5.29-4.35-8.2-4.82a21.2,21.2,0,0,0-3.4-.26c-3.47,0-6.91.69-10.46.7a18.14,18.14,0,0,1-7.11-1.32c-11.9-5-21.08-16.08-30.78-24a11.68,11.68,0,0,1-2-.37,16.35,16.35,0,0,1-4.28-2.18,7.31,7.31,0,0,0-4.1-1.32,8.44,8.44,0,0,0-1.14.08c-4.24.57-7.42,3-10.8,5.71-1.08.87-2.22,1.69-3.36,2.46a14,14,0,0,1,5.86,2.11,12.85,12.85,0,0,1,4.87,6.11,3.89,3.89,0,0,0,1.77,2.12,5.68,5.68,0,0,0,2.78.6A28.63,28.63,0,0,0,52,38.26,28,28,0,0,1,58.54,37h.3a12.5,12.5,0,0,1,8.1,3.48,44.15,44.15,0,0,1,5.67,6.8c1.85,2.53,3.7,4.78,6.44,6.22s5.82,2.78,8.28,5.23a30.51,30.51,0,0,0,4.16,3.74,8.63,8.63,0,0,0,5,1.61h.35c3.5-.11,6.88-1.65,10.62-1.84l.62,0a13.68,13.68,0,0,1,8.38,3,30.41,30.41,0,0,1,6.08,6.6,20.54,20.54,0,0,0,5.23,5.41,15,15,0,0,0,7.08,2.3c2.91.29,6.06.89,8.51,2.87s4.56,4.74,6.85,7.11,4.72,4.34,7.73,4.87a1,1,0,0,1,.67.4,1.07,1.07,0,0,1,.22.66,1.68,1.68,0,0,1-.09.48c.73.14,1.46.28,2.2.38a16.56,16.56,0,0,0,2.25.15A11.42,11.42,0,0,0,168.65,95.26Z"/><path class="cls-1" d="M175.14,79a.8.8,0,0,1-.17.45,4.89,4.89,0,0,1-.89.9,6.41,6.41,0,0,0-1,1,9.71,9.71,0,0,0-1.67,6v.75c-3.63-.75-7.33-3.28-10.73-6.29-3.59-3.17-6.84-6.83-9.4-9.3-3.1-3-6.11-5.86-10-7.94-6.17-3.26-12.91-5-18.74-8.55a33.54,33.54,0,0,1-5.44-4.6,20.14,20.14,0,0,0-6-4.33,16.3,16.3,0,0,0-6.43-1.16c-3.63,0-7.28.76-10.82.76a18.79,18.79,0,0,1-3.13-.24c-3.17-.51-6.28-2.26-9.25-4.39s-5.77-4.62-8.37-6.57c-4.9-3.67-9.22-8-14.4-11.41a10.59,10.59,0,0,0,2.88-.85c1.22-.58,2.23-1.5,3.25-2.1a5.76,5.76,0,0,1,3-.74,14.09,14.09,0,0,1,6.57,2c3.36,1.91,5.73,5,8.24,8s5.17,6.09,9.22,7.75A23.87,23.87,0,0,0,101,40c6.29,0,12.2-2.06,18.78-2.61a5.59,5.59,0,0,1,.59,0,4,4,0,0,1,3.16,1.28,12.39,12.39,0,0,1,2,3.34,31.71,31.71,0,0,0,7,10c3.39,3.11,7.4,4.32,11.5,5s8.34.88,12.23,1.85a6.26,6.26,0,0,1,3.65,2.47,20.54,20.54,0,0,1,2.17,4.19c1.59,3.7,3.67,7.49,6.73,10.24a1.36,1.36,0,0,0,.91.36,1.61,1.61,0,0,0,.39-.06,25.94,25.94,0,0,1,3.27,1.37,5.39,5.39,0,0,1,1.44,1A.9.9,0,0,1,175.14,79Z"/><path class="cls-2" d="M171.29,91.45a5,5,0,0,1-2.64,3.81,11.42,11.42,0,0,1-5.45,1.2,16.56,16.56,0,0,1-2.25-.15c-.74-.1-1.47-.24-2.2-.38a1.68,1.68,0,0,0,.09-.48,1.07,1.07,0,0,0-.22-.66,1,1,0,0,0-.67-.4c-3-.53-5.44-2.5-7.73-4.87s-4.39-5.13-6.85-7.11-5.6-2.57-8.51-2.87a15,15,0,0,1-7.08-2.3,20.54,20.54,0,0,1-5.23-5.41,30.41,30.41,0,0,0-6.08-6.6,13.68,13.68,0,0,0-8.38-3l-.62,0c-3.74.18-7.12,1.73-10.62,1.84h-.35a8.63,8.63,0,0,1-5-1.61,30.51,30.51,0,0,1-4.16-3.74C84.87,56.31,81.92,55,79,53.53s-4.59-3.69-6.44-6.22a44.15,44.15,0,0,0-5.67-6.8A12.5,12.5,0,0,0,58.84,37h-.3A28,28,0,0,0,52,38.26a28.63,28.63,0,0,1-6.64,1.2,5.68,5.68,0,0,1-2.78-.6,3.89,3.89,0,0,1-1.77-2.12,12.85,12.85,0,0,0-4.87-6.11,14,14,0,0,0-5.86-2.11c1.15-.77,2.28-1.59,3.36-2.46,3.38-2.7,6.56-5.14,10.8-5.71a8.44,8.44,0,0,1,1.14-.08,7.31,7.31,0,0,1,4.1,1.32,16.35,16.35,0,0,0,4.28,2.18,11.68,11.68,0,0,0,2,.37c9.69,7.89,18.88,18.94,30.78,24a18.14,18.14,0,0,0,7.11,1.32c3.55,0,7-.7,10.46-.7a21.2,21.2,0,0,1,3.4.26c2.91.48,5.57,2.5,8.2,4.82s5.18,4.94,8,6.47c6.12,3.27,12.78,5.13,18.61,8.61,4.14,2.45,7.69,7,11.27,10.46a99.62,99.62,0,0,0,8.12,7.43C164.64,89.05,167.86,90.92,171.29,91.45Z"/><path class="cls-1" d="M151.77,94.73l-.31,0H151a36.8,36.8,0,0,0-6.78,1.07,36.66,36.66,0,0,1-7.25,1.06,6.27,6.27,0,0,1-3.92-1c-.91-.74-1.49-1.9-1.49-4v-.41c0-.11,0-.22,0-.32a5,5,0,0,0-1.41-3.76,5.26,5.26,0,0,0-3.7-1.25,8.65,8.65,0,0,0-1,.08c-2.4-.91-4.79-1.8-7.1-2.89s-4.44-3-7.06-4.08c-2.46-1-3.7-2.86-5.12-4.59a10.43,10.43,0,0,0-2.46-2.31,6.89,6.89,0,0,0-3.75-1c-.3,0-.62,0-.94,0-2.59.24-5.05,1.48-7.3,2.21A8.7,8.7,0,0,1,89,74a6.34,6.34,0,0,1-4.44-1.85A26,26,0,0,1,81,67.74a16.53,16.53,0,0,0-1.84-2.25,6.12,6.12,0,0,0-2.54-1.67,4,4,0,0,0-1-.11c-1.44,0-3.58.35-5.2.34a4.87,4.87,0,0,1-1.46-.15,1.12,1.12,0,0,1-.35-.17l-.09-.13A83.1,83.1,0,0,0,65.11,52a18.94,18.94,0,0,0-3.19-5.4A8.07,8.07,0,0,0,57,43.77c-.23,0-.44,0-.67,0a6.36,6.36,0,0,0-4.36,2A22.16,22.16,0,0,0,49,49.45a21.49,21.49,0,0,1-2.77,3.6,9.39,9.39,0,0,1-3.92,2.22,53.05,53.05,0,0,1-7.75,1.54c0-.26,0-.51,0-.77a23,23,0,0,0-1.71-9.61,8.85,8.85,0,0,0-7.76-5.3c-.37,0-.74,0-1.1,0-3.8,0-7.65,1.51-11.26,3.54a86.56,86.56,0,0,0-9.16,6.19,7.85,7.85,0,0,1-.1-1.22c0-3.45,2.09-6.95,5-10a47.5,47.5,0,0,1,9.14-7.39,15.42,15.42,0,0,0,1.84.12,16.9,16.9,0,0,0,8-2.15.69.69,0,0,0,.28.08A12.13,12.13,0,0,1,38,37.31c.26.54.48,1.33.8,2.09a4.11,4.11,0,0,0,1.54,2,7.89,7.89,0,0,0,4.27,1.07,27.94,27.94,0,0,0,6.89-1.2,50.74,50.74,0,0,1,6.11-1.49,10.45,10.45,0,0,1,1.15-.06,8.91,8.91,0,0,1,4.62,1.32A22,22,0,0,1,69,46.51c1.7,2.17,3.28,4.49,5,6.31,2.23,2.35,5.25,3.56,7.9,4.91s4.37,3.89,6.77,6a12,12,0,0,0,8.12,2.9,34.82,34.82,0,0,0,7.53-1.11,14.88,14.88,0,0,1,3.23-.38c3.86,0,6.61,1.78,9.14,4.36s4.78,5.91,7.54,8.84c2.34,2.48,5.39,3.44,8.56,3.84a26.16,26.16,0,0,1,6.36,1.42,15.34,15.34,0,0,1,5.28,3.59c1.36,1.35,2.76,3.12,4.31,4.78A23.71,23.71,0,0,0,151.77,94.73Z"/></g></g></svg>