<svg xmlns="http://www.w3.org/2000/svg" viewBox="0 0 359.14 86.52"><defs><style>.cls-1{fill:#7c1414;}.cls-2{fill:#bf2121;}.cls-3{fill:#af1b1b;}.cls-4{fill:#e02727;}.cls-5{fill:#991414;}.cls-6{fill:#bd8989;}.cls-7{fill:#951717;}.cls-8{fill:#ae1d1d;}</style></defs><title>Asset 5</title><g id="Layer_2" data-name="Layer 2"><g id="objects"><path class="cls-1" d="M209.94,19.5h0v-.06l0-.08c8.53-1.39,17.06-1.21,25.6-1.17h0c6.79.78,13.63,1.15,20.42,1.93,4.17.48,8.3,1.15,12.44,1.64,10.8,1.27,21.49,2.74,32.09,5.53q7.23,1.91,14.39,4.09c.92.28,1.86.54,2.79.81l.29.08,0,.16c3.43.51,6.88,2.5,9.85,3.9a87.52,87.52,0,0,1,11.92,6.64,75.21,75.21,0,0,1,11.9,9.28c2.12,2.13,4.67,4.26,6.11,6.89l.08,0,.08.22.06.16a9.45,9.45,0,0,1,.75,2.13.55.55,0,0,1,0,.34,11.07,11.07,0,0,1,.32,4.1,7.55,7.55,0,0,1-.21,1.13,28.71,28.71,0,0,1-2.14,5.59,11.31,11.31,0,0,1-3.55,4.33c-5.24,4.46-11.34,6.14-17.5,6.82s-10.57.56-16.17,1c-16.63,1.29-33.68,2.51-50.25.61-1.6-.18-3.19-.4-4.78-.64-9.41-1.44-18.66-3.72-27.9-5.93-8.71-2.08-17.73-3.23-26.39-6-8.88-2.8-17.28-7.15-25.77-11.07a81.25,81.25,0,0,1-11.3-6,52.57,52.57,0,0,1-4.55-3.76,13.52,13.52,0,0,0-4.65-2.84l-.23-.07-.08-.23c-.25-.73-.49-1.47-.72-2.22v-.12a26.19,26.19,0,0,1,.13-4.3,12.59,12.59,0,0,1,1.73-5.58l-.11-.1.39-.35.38-.35.05,0a3,3,0,0,1,.4-.27c.16-.22.33-.43.5-.63l0,0,0,0c.66-.63,1.32-1.26,2-1.93l0-.05,0,0c3.63-3,8.37-4.49,11.76-5.75a159,159,0,0,1,25.89-7.17l2.47-.41.48-.09c.33-.07.64-.11.94-.16M356.53,68.29a17.16,17.16,0,0,0,.67-2.9,3.81,3.81,0,0,0-.21-2.07,1.28,1.28,0,0,0-.87-.7,5.63,5.63,0,0,1-1.13-.44c-6.06,4.4-12.9,6.42-19.82,7.52s-12.28,1.5-18.77,2.25C298,74.08,280,71.48,261.86,70c-4.52-.37-9-.75-13.57-1.27-4.81-.55-9.59-1.25-14.35-2.25-8.42-1.76-16.57-4.62-24.75-7.3-15.15-5-30-10.4-43.13-21.26a16.74,16.74,0,0,0-1.25,4.77,25,25,0,0,0,0,5c2.86.87,5,2.83,7.41,4.87,3.53,3.06,7.6,5.05,11.64,7,8,3.9,15.85,8.18,24.09,10.95,8.94,3,18.32,4.27,27.52,6.46,8.76,2.09,17.51,4.26,26.36,5.65,2.22.35,4.46.65,6.71.91a231.54,231.54,0,0,0,45.92.13c6.58-.57,11.27-.89,17.8-1.47,6.86-.62,14.32-1.5,20.25-6.7a.81.81,0,0,1,.57-.2,20.91,20.91,0,0,0,3.46-7m-.75-8.75-.35-.75.08,0C353.62,56,351.89,53.22,349,51a107.37,107.37,0,0,0-10.1-7,128.59,128.59,0,0,0-20.61-10.35v.06l-.76-.26c-7.09-2.41-14.54-4-21.66-5.63-9.13-2.13-18.37-3.29-27.65-4.55-7.09-1-14.25-2-21.42-2.86-3.76-.43-7.52-.78-11.29-1a132.12,132.12,0,0,0-25.39,1h0l-1.42.23a143.09,143.09,0,0,0-25.49,7.43c-2.56,1-5.78,1.9-8.86,3.26A19.14,19.14,0,0,0,166.55,37c12.89,10.59,28.38,15.69,43.23,20.53,8.63,2.82,17.16,5.88,26,7.54,4.53.85,9.08,1.49,13.66,2,4.21.48,8.45.86,12.69,1.2,18.05,1.44,36,4.25,54.18,1.9,6.75-.87,12.13-1.23,19.18-2.38s13.92-3.27,20-8.08a.7.7,0,0,1,.35-.15"/><path class="cls-2" d="M357.2,65.39a17.16,17.16,0,0,1-.67,2.9,20.91,20.91,0,0,1-3.46,7,.81.81,0,0,0-.57.2c-5.94,5.2-13.39,6.09-20.25,6.7-6.53.58-11.22.9-17.8,1.47a231.48,231.48,0,0,1-45.92-.13c-2.25-.26-4.49-.56-6.71-.91C253,81.27,244.23,79.1,235.46,77c-9.2-2.19-18.58-3.45-27.52-6.46-8.24-2.77-16.1-7-24.09-10.95-4-2-8.1-4-11.64-7-2.36-2-4.55-4-7.41-4.87a25,25,0,0,1,0-5,16.72,16.72,0,0,1,1.25-4.77c13.17,10.86,28,16.31,43.13,21.26,8.19,2.68,16.33,5.53,24.75,7.3,4.76,1,9.54,1.7,14.35,2.25,4.52.52,9,.89,13.57,1.27,18.1,1.49,36.11,4.08,54.52,2,6.5-.75,11.75-1.14,18.77-2.25s13.76-3.12,19.82-7.52a5.63,5.63,0,0,0,1.13.44,1.28,1.28,0,0,1,.87.7A3.81,3.81,0,0,1,357.2,65.39Z"/><path class="cls-3" d="M355.43,58.79l.35.75a.7.7,0,0,0-.35.15c-6,4.81-12.91,6.94-20,8.08S323,69.28,316.28,70.15c-18.16,2.35-36.13-.45-54.18-1.9-4.24-.33-8.48-.71-12.69-1.2-4.58-.52-9.13-1.17-13.66-2-8.81-1.66-17.34-4.72-26-7.54-14.85-4.85-30.35-9.95-43.23-20.53a19.14,19.14,0,0,1,7.79-5.63c3.08-1.36,6.31-2.28,8.86-3.26a143.09,143.09,0,0,1,25.49-7.43l1.42-.23h0a132.12,132.12,0,0,1,25.39-1c3.77.23,7.53.59,11.29,1,7.18.82,14.33,1.9,21.42,2.86,9.29,1.26,18.52,2.43,27.65,4.55,7.12,1.65,14.58,3.22,21.66,5.63l.76.26v-.06A128.59,128.59,0,0,1,338.9,44,107.37,107.37,0,0,1,349,51c2.9,2.22,4.63,5,6.52,7.81l-.08,0M323.53,57a4,4,0,0,0,.85-2,3.41,3.41,0,0,0-.75-2.45,12.32,12.32,0,0,0-4.75-3.26A63.06,63.06,0,0,0,308.44,46c-3.41-.82-6.34-1.37-7.35-1.65A18.53,18.53,0,0,1,297.49,43a5.45,5.45,0,0,1-1.35-.92,1.53,1.53,0,0,1-.32-.43.59.59,0,0,1-.06-.34,1.11,1.11,0,0,1,.46-.69,6.25,6.25,0,0,1,1.68-1A7.2,7.2,0,0,0,300,38.37a3.56,3.56,0,0,0,1.17-2.18,3.34,3.34,0,0,0,0-1,1.64,1.64,0,0,0-.64-1,5,5,0,0,0-1.77-.78,16.55,16.55,0,0,0-2.14-.37c-1.21-.14-2.33-.18-2.79-.24h-.1c-.86-.13-1.73-.24-2.6-.34-4.36-.5-8.77-.48-13,1.23-1.51.61-2.8,1.36-4,1.91a7,7,0,0,1-3.71.74,7.24,7.24,0,0,1-3-1.13,14,14,0,0,1-2.31-2,11.74,11.74,0,0,0-2.56-2,28.22,28.22,0,0,0-9.92-3.39,17.28,17.28,0,0,0-5.17.16,4.52,4.52,0,0,0-2.92,1.91,19.27,19.27,0,0,1-3.07,3.53,5.38,5.38,0,0,1-4.26.92H237a35.31,35.31,0,0,1-9.15-2.67,57.58,57.58,0,0,0-9.26-3.23c-.59-.12-1.43-.27-2.37-.37a16,16,0,0,0-3.87,0,4.59,4.59,0,0,0-3.15,1.52,3.58,3.58,0,0,0-.82,1.86,6.1,6.1,0,0,0,0,1.3,2.16,2.16,0,0,0,.27.74c.12.19.24.38.26.42a2.1,2.1,0,0,1,.29,1.23,1.21,1.21,0,0,1-.45.83,2.31,2.31,0,0,1-1.28.46,45.18,45.18,0,0,0-8.27,1.4c-2.89.84-5.6,2.17-7,4.49a2.85,2.85,0,0,0-.45,1.21,2.44,2.44,0,0,0,.33,1.5,5.74,5.74,0,0,0,2.3,2c3.08,1.63,8.1,2.57,11.4,2.95.71.08,1.33.13,1.83.16a8.32,8.32,0,0,0,1.18,0c5.59-.58,10.11-3.47,15.13-5.32a39.24,39.24,0,0,1,14.4-2v0l.06.6.64-.07a22.42,22.42,0,0,1,4.55.11l.44,0a15.06,15.06,0,0,1,2.55.5,3.7,3.7,0,0,1,1,.45.74.74,0,0,1,.2.19l0,.11a.78.78,0,0,1-.26.38,4.39,4.39,0,0,1-1,.72c-2.54,1.39-5.44,2.22-8.06,3.84a10.49,10.49,0,0,0-2.37,1.91,3.6,3.6,0,0,0-.93,1.9,2.48,2.48,0,0,0,.48,1.76,6.19,6.19,0,0,0,2.58,1.88,18.73,18.73,0,0,0,3.95,1.18c3.22.63,6.56,1.21,9.94,1.6a53.31,53.31,0,0,0,17.25-.46,11,11,0,0,0,4-1.72,4.71,4.71,0,0,0,2.16-3.08,3.06,3.06,0,0,0-.53-2,6.57,6.57,0,0,0-2.1-1.9c-.64-.38-1.27-.7-1.87-1l1.62-2.29a11.14,11.14,0,0,1,2.62-.14h0c1.32.15,2.65,0,3.94.19a21.12,21.12,0,0,1,4.78,1.09,7.08,7.08,0,0,1,3.49,2.94c.89,1.3,1.62,2.81,2.66,4.17,1.45,1.88,3.91,2.83,5.88,3.55A26,26,0,0,0,302,60.4c2.66.29,5.36.37,7.87.57,3.66.3,8.21.25,11.49-2.05a9.73,9.73,0,0,0,2.14-2M277.62,32.65a1,1,0,0,0,.08-.29.84.84,0,0,0-.09-.5.48.48,0,0,0-.38-.31h-.12a3.76,3.76,0,0,0-2,.71c-.71.49-1.28,1.15-1.94,1.53a.41.41,0,0,0-.18.29l0,.27.21.21,0,.14c.62.07,1.16-.39,1.63-.65a2.92,2.92,0,0,0,2.72-1.39m-4.51-1a.69.69,0,0,0-.1-.47.75.75,0,0,0-.43-.33h0l-.14,0a1.1,1.1,0,0,0-.86.35,4.43,4.43,0,0,0-.53.61,8,8,0,0,0-.62,1l0,.09,0,0-.17.08.06.2a.76.76,0,0,1-.14.2.53.53,0,0,0-.16.32A.54.54,0,0,0,270,34a.42.42,0,0,0,.31.19.46.46,0,0,0,.35-.12,3.63,3.63,0,0,0,.65-.89l.14-.21a4,4,0,0,0,1.27-.63,1.11,1.11,0,0,0,.4-.73"/><path class="cls-1" d="M324.38,55a4,4,0,0,1-.85,2,9.73,9.73,0,0,1-2.14,2c-3.28,2.31-7.83,2.35-11.49,2.05-2.52-.2-5.22-.28-7.87-.57A26,26,0,0,1,296,59.07c-2-.72-4.43-1.67-5.88-3.55-1-1.36-1.77-2.87-2.66-4.17a7.08,7.08,0,0,0-3.49-2.94,21.12,21.12,0,0,0-4.78-1.09c-1.29-.15-2.62,0-3.94-.19h0a11.14,11.14,0,0,0-2.62.14L271,49.57c.6.34,1.22.66,1.87,1a6.57,6.57,0,0,1,2.1,1.9,3.06,3.06,0,0,1,.53,2,4.71,4.71,0,0,1-2.16,3.08,11,11,0,0,1-4,1.72,53.31,53.31,0,0,1-17.25.46c-3.38-.39-6.72-1-9.94-1.6a18.73,18.73,0,0,1-3.95-1.18,6.19,6.19,0,0,1-2.58-1.88,2.48,2.48,0,0,1-.48-1.76,3.6,3.6,0,0,1,.93-1.9,10.49,10.49,0,0,1,2.37-1.91c2.61-1.62,5.52-2.44,8.06-3.84a4.39,4.39,0,0,0,1-.72.78.78,0,0,0,.26-.37l0-.11a.74.74,0,0,0-.2-.19,3.7,3.7,0,0,0-1-.45,15.06,15.06,0,0,0-2.55-.5l-.44,0a22.42,22.42,0,0,0-4.55-.11l-.64.07-.06-.6v0a39.24,39.24,0,0,0-14.4,2c-5,1.85-9.54,4.74-15.13,5.32a8.32,8.32,0,0,1-1.18,0c-.5,0-1.13-.08-1.83-.16-3.29-.38-8.32-1.32-11.4-2.95a5.74,5.74,0,0,1-2.3-2,2.44,2.44,0,0,1-.33-1.5,2.85,2.85,0,0,1,.45-1.21c1.45-2.32,4.16-3.65,7-4.49a45.18,45.18,0,0,1,8.27-1.4,2.31,2.31,0,0,0,1.28-.46,1.21,1.21,0,0,0,.45-.83,2.1,2.1,0,0,0-.29-1.23s-.14-.23-.26-.42a2.16,2.16,0,0,1-.27-.74,6.1,6.1,0,0,1,0-1.3,3.58,3.58,0,0,1,.82-1.86A4.59,4.59,0,0,1,212.38,28a16,16,0,0,1,3.87,0c.95.11,1.79.25,2.37.37a57.58,57.58,0,0,1,9.26,3.23A35.31,35.31,0,0,0,237,34.31h.07a5.38,5.38,0,0,0,4.26-.92,19.27,19.27,0,0,0,3.07-3.53,4.52,4.52,0,0,1,2.92-1.91,17.28,17.28,0,0,1,5.17-.16,28.22,28.22,0,0,1,9.92,3.39,11.74,11.74,0,0,1,2.56,2,14,14,0,0,0,2.31,2,7.24,7.24,0,0,0,3,1.13,7,7,0,0,0,3.71-.74c1.25-.54,2.54-1.3,4-1.91,4.24-1.72,8.64-1.73,13-1.23.87.1,1.74.22,2.6.34h.1c.46.06,1.59.11,2.79.24a16.55,16.55,0,0,1,2.14.37,5,5,0,0,1,1.77.78,1.64,1.64,0,0,1,.64,1,3.34,3.34,0,0,1,0,1A3.56,3.56,0,0,1,300,38.37a7.2,7.2,0,0,1-2.11,1.31,6.25,6.25,0,0,0-1.68,1,1.11,1.11,0,0,0-.46.69.59.59,0,0,0,.06.34,1.53,1.53,0,0,0,.32.43,5.45,5.45,0,0,0,1.35.92,18.53,18.53,0,0,0,3.59,1.32c1,.28,3.94.83,7.35,1.65a63.06,63.06,0,0,1,10.45,3.31,12.32,12.32,0,0,1,4.75,3.26,3.41,3.41,0,0,1,.75,2.45m-1.46.25a2.61,2.61,0,0,0-.66-1.86c-1.7-2.27-5-3.64-8.54-4.56s-7.37-1.42-10.14-2.1c-.37-.1-1.56-.38-3-.81a23,23,0,0,1-4.33-1.73,5.59,5.59,0,0,1-2-1.68,2,2,0,0,1-.33-1.3,2.2,2.2,0,0,1,.52-1.14,4.85,4.85,0,0,1,2.29-1.36,6,6,0,0,0,2-1A3.1,3.1,0,0,0,300,36.1a.75.75,0,0,0-.05-.34,1,1,0,0,0-.26-.31,3.49,3.49,0,0,0-1.12-.57,13.57,13.57,0,0,0-2.41-.47c-1.35-.21-2.69-.43-4-.6l-1.51-.17a26,26,0,0,0-8.23,0c-3,.62-5.24,2.6-8.3,3.59a8.32,8.32,0,0,1-3.51.4A8.42,8.42,0,0,1,267,36.3a32,32,0,0,1-3.29-2.52,22.35,22.35,0,0,0-10.75-4.64,10.14,10.14,0,0,0-5,.52A6.37,6.37,0,0,0,244.55,33a4.41,4.41,0,0,1-3,2.43,10.58,10.58,0,0,1-3.85.14c-.69-.08-1.33-.19-1.91-.29-6.1-1.07-11.59-4.16-17.52-5l-.33,0a16.78,16.78,0,0,0-5.76.24,2.54,2.54,0,0,0-1.2.68,1,1,0,0,0-.22.51,3.18,3.18,0,0,0,1,2.12,5.4,5.4,0,0,1,.47.66,1.74,1.74,0,0,1,.24,1,1.25,1.25,0,0,1-.13.44,3.72,3.72,0,0,1-1.37,1.49,4.8,4.8,0,0,1-1.74.6c-1.21.19-2.47.11-3.59.29-3.6.55-8.3,1.4-11,3.72a2,2,0,0,0-.81,1.22,1.07,1.07,0,0,0,.12.63,2.45,2.45,0,0,0,.5.69,8.36,8.36,0,0,0,1.93,1.31,24.75,24.75,0,0,0,4.12,1.59,29.27,29.27,0,0,0,4.7,1,17.06,17.06,0,0,0,6.34-.34c6-1.62,11.35-5.44,17.89-6.48,5.78-.91,11.94-.38,17.51.22l0,.18h-.19l.19,0v0c.15,0,.3,0,.39.12s.17.19.15.36l0,.1A3.49,3.49,0,0,1,249.33,44a1.26,1.26,0,0,1,.16.8,2,2,0,0,1-.62,1.16,6.28,6.28,0,0,1-1.16.95A22,22,0,0,1,245,48.39l-1.14.51c-.38.19-1.46.68-2.67,1.34a19.18,19.18,0,0,0-3.42,2.24,2.5,2.5,0,0,0-.94,1.29.45.45,0,0,0,.05.28,1.08,1.08,0,0,0,.35.34c2.37,1.52,5.52,2.2,8.71,2.57,2.34.27,4.7.37,6.79.54,5.94.5,12.15,1.32,17.75-.78a7.79,7.79,0,0,0,2-1c.39-.31.5-.54.52-.72a1,1,0,0,0-.24-.66,6.28,6.28,0,0,0-.91-.9c-.79-.64-1.83-1.33-2.7-2.09a5.09,5.09,0,0,1-1.36-1.69,2.31,2.31,0,0,1-.19-1.18,2.85,2.85,0,0,1,.82-1.6A8,8,0,0,1,273,44.74a20.06,20.06,0,0,1,5.64-.09,20.91,20.91,0,0,1,4.72,1.06,12,12,0,0,1,4.27,2.52,18.75,18.75,0,0,1,2.93,3.87A11.34,11.34,0,0,0,296,56.59a27.8,27.8,0,0,0,7.23,1.68c1.63.2,3.28.42,4.92.61,1.8.21,3.61.37,5.39.39a17.61,17.61,0,0,0,3.93-.54,12.49,12.49,0,0,0,4.28-1.78,2.59,2.59,0,0,0,1.18-1.71"/><path class="cls-4" d="M322.26,53.38a2.22,2.22,0,0,1-.52,3.57,12.49,12.49,0,0,1-4.28,1.78,17.61,17.61,0,0,1-3.93.54c-1.78,0-3.59-.18-5.39-.39-1.63-.19-3.28-.41-4.92-.61A27.8,27.8,0,0,1,296,56.59a11.34,11.34,0,0,1-5.49-4.48,18.75,18.75,0,0,0-2.93-3.87,12,12,0,0,0-4.27-2.52,20.91,20.91,0,0,0-4.72-1.06,20.06,20.06,0,0,0-5.64.09,8,8,0,0,0-4.55,2.14,2.85,2.85,0,0,0-.82,1.6,2.31,2.31,0,0,0,.19,1.18,5.09,5.09,0,0,0,1.36,1.69c.86.76,1.9,1.44,2.7,2.09a6.28,6.28,0,0,1,.91.9A1,1,0,0,1,273,55c0,.18-.13.41-.52.72a7.79,7.79,0,0,1-2,1c-5.6,2.11-11.81,1.28-17.75.78-2.1-.17-4.45-.27-6.79-.54-3.19-.36-6.34-1-8.71-2.57a1.08,1.08,0,0,1-.35-.34.45.45,0,0,1-.05-.28,2.5,2.5,0,0,1,.94-1.29,19.18,19.18,0,0,1,3.42-2.24c1.21-.66,2.29-1.15,2.67-1.34l1.14-.51a22,22,0,0,0,2.72-1.46,6.28,6.28,0,0,0,1.16-.95,2,2,0,0,0,.62-1.16,1.26,1.26,0,0,0-.16-.8,3.49,3.49,0,0,0-1.94-1.45l0-.1c0-.17,0-.17-.15-.36S247,42,246.87,42l0-.18c-5.57-.6-11.73-1.12-17.51-.22-6.54,1-11.86,4.86-17.89,6.48a17.06,17.06,0,0,1-6.34.34,29.27,29.27,0,0,1-4.7-1,24.75,24.75,0,0,1-4.12-1.59,8.36,8.36,0,0,1-1.93-1.31,2.45,2.45,0,0,1-.5-.69,1.07,1.07,0,0,1-.12-.62,2,2,0,0,1,.81-1.22c2.69-2.32,7.4-3.17,11-3.72,1.12-.18,2.38-.1,3.59-.29a4.8,4.8,0,0,0,1.74-.6,3.72,3.72,0,0,0,1.37-1.49,1.25,1.25,0,0,0,.13-.44,1.74,1.74,0,0,0-.24-1,5.4,5.4,0,0,0-.47-.66,3.18,3.18,0,0,1-1-2.12,1,1,0,0,1,.22-.51,2.54,2.54,0,0,1,1.2-.68,16.78,16.78,0,0,1,5.76-.24l.33,0c5.93.82,11.42,3.9,17.52,5,.58.1,1.23.22,1.91.29a10.58,10.58,0,0,0,3.85-.14,4.41,4.41,0,0,0,3-2.43A6.37,6.37,0,0,1,248,29.66a10.14,10.14,0,0,1,5-.52,22.35,22.35,0,0,1,10.75,4.64A32,32,0,0,0,267,36.3a8.42,8.42,0,0,0,3.58,1.35,8.32,8.32,0,0,0,3.51-.4c3.06-1,5.29-3,8.3-3.59a26,26,0,0,1,8.23,0l1.51.17c1.34.17,2.68.39,4,.6a13.57,13.57,0,0,1,2.41.47,3.49,3.49,0,0,1,1.12.57,1,1,0,0,1,.26.31.75.75,0,0,1,.05.34,3.1,3.1,0,0,1-1.19,1.64,6,6,0,0,1-2,1,4.85,4.85,0,0,0-2.29,1.36,2.2,2.2,0,0,0-.52,1.14,2,2,0,0,0,.33,1.3,5.59,5.59,0,0,0,2,1.68,23,23,0,0,0,4.33,1.73c1.4.43,2.58.71,3,.81,2.77.68,6.58,1.18,10.14,2.1s6.85,2.29,8.54,4.56"/><path class="cls-1" d="M277.7,32.36a1,1,0,0,1-.08.29A2.92,2.92,0,0,1,274.91,34c-.47.26-1,.72-1.63.65l0-.14-.21-.21,0-.27a.41.41,0,0,1,.18-.29c.66-.38,1.23-1,1.94-1.53a3.76,3.76,0,0,1,2-.71h.12a.48.48,0,0,1,.38.31.84.84,0,0,1,.09.5"/><path class="cls-1" d="M273,31.17a.69.69,0,0,1,.1.47,1.11,1.11,0,0,1-.4.73,4,4,0,0,1-1.27.63l-.14.21a3.63,3.63,0,0,1-.65.89.46.46,0,0,1-.35.12A.42.42,0,0,1,270,34a.54.54,0,0,1-.07-.33.53.53,0,0,1,.16-.32.76.76,0,0,0,.14-.2l-.06-.2.17-.08,0,0,0-.09a8,8,0,0,1,.62-1,4.43,4.43,0,0,1,.53-.61,1.1,1.1,0,0,1,.86-.35l.14,0h0a.75.75,0,0,1,.43.33"/><polygon class="cls-5" points="246.87 42 246.87 42.02 246.68 41.99 246.87 42"/><path class="cls-1" d="M42,19.51h0v-.16c8.41-4,17.3-6.41,26.17-9h0C75.49,9.12,82.7,7.44,90,6.19c4.46-.77,8.95-1.32,13.39-2.07,11.57-1.95,23.09-3.66,34.92-4q8.07-.21,16.15-.12c1,0,2.09,0,3.14,0h.33l.07.16c3.71-.51,7.88.51,11.39,1.06a94.46,94.46,0,0,1,14.35,3.27,81.18,81.18,0,0,1,15.13,6c2.84,1.57,6.12,3,8.41,5.29h.09l.15.2.11.15a10.2,10.2,0,0,1,1.42,2,.59.59,0,0,1,.05.37,11.9,11.9,0,0,1,1.57,4.15,8,8,0,0,1,.12,1.24,31,31,0,0,1-.53,6.44,12.2,12.2,0,0,1-2.37,5.56c-4.08,6.21-9.89,9.79-16.07,12.36S181,52,175.34,54.16C158.5,60.53,141.2,66.95,123.47,70c-1.71.29-3.43.55-5.14.78-10.18,1.35-20.45,1.79-30.7,2.3-9.65.48-19.35,2-29.15,1.81-10-.22-20.06-2.18-30-3.67A87.67,87.67,0,0,1,14.9,68.38,56.42,56.42,0,0,1,9,65.86a14.61,14.61,0,0,0-5.68-1.54H3.11L3,64.1c-.48-.69-1-1.37-1.42-2.08l0,0,0-.07a28.28,28.28,0,0,1-1.16-4.5,13.6,13.6,0,0,1,.1-6.3L.27,51l.3-.48.29-.48.07,0a3.14,3.14,0,0,1,.33-.4c.1-.27.21-.55.32-.8v0l0,0c.5-.85,1-1.7,1.44-2.59l0-.07,0-.06C6,41.94,10.41,39,13.55,36.63A171.57,171.57,0,0,1,38.2,21.37c.82-.41,1.63-.79,2.44-1.18l.47-.23c.32-.17.63-.3.93-.45m166.62,6.21a18.51,18.51,0,0,0-.18-3.2,4.12,4.12,0,0,0-.85-2.08,1.39,1.39,0,0,0-1.11-.46,6.12,6.12,0,0,1-1.31-.11c-4.95,6.4-11.42,10.56-18.26,13.79s-12.26,5.27-18.77,8c-18.43,7.76-37.88,10.52-57.08,14.46-4.79,1-9.6,2-14.44,2.79-5.15.88-10.31,1.61-15.54,2-9.26.72-18.56.22-27.85-.07-17.19-.55-34.18-1.71-51.12-9a18,18,0,0,0,.15,5.32,26.94,26.94,0,0,0,1.51,5.22C7,62.45,9.9,63.82,13,65.21c4.59,2.1,9.41,2.94,14.18,3.75C36.6,70.59,46,72.64,55.41,73c10.17.41,20.27-1.12,30.46-1.64,9.71-.48,19.43-.89,29-2.12,2.4-.31,4.82-.67,7.22-1.09,16.18-2.78,32.24-7.79,47.62-13.75,6.65-2.59,11.41-4.34,18-6.91,6.92-2.71,14.37-5.89,19-13.07a.88.88,0,0,1,.53-.38,22.59,22.59,0,0,0,1.45-8.33m-3.42-8.83-.59-.68h.09c-2.8-2.31-5.44-4.69-9.11-6.12a115.78,115.78,0,0,0-12.58-4.18,138.81,138.81,0,0,0-24.48-4.49l0,.06-.87,0c-8.07-.35-16.27.28-24.14.72-10.1.56-20,2.14-30,3.65C95.93,7,88.19,8,80.51,9.33c-4,.69-8,1.46-12,2.36a142.5,142.5,0,0,0-26,8.73h0l-1.4.67A154.47,154.47,0,0,0,16.94,36.51c-2.35,1.79-5.42,3.71-8.2,6.05a20.65,20.65,0,0,0-6.37,8.19c16.55,7.07,34.15,7.66,51,8.19,9.79.31,19.55.9,29.18,0,4.95-.49,9.86-1.2,14.76-2,4.51-.78,9-1.66,13.51-2.6,19.14-4,38.6-6.49,56.71-14.43,6.73-2.94,12.2-4.94,19.15-8.27s13.44-7.6,18.24-14.41a.75.75,0,0,1,.31-.26"/><path class="cls-2" d="M208.48,22.52a18.51,18.51,0,0,1,.18,3.2,22.59,22.59,0,0,1-1.45,8.33.88.88,0,0,0-.53.38c-4.58,7.18-12,10.36-19,13.07-6.59,2.58-11.35,4.33-18,6.91-15.37,6-31.44,11-47.62,13.75-2.4.41-4.82.78-7.22,1.09-9.59,1.24-19.31,1.64-29,2.13-10.19.52-20.3,2-30.46,1.64C46,72.64,36.6,70.59,27.14,69c-4.77-.82-9.59-1.65-14.18-3.75C9.9,63.82,7,62.45,3.81,62.41A26.94,26.94,0,0,1,2.3,57.18a18,18,0,0,1-.15-5.32c16.93,7.27,33.92,8.43,51.12,9,9.29.29,18.59.79,27.85.07,5.23-.4,10.4-1.12,15.54-2,4.84-.83,9.64-1.81,14.44-2.79,19.2-3.94,38.65-6.7,57.08-14.46,6.51-2.75,11.83-4.74,18.77-8s13.31-7.39,18.26-13.79a6.12,6.12,0,0,0,1.31.11,1.39,1.39,0,0,1,1.11.46,4.12,4.12,0,0,1,.85,2.08"/><path class="cls-3" d="M204.65,16.21l.59.68a.75.75,0,0,0-.31.26c-4.8,6.81-11.27,11.1-18.24,14.41s-12.43,5.33-19.15,8.27C149.42,47.75,130,50.28,110.82,54.25c-4.49.94-9,1.82-13.51,2.6-4.9.84-9.81,1.55-14.76,2-9.63.95-19.39.36-29.18,0-16.85-.53-34.45-1.13-51-8.19a20.65,20.65,0,0,1,6.37-8.19c2.78-2.34,5.84-4.27,8.2-6.05A154.47,154.47,0,0,1,41.09,21.1l1.4-.67h0a142.5,142.5,0,0,1,26-8.73c4-.9,8-1.67,12-2.36C88.19,8,95.93,7,103.57,5.81c10-1.51,19.92-3.09,30-3.65,7.87-.44,16.07-1.08,24.14-.72l.87,0,0-.06a138.81,138.81,0,0,1,24.48,4.49,115.78,115.78,0,0,1,12.58,4.18c3.67,1.42,6.31,3.81,9.11,6.12h-.09M171,24a4.28,4.28,0,0,0,.29-2.29,3.68,3.68,0,0,0-1.51-2.31,13.31,13.31,0,0,0-5.91-1.94,68.12,68.12,0,0,0-11.82-.27c-3.79.18-7,.5-8.12.52a20,20,0,0,1-4.12-.28,5.9,5.9,0,0,1-1.68-.54,1.65,1.65,0,0,1-.46-.35.66.66,0,0,1-.17-.33,1.21,1.21,0,0,1,.26-.85,6.75,6.75,0,0,1,1.45-1.5,7.75,7.75,0,0,0,1.78-2,3.84,3.84,0,0,0,.55-2.61,3.64,3.64,0,0,0-.37-1.06,1.77,1.77,0,0,0-1-.83A5.4,5.4,0,0,0,138.2,7a17.82,17.82,0,0,0-2.33.27c-1.29.22-2.47.52-3,.59l-.11,0c-.93.13-1.87.27-2.8.43-4.67.8-9.23,2.15-13.1,5.21-1.38,1.09-2.49,2.26-3.61,3.2a7.53,7.53,0,0,1-3.62,1.89,7.81,7.81,0,0,1-3.44-.27,15,15,0,0,1-3-1.34A12.68,12.68,0,0,0,100,15.73a30.45,30.45,0,0,0-11.3-.51A18.64,18.64,0,0,0,83.35,17a4.87,4.87,0,0,0-2.44,2.87,20.86,20.86,0,0,1-2.11,4.59,5.8,5.8,0,0,1-4.14,2.25h-.08a38.1,38.1,0,0,1-10.28,0,62.14,62.14,0,0,0-10.57-.55c-.65,0-1.56.16-2.57.33a17.32,17.32,0,0,0-4,1.15,5,5,0,0,0-2.81,2.53A3.86,3.86,0,0,0,44,32.3a6.58,6.58,0,0,0,.41,1.34,2.32,2.32,0,0,0,.51.68l.4.36A2.27,2.27,0,0,1,46,35.87a1.31,1.31,0,0,1-.22,1,2.5,2.5,0,0,1-1.19.86,48.7,48.7,0,0,0-8.15,3.95c-2.74,1.74-5.14,3.94-5.94,6.78a3.07,3.07,0,0,0-.1,1.39,2.63,2.63,0,0,0,.79,1.45,6.19,6.19,0,0,0,3,1.34c3.68.76,9.17.21,12.7-.39.75-.13,1.42-.26,1.95-.39a9.12,9.12,0,0,0,1.23-.35c5.61-2.3,9.42-6.65,14.06-10.09A42.36,42.36,0,0,1,78.46,35v0l.25.6.64-.26a24.17,24.17,0,0,1,4.74-1.27l.47-.08a16.24,16.24,0,0,1,2.79-.25,4,4,0,0,1,1.17.17.8.8,0,0,1,.27.14l.07.1a.85.85,0,0,1-.16.47,4.73,4.73,0,0,1-.84,1.06c-2.21,2.21-5,3.94-7.18,6.41a11.32,11.32,0,0,0-1.88,2.7A3.88,3.88,0,0,0,78.41,47a2.68,2.68,0,0,0,1,1.68,6.69,6.69,0,0,0,3.24,1.17,20.23,20.23,0,0,0,4.44,0c3.53-.32,7.16-.73,10.78-1.35a57.57,57.57,0,0,0,17.73-5.7,11.88,11.88,0,0,0,3.59-3,5.09,5.09,0,0,0,1.3-3.85,3.3,3.3,0,0,0-1.17-2,7.08,7.08,0,0,0-2.75-1.34c-.78-.2-1.52-.34-2.25-.51l1-2.86A12,12,0,0,1,118,28.4h0c1.41-.24,2.75-.76,4.14-1a22.76,22.76,0,0,1,5.29-.32,7.63,7.63,0,0,1,4.51,2c1.31,1.07,2.52,2.42,4,3.52,2.07,1.51,4.9,1.75,7.16,1.9a28.15,28.15,0,0,0,6.67-.45c2.84-.5,5.66-1.24,8.33-1.79,3.88-.8,8.58-2.22,11.28-5.6A10.52,10.52,0,0,0,171,24m-42.13,12.8.12,0a4.45,4.45,0,0,0-.46-1.56l0,0c-.1-.22-.2-.5-.35-.76a1.63,1.63,0,0,0-.63-.68l-.25,0a.46.46,0,0,0-.3.22.54.54,0,0,0-.09.29v0a1.49,1.49,0,0,0-1-.49h-.1a.56.56,0,0,0-.35.22.52.52,0,0,0-.09.39l.09.21a10.18,10.18,0,0,1,.76,2.12,1.53,1.53,0,0,0,.75.86,1.6,1.6,0,0,0,1,.1,5.24,5.24,0,0,0,.66-.17c.18-.05.19-.14.27-.29s0-.25,0-.38M76.64,45.56a.42.42,0,0,0-.26-.33l-.07-.11A.43.43,0,0,0,76,45a.5.5,0,0,0-.24.12,9.17,9.17,0,0,1-1.85,1,3.56,3.56,0,0,0-1,.65,1.85,1.85,0,0,0-.54,1.08v.18a.48.48,0,0,0,.29.36,2.41,2.41,0,0,0,1.28.16A2.48,2.48,0,0,0,75.09,48a5.54,5.54,0,0,0,1-1,2.78,2.78,0,0,0,.6-1.3v-.14m-3-4.12a.48.48,0,0,0-.18-.31.53.53,0,0,0-.38-.11q-.42,0-.84.11a15.22,15.22,0,0,0-2.8.8,6.85,6.85,0,0,0-.88.37,1.76,1.76,0,0,0-.74.76,1.84,1.84,0,0,0-.16,1.1,1.35,1.35,0,0,0,.32.68,1.05,1.05,0,0,0,.74.33H69a1.14,1.14,0,0,0,.86-.72,2.19,2.19,0,0,0,.12-.56l0,0h0a1.05,1.05,0,0,1,.42-.29c.2-.09.43-.16.64-.23.36-.15.86-.29,1.33-.49a2.53,2.53,0,0,0,1.21-1,.65.65,0,0,0,.09-.44"/><path class="cls-1" d="M171.34,21.67A4.28,4.28,0,0,1,171,24a10.52,10.52,0,0,1-1.63,2.68c-2.7,3.38-7.4,4.8-11.28,5.6-2.67.55-5.49,1.29-8.33,1.79a28.15,28.15,0,0,1-6.67.45c-2.26-.15-5.09-.39-7.16-1.9-1.49-1.09-2.7-2.44-4-3.52a7.63,7.63,0,0,0-4.51-2,22.76,22.76,0,0,0-5.29.32c-1.38.24-2.72.75-4.14,1h0a12,12,0,0,0-2.67.94l-1,2.86c.73.17,1.47.31,2.25.51a7.08,7.08,0,0,1,2.75,1.34,3.3,3.3,0,0,1,1.17,2,5.09,5.09,0,0,1-1.3,3.85,11.88,11.88,0,0,1-3.59,3,57.57,57.57,0,0,1-17.73,5.7c-3.62.62-7.25,1-10.78,1.35a20.23,20.23,0,0,1-4.44,0,6.69,6.69,0,0,1-3.24-1.17,2.68,2.68,0,0,1-1-1.68,3.88,3.88,0,0,1,.39-2.25,11.32,11.32,0,0,1,1.88-2.7c2.22-2.47,5-4.2,7.18-6.41a4.73,4.73,0,0,0,.84-1.06.85.85,0,0,0,.16-.47L88.8,34a.8.8,0,0,0-.27-.14,4,4,0,0,0-1.17-.17,16.24,16.24,0,0,0-2.79.25l-.47.08a24.17,24.17,0,0,0-4.74,1.27l-.64.26-.25-.6v0a42.36,42.36,0,0,0-14.31,6.44c-4.64,3.44-8.45,7.8-14.06,10.09a9.12,9.12,0,0,1-1.23.35c-.53.12-1.19.26-1.95.39-3.53.61-9,1.15-12.7.39a6.19,6.19,0,0,1-3-1.34,2.63,2.63,0,0,1-.79-1.45,3.07,3.07,0,0,1,.1-1.39c.8-2.84,3.21-5,5.94-6.78a48.7,48.7,0,0,1,8.15-3.95,2.5,2.5,0,0,0,1.19-.86,1.31,1.31,0,0,0,.22-1,2.27,2.27,0,0,0-.67-1.18l-.4-.36a2.32,2.32,0,0,1-.51-.68A6.58,6.58,0,0,1,44,32.3a3.86,3.86,0,0,1,.29-2.18,5,5,0,0,1,2.81-2.53,17.32,17.32,0,0,1,4-1.15c1-.17,1.93-.28,2.57-.33a62.14,62.14,0,0,1,10.57.55,38.1,38.1,0,0,0,10.28,0h.08a5.8,5.8,0,0,0,4.14-2.25,20.86,20.86,0,0,0,2.11-4.59A4.87,4.87,0,0,1,83.35,17a18.64,18.64,0,0,1,5.31-1.73,30.45,30.45,0,0,1,11.3.51,12.68,12.68,0,0,1,3.27,1.32,15,15,0,0,0,3,1.34,7.81,7.81,0,0,0,3.44.27,7.53,7.53,0,0,0,3.62-1.89c1.13-.94,2.24-2.11,3.61-3.2,3.87-3.06,8.43-4.41,13.1-5.21.93-.16,1.87-.3,2.8-.43l.11,0c.5-.08,1.68-.37,3-.59A17.82,17.82,0,0,1,138.2,7a5.4,5.4,0,0,1,2.07.27,1.77,1.77,0,0,1,1,.83,3.64,3.64,0,0,1,.37,1.06,3.84,3.84,0,0,1-.55,2.61,7.75,7.75,0,0,1-1.78,2,6.75,6.75,0,0,0-1.45,1.5,1.21,1.21,0,0,0-.26.85.66.66,0,0,0,.17.33,1.65,1.65,0,0,0,.46.35,5.9,5.9,0,0,0,1.68.54,20,20,0,0,0,4.12.28c1.13,0,4.33-.34,8.12-.52a68.12,68.12,0,0,1,11.82.27,13.31,13.31,0,0,1,5.91,1.94,3.68,3.68,0,0,1,1.51,2.31m-1.44.7a2.81,2.81,0,0,0-1.25-1.73c-2.44-1.84-6.25-2.27-10.23-2.14s-8.06.76-11.14.89c-.42,0-1.73.08-3.31.06a24.86,24.86,0,0,1-5-.48,6,6,0,0,1-2.62-1.13,2.14,2.14,0,0,1-.74-1.24,2.38,2.38,0,0,1,.19-1.34,5.22,5.22,0,0,1,2-2.1,6.42,6.42,0,0,0,1.82-1.61,3.35,3.35,0,0,0,.74-2.06.8.8,0,0,0-.16-.34,1.13,1.13,0,0,0-.36-.25,3.78,3.78,0,0,0-1.33-.25,14.64,14.64,0,0,0-2.64.24c-1.46.19-2.91.37-4.36.6l-1.62.28a28.11,28.11,0,0,0-8.52,2.52c-2.93,1.56-4.65,4.28-7.51,6.23A9,9,0,0,1,110.31,20a9.09,9.09,0,0,1-4.12-.32A34.46,34.46,0,0,1,102,18.06,24.12,24.12,0,0,0,89.48,16.5a11,11,0,0,0-5,2A6.87,6.87,0,0,0,82,23a4.76,4.76,0,0,1-2.38,3.43,11.45,11.45,0,0,1-3.95,1.31c-.74.13-1.44.21-2.07.27a58.07,58.07,0,0,1-9.48,0,51.11,51.11,0,0,0-10.18.13l-.36.05a18.11,18.11,0,0,0-5.9,2,2.74,2.74,0,0,0-1,1.07,1,1,0,0,0-.07.6c.07.45.51,1.12,1.65,1.91a5.78,5.78,0,0,1,.69.55,1.87,1.87,0,0,1,.55,1,1.37,1.37,0,0,1,0,.49,4,4,0,0,1-1,2,5.16,5.16,0,0,1-1.62,1.15c-1.19.56-2.52.86-3.63,1.39-3.56,1.66-8.18,4-10.27,7.18A2.19,2.19,0,0,0,32.47,49a1.16,1.16,0,0,0,.31.61,2.66,2.66,0,0,0,.72.56,9,9,0,0,0,2.39.77,26.72,26.72,0,0,0,4.75.4,31.6,31.6,0,0,0,5.17-.4,18.41,18.41,0,0,0,6.46-2.27C58,45.16,62.4,39.61,68.86,36.54c5.72-2.69,12.25-4,18.21-5.08l0,.19-.2.05.2,0v0c.16,0,.31-.1.44,0s.23.14.26.32v.11a3.77,3.77,0,0,1,2.45.92,1.36,1.36,0,0,1,.41.78,2.18,2.18,0,0,1-.29,1.39,6.76,6.76,0,0,1-.92,1.33,23.72,23.72,0,0,1-2.38,2.33c-.48.42-.87.73-1,.87-.33.31-1.31,1.15-2.36,2.2a20.7,20.7,0,0,0-2.87,3.36,2.69,2.69,0,0,0-.58,1.62.48.48,0,0,0,.14.27,1.16,1.16,0,0,0,.46.25c2.92.86,6.39.61,9.81,0,2.5-.43,5-1,7.2-1.49,6.31-1.28,13-2.3,18.15-6.18a8.39,8.39,0,0,0,1.75-1.64,1.25,1.25,0,0,0,.33-.91,1,1,0,0,0-.44-.61,6.82,6.82,0,0,0-1.22-.66c-1-.43-2.3-.82-3.42-1.35a5.51,5.51,0,0,1-1.92-1.34,2.49,2.49,0,0,1-.56-1.16,3.07,3.07,0,0,1,.37-1.9,8.6,8.6,0,0,1,4.07-3.6,21.64,21.64,0,0,1,5.82-1.8,22.58,22.58,0,0,1,5.21-.33,12.93,12.93,0,0,1,5.19,1.32,20.21,20.21,0,0,1,4.21,3.12,12.24,12.24,0,0,0,7,3,30,30,0,0,0,8-.44c1.75-.29,3.53-.56,5.28-.86,1.93-.33,3.85-.71,5.7-1.23a19.06,19.06,0,0,0,3.9-1.75,13.48,13.48,0,0,0,3.89-3.13,2.8,2.8,0,0,0,.71-2.13"/><path class="cls-4" d="M168.65,20.64a2.81,2.81,0,0,1,1.25,1.73,2.8,2.8,0,0,1-.71,2.13,13.48,13.48,0,0,1-3.89,3.13,19.06,19.06,0,0,1-3.9,1.75c-1.86.51-3.77.89-5.7,1.23-1.75.3-3.52.56-5.28.86a30,30,0,0,1-8,.44,12.24,12.24,0,0,1-7-3,20.21,20.21,0,0,0-4.21-3.12A12.93,12.93,0,0,0,126,24.48a22.58,22.58,0,0,0-5.21.33,21.64,21.64,0,0,0-5.82,1.8,8.6,8.6,0,0,0-4.07,3.6,3.07,3.07,0,0,0-.37,1.9,2.49,2.49,0,0,0,.56,1.16A5.51,5.51,0,0,0,113,34.61c1.12.52,2.41.92,3.42,1.35a6.82,6.82,0,0,1,1.22.66,1,1,0,0,1,.44.61,1.25,1.25,0,0,1-.33.91A8.39,8.39,0,0,1,116,39.77c-5.17,3.88-11.84,4.9-18.15,6.18-2.22.45-4.7,1.06-7.2,1.49-3.42.59-6.89.84-9.81,0a1.16,1.16,0,0,1-.46-.25.48.48,0,0,1-.14-.27,2.69,2.69,0,0,1,.58-1.62,20.7,20.7,0,0,1,2.87-3.36c1.06-1.05,2-1.88,2.36-2.2.16-.14.55-.45,1-.87a23.72,23.72,0,0,0,2.38-2.33,6.76,6.76,0,0,0,.92-1.33,2.18,2.18,0,0,0,.29-1.39,1.36,1.36,0,0,0-.41-.78,3.77,3.77,0,0,0-2.45-.92V32c0-.18-.08-.17-.26-.32s-.29-.05-.44,0l0-.19c-6,1.07-12.49,2.38-18.21,5.08C62.4,39.61,58,45.16,52.28,48.67a18.41,18.41,0,0,1-6.46,2.27,31.6,31.6,0,0,1-5.17.4,26.72,26.72,0,0,1-4.75-.4,9,9,0,0,1-2.39-.77,2.66,2.66,0,0,1-.72-.56,1.16,1.16,0,0,1-.31-.61,2.19,2.19,0,0,1,.47-1.51C35,44.26,39.64,42,43.21,40.3c1.11-.53,2.44-.83,3.63-1.39a5.16,5.16,0,0,0,1.62-1.15,4,4,0,0,0,1-2,1.37,1.37,0,0,0,0-.49,1.87,1.87,0,0,0-.55-1,5.78,5.78,0,0,0-.69-.55c-1.14-.79-1.58-1.46-1.65-1.91a1,1,0,0,1,.07-.6,2.74,2.74,0,0,1,1-1.07,18.11,18.11,0,0,1,5.9-2l.36-.05a51.11,51.11,0,0,1,10.18-.13,58.07,58.07,0,0,0,9.48,0c.63-.07,1.33-.15,2.07-.27a11.45,11.45,0,0,0,3.95-1.31A4.76,4.76,0,0,0,82,23a6.87,6.87,0,0,1,2.53-4.48,11,11,0,0,1,5-2A24.12,24.12,0,0,1,102,18.06a34.46,34.46,0,0,0,4.18,1.61,9.09,9.09,0,0,0,4.12.32,9,9,0,0,0,3.51-1.47c2.87-2,4.58-4.68,7.51-6.23a28.11,28.11,0,0,1,8.52-2.52l1.62-.28c1.44-.23,2.9-.41,4.36-.6a14.64,14.64,0,0,1,2.64-.24,3.78,3.78,0,0,1,1.33.25,1.13,1.13,0,0,1,.36.25.8.8,0,0,1,.16.34,3.35,3.35,0,0,1-.74,2.06,6.42,6.42,0,0,1-1.82,1.61,5.22,5.22,0,0,0-2,2.1,2.38,2.38,0,0,0-.19,1.34,2.14,2.14,0,0,0,.74,1.24A6,6,0,0,0,139,19a24.86,24.86,0,0,0,5,.48c1.58,0,2.89,0,3.31-.06,3.08-.13,7.17-.77,11.14-.89s7.79.3,10.23,2.14"/><path class="cls-1" d="M128.89,36.68v.08h0c0,.14.1.26,0,.38s-.09.24-.27.29a5.24,5.24,0,0,1-.66.17,1.6,1.6,0,0,1-1-.1,1.53,1.53,0,0,1-.75-.86,10.17,10.17,0,0,0-.76-2.12l-.09-.21a.53.53,0,0,1,.09-.39.56.56,0,0,1,.35-.22h.1a1.49,1.49,0,0,1,1,.49v0a.55.55,0,0,1,.09-.29.46.46,0,0,1,.3-.22l.25,0a1.63,1.63,0,0,1,.63.68c.15.26.25.54.35.76l0,0a4.45,4.45,0,0,1,.46,1.56l-.12,0Z"/><polygon class="cls-5" points="128.89 36.69 128.91 36.76 128.9 36.76 128.89 36.69"/><path class="cls-1" d="M76.38,45.22a.42.42,0,0,1,.26.33v.14A2.79,2.79,0,0,1,76,47a5.57,5.57,0,0,1-1,1,2.48,2.48,0,0,1-1.16.57,2.41,2.41,0,0,1-1.28-.16.48.48,0,0,1-.29-.36v-.18a1.86,1.86,0,0,1,.54-1.08,3.57,3.57,0,0,1,1-.65,9.15,9.15,0,0,0,1.85-1A.5.5,0,0,1,76,45a.42.42,0,0,1,.35.1Z"/><path class="cls-1" d="M73.45,41.13a.48.48,0,0,1,.18.31.65.65,0,0,1-.09.44,2.52,2.52,0,0,1-1.21,1c-.47.2-1,.34-1.33.49-.2.08-.43.15-.64.23a1.05,1.05,0,0,0-.42.29h0l0,0a2.19,2.19,0,0,1-.12.56,1.14,1.14,0,0,1-.86.72h-.23a1.05,1.05,0,0,1-.74-.33,1.34,1.34,0,0,1-.32-.68,1.84,1.84,0,0,1,.16-1.1,1.76,1.76,0,0,1,.74-.76,6.93,6.93,0,0,1,.88-.37,15.26,15.26,0,0,1,2.8-.8q.42-.07.84-.11A.53.53,0,0,1,73.45,41.13Z"/><path class="cls-6" d="M273.93,37.29a8.86,8.86,0,0,1-2.31.4h0a8.86,8.86,0,0,0,2.31-.4m0,0h0m0,0h0m-3.1-.93h0m-.61,0h0m-30.9-.63h0m34.48-.05a7.4,7.4,0,0,1-3,.72,7.4,7.4,0,0,0,3-.72m.14-.06-.08,0,.08,0m-32.61-.11a8.54,8.54,0,0,1-2,.22,8.54,8.54,0,0,0,2-.22m32-.75h0m-35.17-.31h0m-1.08-.06h0m33.19-.1h0m.28-.1a.47.47,0,0,1-.26.1.47.47,0,0,0,.26-.1m4.17,0a3,3,0,0,1-1.39.6,3,3,0,0,0,1.39-.6m0,0h0m-1.83,0h0l0,.27.21.21,0,.14h0l0-.14-.21-.21,0-.27m1.87,0h0m.21,0h0m-5.16-.29A.55.55,0,0,0,270,34a.42.42,0,0,0,.31.19h0A.42.42,0,0,1,270,34a.55.55,0,0,1-.07-.27m-182.66,0h.08a4,4,0,0,1,1.17.17.8.8,0,0,1,.27.14l.07.1a.18.18,0,0,1,0,0,.18.18,0,0,0,0,0L88.8,34a.8.8,0,0,0-.27-.14,4,4,0,0,0-1.17-.17h-.08m-.1,0a16.88,16.88,0,0,0-2.61.26l-.47.08a24.17,24.17,0,0,0-4.74,1.27l-.64.26-.25-.6v0c-1.29.35-2.59.74-3.9,1.18h0c1.3-.44,2.61-.84,3.9-1.18v0l.25.6.64-.26a24.17,24.17,0,0,1,4.74-1.27l.47-.08a16.88,16.88,0,0,1,2.61-.26m0,0h0m195.27-.1h0m-41.13-.21a4.81,4.81,0,0,1-3.09,1,4.81,4.81,0,0,0,3.09-1M286,33.31a17.69,17.69,0,0,0-3.51.32,17.69,17.69,0,0,1,3.51-.32m-8.43-.55A2.93,2.93,0,0,1,275.1,34a2.92,2.92,0,0,0,2.46-1.28m9-.63a22.25,22.25,0,0,0-8.45,1.52,22.25,22.25,0,0,1,8.45-1.52m-13.39-.59a.93.93,0,0,1,0,.11,1.11,1.11,0,0,1-.4.73,4,4,0,0,1-1.27.63l-.14.21a3.63,3.63,0,0,1-.65.89l0,0,0,0a3.63,3.63,0,0,0,.65-.89l.14-.21a4,4,0,0,0,1.27-.63,1.11,1.11,0,0,0,.4-.73.93.93,0,0,0,0-.11"/><path class="cls-7" d="M273,34.07h0a.41.41,0,0,1,.18-.29c.66-.38,1.23-1,1.94-1.53a3.76,3.76,0,0,1,2-.71h.12a.48.48,0,0,1,.38.31.8.8,0,0,1,.1.4.9.9,0,0,1,0,.1,1,1,0,0,1-.08.29h0l0,.08h0l0,0A2.92,2.92,0,0,1,275.1,34h-.19l0,0h0l0,0h0a3,3,0,0,1-1.39.6h-.14l0-.14-.21-.21,0-.27h0m-.66-3.26h.09l.14,0h0a.75.75,0,0,1,.43.33.64.64,0,0,1,.1.37.93.93,0,0,1,0,.11,1.11,1.11,0,0,1-.4.73,4,4,0,0,1-1.27.63l-.14.21a3.63,3.63,0,0,1-.65.89l0,0h0a.47.47,0,0,1-.26.1h-.06A.42.42,0,0,1,270,34a.55.55,0,0,1-.07-.27s0,0,0-.06a.53.53,0,0,1,.16-.32.76.76,0,0,0,.14-.2l-.06-.2.17-.08,0,0,0-.09a8,8,0,0,1,.62-1,4.43,4.43,0,0,1,.53-.61h0a1.16,1.16,0,0,1,.75-.35h0M228,19.59a122.66,122.66,0,0,0-17.89,1,12.59,12.59,0,0,1,.55,2,8,8,0,0,1,.12,1.24,33.42,33.42,0,0,1-.24,4.65,6.54,6.54,0,0,1,1.87-.52h.09a13,13,0,0,1,1.63-.1h0a18.86,18.86,0,0,1,1.94.11h.2c.95.11,1.79.25,2.37.37a57.58,57.58,0,0,1,9.26,3.23A35.31,35.31,0,0,0,237,34.31h.15a9.78,9.78,0,0,0,1.05.06h0a4.81,4.81,0,0,0,3.09-1l0,0a19.27,19.27,0,0,0,3.07-3.53,4.52,4.52,0,0,1,2.92-1.91h0l.14,0h0a16.74,16.74,0,0,1,2.93-.26h0a18.37,18.37,0,0,1,2,.12h0a28.22,28.22,0,0,1,9.92,3.39,11.74,11.74,0,0,1,2.56,2,14,14,0,0,0,2.31,2,7.24,7.24,0,0,0,3,1.13h0a5.44,5.44,0,0,0,.58,0h0a7.4,7.4,0,0,0,3-.72l.05,0,.08,0h0c1.25-.54,2.54-1.3,4-1.91h0a22.25,22.25,0,0,1,8.45-1.52h0c1.06,0,2.12.05,3.18.15a18.88,18.88,0,0,1,4.11-1.5c2.44-.54,4.89-1.1,7.34-1.6l-1.7-.47-2.32-.59-1.26-.29c-9-2.11-18.19-3.27-27.38-4.52l-1.13-.13c-4.14-.49-8.27-1.16-12.44-1.64-6.79-.78-13.64-1.15-20.42-1.93h0l-6.51,0"/><path class="cls-1" d="M250.44,27.66h0a16.72,16.72,0,0,0-2.93.26h0l-.14,0h0a4.52,4.52,0,0,0-2.92,1.91,19.27,19.27,0,0,1-3.07,3.53l0,0a4.81,4.81,0,0,1-3.09,1h0a9.78,9.78,0,0,1-1.05-.06H237a35.31,35.31,0,0,1-9.15-2.67,57.58,57.58,0,0,0-9.26-3.23c-.59-.12-1.43-.27-2.37-.37h-.2a18.86,18.86,0,0,0-1.94-.11h0a13,13,0,0,0-1.63.1h-.09a6.54,6.54,0,0,0-1.87.52c-.08.6-.17,1.2-.29,1.79a17.57,17.57,0,0,1-.72,2.62c.7.2,1.4.43,2.08.69a3.31,3.31,0,0,1-.85-1.83,1.09,1.09,0,0,1,0-.13,1,1,0,0,1,.22-.51,2.54,2.54,0,0,1,1.2-.68h.06a11.93,11.93,0,0,1,3.21-.36h0a23.12,23.12,0,0,1,2.31.12h.16l.33,0c5.93.82,11.42,3.9,17.52,5,.58.1,1.23.22,1.91.29a15.27,15.27,0,0,0,1.71.11h0a8.54,8.54,0,0,0,2-.22l.13,0a4.41,4.41,0,0,0,3-2.43A6.37,6.37,0,0,1,248,29.66h0l0,0h0l0,0a9.2,9.2,0,0,1,3.34-.58h0a13,13,0,0,1,1.32.07h.18a22.35,22.35,0,0,1,10.75,4.64A32,32,0,0,0,267,36.3a9.37,9.37,0,0,0,2.3,1.08c.78.13,1.57.23,2.36.31a8.86,8.86,0,0,0,2.31-.4h.12c3.06-1,5.29-3,8.3-3.59h.12a17.69,17.69,0,0,1,3.51-.32h0c.54,0,1.08,0,1.62,0,.69-.38,1.38-.75,2.08-1.08-1.06-.09-2.12-.15-3.18-.15h0a22.25,22.25,0,0,0-8.45,1.52h0c-1.51.61-2.8,1.36-4,1.91h0l-.08,0-.05,0a7.4,7.4,0,0,1-3,.72h0a5.44,5.44,0,0,1-.58,0h0a7.24,7.24,0,0,1-3-1.13,14,14,0,0,1-2.31-2,11.74,11.74,0,0,0-2.56-2,28.22,28.22,0,0,0-9.92-3.39h0a18.37,18.37,0,0,0-2-.12h0"/><path class="cls-8" d="M286,33.31h0a17.69,17.69,0,0,0-3.51.32h-.12c-3,.62-5.24,2.6-8.3,3.59h-.12a8.86,8.86,0,0,1-2.31.4c.88.08,1.75.13,2.63.13a20.57,20.57,0,0,0,5.1-.61c2.94-.75,5.58-2.38,8.27-3.85-.54,0-1.08,0-1.62,0h0M251.41,29h0a9.2,9.2,0,0,0-3.34.58l0,0h0l0,0h0A6.37,6.37,0,0,0,244.55,33a4.41,4.41,0,0,1-3,2.43l-.13,0a8.54,8.54,0,0,1-2,.22h0a15.27,15.27,0,0,1-1.71-.11c-.69-.08-1.33-.19-1.91-.29-6.1-1.07-11.59-4.16-17.52-5l-.33,0h-.16a23.12,23.12,0,0,0-2.31-.12h0a12,12,0,0,0-3.21.36h-.06a2.54,2.54,0,0,0-1.2.68,1,1,0,0,0-.22.51,1.09,1.09,0,0,0,0,.13,3.31,3.31,0,0,0,.85,1.83c3.47,1.31,6.79,3.32,10.39,5a17.55,17.55,0,0,0,7.38,1.6,23.7,23.7,0,0,0,8.83-1.86c2.95-1.19,5.74-2.79,8.72-3.89a13.1,13.1,0,0,1,4.56-.77c3.32,0,6.69,1,9.87,1.87,2.58.69,5.24,1.4,7.92,1.84A9.37,9.37,0,0,1,267,36.3a32,32,0,0,1-3.29-2.52,22.35,22.35,0,0,0-10.75-4.64h-.18a13,13,0,0,0-1.32-.07h0"/><path class="cls-1" d="M277.11,31.54a3.76,3.76,0,0,0-2,.71c-.71.49-1.28,1.15-1.94,1.53a.41.41,0,0,0-.18.29h0l0,.27.21.21,0,.14h.14a3,3,0,0,0,1.39-.6h0l0,0h0l0,0h.19a2.93,2.93,0,0,0,2.46-1.28l0,0h0l0-.08h0a1,1,0,0,0,.08-.29.9.9,0,0,0,0-.1.8.8,0,0,0-.1-.4.48.48,0,0,0-.38-.31h-.12"/><path class="cls-1" d="M271,33.49l.09-.13.13-.13-.08.12-.14.13m1.36-2.68h0a1.16,1.16,0,0,0-.75.35h0a4.43,4.43,0,0,0-.53.61,8,8,0,0,0-.62,1l0,.09,0,0-.17.08.06.2h0a.76.76,0,0,1-.14.2.53.53,0,0,0-.16.32s0,0,0,.06A.55.55,0,0,0,270,34a.42.42,0,0,0,.31.19h.06a.47.47,0,0,0,.26-.1h0l0,0a3.63,3.63,0,0,0,.65-.89l.14-.21a4,4,0,0,0,1.27-.63,1.11,1.11,0,0,0,.4-.73.93.93,0,0,0,0-.11.64.64,0,0,0-.1-.37.75.75,0,0,0-.43-.33h0l-.14,0h-.09"/><path class="cls-7" d="M87.19,33.74h0a16.88,16.88,0,0,0-2.61.26l-.47.08a24.17,24.17,0,0,0-4.74,1.27l-.64.26-.25-.6v0c-1.29.35-2.59.74-3.9,1.18a17.67,17.67,0,0,0,6.76,2.59q1.33.22,2.62.3c1.35-1.12,2.72-2.18,3.92-3.38a4.73,4.73,0,0,0,.84-1.06,1,1,0,0,0,.16-.44.18.18,0,0,0,0,0L88.8,34a.8.8,0,0,0-.27-.14,4,4,0,0,0-1.17-.17h-.17M148.44,1.47h-2.07c-3.79.15-7.57.39-11.27.61h0l-.61,0-.68,0h-.16c-10.1.56-20,2.14-30,3.65C95.93,7,88.19,8,80.51,9.33q-2.05.35-4.1.73L71.67,11l-3.16.69a142.5,142.5,0,0,0-26,8.73h0l-1.4.67a128.43,128.43,0,0,0-12.19,7c.25.41.49.81.72,1.16,2.53,3.87,5.92,4.57,9.92,5.54,1.83.44,4.2,1.18,6.5,1.52a1.27,1.27,0,0,0,0-.19,1.44,1.44,0,0,0,0-.25,2.27,2.27,0,0,0-.67-1.18l-.4-.36a2.32,2.32,0,0,1-.51-.68A6.58,6.58,0,0,1,44,32.3a3.12,3.12,0,0,1-.05-.59,4.38,4.38,0,0,1,.34-1.59,5,5,0,0,1,2.81-2.53,17.32,17.32,0,0,1,4-1.15c1-.17,1.93-.28,2.57-.33h.13c.67,0,1.34-.06,2-.06h0a76.81,76.81,0,0,1,7.86.56h.19l.28,0h.4l.3,0c1.74.17,3.47.29,5.17.29h0a26.87,26.87,0,0,0,4.21-.31h0l.16,0h.15a5.8,5.8,0,0,0,4.14-2.25,20.86,20.86,0,0,0,2.11-4.59A4.87,4.87,0,0,1,83.35,17a18.64,18.64,0,0,1,5.31-1.73h.07a23.47,23.47,0,0,1,3.89-.31h0a35.85,35.85,0,0,1,7.13.8l.09,0,.1,0a12.68,12.68,0,0,1,3.27,1.32,15,15,0,0,0,3,1.34h0a9,9,0,0,0,2.33.35h0a6.23,6.23,0,0,0,1-.08h0a7.53,7.53,0,0,0,3.62-1.89c1.13-.94,2.24-2.11,3.61-3.2,3.87-3.06,8.43-4.41,13.1-5.21.93-.16,1.87-.3,2.8-.43l.11,0c.5-.08,1.68-.37,3-.59A17.82,17.82,0,0,1,138.2,7h.29a5.27,5.27,0,0,1,1.62.21l.05,0h0l.08,0h0a1.77,1.77,0,0,1,1,.83,3.64,3.64,0,0,1,.37,1.06,3.34,3.34,0,0,1,0,.57,4,4,0,0,1-.6,2,7.75,7.75,0,0,1-1.78,2,6.75,6.75,0,0,0-1.45,1.5,1.4,1.4,0,0,0-.27.73.7.7,0,0,0,0,.12.66.66,0,0,0,.17.33,1.65,1.65,0,0,0,.46.35,5.9,5.9,0,0,0,1.68.54l.11,0H140a19.34,19.34,0,0,0,3.28.26H144c1.13,0,4.33-.34,8.12-.52h0l.47,0h.07c1.42-.06,2.9-.1,4.4-.1h0a51.81,51.81,0,0,1,6.88.4,13.31,13.31,0,0,1,5.91,1.94,3.68,3.68,0,0,1,1.51,2.31,3.53,3.53,0,0,1,.05.61A4.65,4.65,0,0,1,171,24l-.07.17c4.39,1.8,8.51,4.78,12.82,6.7q1.22.55,2.42.94l.47-.22c7-3.32,13.44-7.6,18.24-14.41a.75.75,0,0,1,.31-.26h0l-.59-.68h.09l-1.12-.93c-1.88-1.24-4-2.23-5.91-3.29a81.18,81.18,0,0,0-15.13-6c-2.5-.77-4.68-1.36-6.87-1.86l-.89-.2c-2.06-.45-4.17-.82-6.59-1.21-1.14-.18-2.34-.41-3.58-.62-1.64-.22-3.3-.42-5-.57H159a15.81,15.81,0,0,0-2.17.14l-.07-.16h-3.47l-4.87,0"/><path class="cls-1" d="M87.07,31.47a90.3,90.3,0,0,0-14.3,3.48c.6.43,1.19.83,1.8,1.21,1.3-.44,2.61-.84,3.9-1.18v0l.25.6.64-.26a24.17,24.17,0,0,1,4.74-1.27l.47-.08a16.88,16.88,0,0,1,2.61-.26h.18a4,4,0,0,1,1.17.17.8.8,0,0,1,.27.14l.07.1a.18.18,0,0,1,0,0,1,1,0,0,1-.16.44,4.73,4.73,0,0,1-.84,1.06c-1.2,1.2-2.57,2.27-3.92,3.38q.93.06,1.83.06l1,0,.28-.24a23.72,23.72,0,0,0,2.38-2.33,6.76,6.76,0,0,0,.92-1.33,2.39,2.39,0,0,0,.32-1.11,1.68,1.68,0,0,0,0-.28,1.36,1.36,0,0,0-.41-.78,3.77,3.77,0,0,0-2.45-.92V32c0-.18-.08-.17-.26-.32h0a.26.26,0,0,0-.17-.06h0a.86.86,0,0,0-.23,0h0v0l-.2,0,.2-.05,0-.19M138.47,7h-.27a17.82,17.82,0,0,0-2.33.27c-1.29.22-2.47.52-3,.59l-.11,0c-.93.13-1.87.27-2.8.43-4.67.8-9.23,2.15-13.1,5.21-1.38,1.09-2.49,2.26-3.61,3.2a7.53,7.53,0,0,1-3.62,1.89h0a6.19,6.19,0,0,1-1,.08h0a9,9,0,0,1-2.33-.35h0a15,15,0,0,1-3-1.34A12.68,12.68,0,0,0,100,15.73l-.1,0-.09,0a35.85,35.85,0,0,0-7.13-.8h0a23.47,23.47,0,0,0-3.89.31h-.07A18.64,18.64,0,0,0,83.35,17a4.87,4.87,0,0,0-2.44,2.87,20.86,20.86,0,0,1-2.11,4.59,5.8,5.8,0,0,1-4.14,2.25h-.15l-.16,0h0A26.87,26.87,0,0,1,70.1,27h0c-1.7,0-3.43-.12-5.17-.29l-.3,0h-.4l-.28,0h-.19A76.81,76.81,0,0,0,55.89,26h0c-.67,0-1.34,0-2,.06h-.13c-.65,0-1.56.16-2.57.33a17.32,17.32,0,0,0-4,1.15,5,5,0,0,0-2.81,2.53A4.38,4.38,0,0,0,44,31.72a3.12,3.12,0,0,0,.05.59,6.58,6.58,0,0,0,.41,1.34,2.32,2.32,0,0,0,.51.68l.4.36A2.27,2.27,0,0,1,46,35.87a1.44,1.44,0,0,1,0,.25,1.27,1.27,0,0,1,0,.19,15.73,15.73,0,0,0,2.3.19q.46,0,.9,0a4.73,4.73,0,0,0,.19-.66,1.42,1.42,0,0,0,0-.27,1.29,1.29,0,0,0,0-.23,1.87,1.87,0,0,0-.55-1,5.78,5.78,0,0,0-.69-.55c-1.14-.79-1.58-1.46-1.65-1.91a1,1,0,0,1,0-.18,1.1,1.1,0,0,1,.09-.42,2.74,2.74,0,0,1,1-1.07,18.11,18.11,0,0,1,5.9-2l.36-.05h0a33.19,33.19,0,0,1,4.85-.32h0c1.56,0,3.13.07,4.7.16h.31l.3,0h0l.57,0h.11c1.55.08,3.11.15,4.68.15h0a37.87,37.87,0,0,0,3.89-.18h.22c.63-.07,1.33-.15,2.07-.27a11.45,11.45,0,0,0,3.95-1.31A4.76,4.76,0,0,0,82,23a6.87,6.87,0,0,1,2.53-4.48,11,11,0,0,1,5-2h0a19.33,19.33,0,0,1,3.25-.26h0a24.71,24.71,0,0,1,9.1,1.74l.08,0,.11,0a34.46,34.46,0,0,0,4.18,1.61l.18.05h0a9.87,9.87,0,0,0,2.57.37h0a7.87,7.87,0,0,0,1.29-.11h0a9,9,0,0,0,3.51-1.47c2.87-2,4.58-4.68,7.51-6.23a28.11,28.11,0,0,1,8.52-2.52l1.62-.28c1.44-.23,2.9-.41,4.36-.6h0a15.88,15.88,0,0,1,2.36-.24h.26a3.78,3.78,0,0,1,1.33.25,1.13,1.13,0,0,1,.36.25.8.8,0,0,1,.16.34,1,1,0,0,1,0,.16,3.9,3.9,0,0,1-.75,1.9,6.42,6.42,0,0,1-1.82,1.61,5.22,5.22,0,0,0-2,2.1,2.55,2.55,0,0,0-.22,1,2.09,2.09,0,0,0,0,.35,2.14,2.14,0,0,0,.74,1.24A6,6,0,0,0,139,19a24.86,24.86,0,0,0,5,.48h.69c1,0,1.91,0,2.38-.05h.24c3.08-.13,7.17-.77,11.14-.89h.13l1.16,0h0c3.5,0,6.76.52,8.94,2.16a2.81,2.81,0,0,1,1.25,1.73,1.9,1.9,0,0,1,0,.31,2.37,2.37,0,0,1-.22,1q.64.22,1.27.48L171,24a4.65,4.65,0,0,0,.34-1.68,3.53,3.53,0,0,0-.05-.61,3.68,3.68,0,0,0-1.51-2.31,13.31,13.31,0,0,0-5.91-1.94A51.81,51.81,0,0,0,157,17h0c-1.49,0-3,0-4.4.1h-.07l-.47,0h0c-3.79.18-7,.5-8.12.52h-.66a19.34,19.34,0,0,1-3.28-.26H140l-.11,0a5.9,5.9,0,0,1-1.68-.54,1.65,1.65,0,0,1-.46-.35.66.66,0,0,1-.17-.33.7.7,0,0,1,0-.12,1.4,1.4,0,0,1,.27-.73,6.75,6.75,0,0,1,1.45-1.5,7.75,7.75,0,0,0,1.78-2,4,4,0,0,0,.6-2,3.34,3.34,0,0,0,0-.57,3.64,3.64,0,0,0-.37-1.06,1.77,1.77,0,0,0-1-.83h0l-.08,0h0l-.05,0A5.27,5.27,0,0,0,138.49,7h0"/><path class="cls-8" d="M138.23,8.65h0a15.88,15.88,0,0,0-2.36.24h0c-1.46.19-2.91.37-4.36.6l-1.62.28a28.11,28.11,0,0,0-8.52,2.52c-2.93,1.56-4.65,4.28-7.51,6.23A9,9,0,0,1,110.31,20h0a7.82,7.82,0,0,1-1.29.11h0a9.87,9.87,0,0,1-2.57-.37h0l-.18-.05A34.46,34.46,0,0,1,102,18.06l-.11,0-.08,0a24.71,24.71,0,0,0-9.1-1.74h0a19.33,19.33,0,0,0-3.25.26h0a11,11,0,0,0-5,2A6.87,6.87,0,0,0,82,23a4.76,4.76,0,0,1-2.38,3.43,11.45,11.45,0,0,1-3.95,1.31c-.74.13-1.44.21-2.07.27h-.22a37.87,37.87,0,0,1-3.89.18h0c-1.56,0-3.12-.07-4.68-.15h-.11l-.57,0h0l-.3,0h-.31c-1.58-.08-3.14-.16-4.7-.16h0a33.19,33.19,0,0,0-4.85.32h0l-.36.05a18.11,18.11,0,0,0-5.9,2,2.74,2.74,0,0,0-1,1.07,1.1,1.1,0,0,0-.09.42,1,1,0,0,0,0,.18c.07.45.51,1.12,1.65,1.91a5.78,5.78,0,0,1,.69.55,1.87,1.87,0,0,1,.55,1,1.29,1.29,0,0,1,0,.23,1.42,1.42,0,0,1,0,.27,4.73,4.73,0,0,1-.19.66A7.22,7.22,0,0,0,51,36.1c4.27-1.49,8.89-6,13.29-6a6,6,0,0,1,3.53,1.15c1.82,1.29,3.39,2.55,5,3.67a90.3,90.3,0,0,1,14.3-3.48l0,.19h0a.86.86,0,0,1,.23,0h0a.26.26,0,0,1,.17.06h0c.18.15.23.14.26.32v.11a3.77,3.77,0,0,1,2.45.92,1.36,1.36,0,0,1,.41.78,1.68,1.68,0,0,1,0,.28,2.39,2.39,0,0,1-.32,1.11,6.76,6.76,0,0,1-.92,1.33,23.72,23.72,0,0,1-2.38,2.33l-.28.24A30.12,30.12,0,0,0,98.59,36c4.52-2.12,8.73-4.82,13.16-7a10.14,10.14,0,0,1,3.2-2.32,21.64,21.64,0,0,1,5.82-1.8l.25,0,.14,0h.09l.13,0h0a24.05,24.05,0,0,1,3.47-.27h0l1,0H126c.4,0,.78.07,1.15.11,2.28-.19,4.58-.24,6.87-.24,1.31,0,2.62,0,3.93,0s2.61,0,3.9,0h.77c6.95,0,13.77-1.46,20.69-1.79l.71,0a17.25,17.25,0,0,1,5.71,1,2.37,2.37,0,0,0,.22-1,1.9,1.9,0,0,0,0-.31,2.81,2.81,0,0,0-1.25-1.73c-2.18-1.64-5.44-2.16-8.94-2.16h0l-1.16,0h-.13c-4,.12-8.06.76-11.14.89H147c-.47,0-1.33.05-2.38.05H144a24.86,24.86,0,0,1-5-.48,6,6,0,0,1-2.62-1.13,2.14,2.14,0,0,1-.74-1.24,2.09,2.09,0,0,1,0-.35,2.55,2.55,0,0,1,.22-1,5.22,5.22,0,0,1,2-2.1,6.42,6.42,0,0,0,1.82-1.61,3.9,3.9,0,0,0,.75-1.9,1,1,0,0,0,0-.16.8.8,0,0,0-.16-.34,1.13,1.13,0,0,0-.36-.25,3.78,3.78,0,0,0-1.33-.25h-.25"/></g></g></svg>